<svg width="51" height="51" viewBox="0 0 51 51" fill="none" xmlns="http://www.w3.org/2000/svg">
<g clip-path="url(#clip0_96_359)">
<path d="M28.8394 47.4C28.0189 48.2205 26.9061 48.6814 25.7458 48.6814C24.5855 48.6814 23.4727 48.2205 22.6522 47.4L4.09066 28.8385C3.27019 28.018 2.80925 26.9052 2.80925 25.7449C2.80925 24.5846 3.27019 23.4718 4.09066 22.6513L22.6522 4.08973C23.4727 3.26926 24.5855 2.80833 25.7458 2.80833C26.9061 2.80833 28.0189 3.26926 28.8394 4.08973L47.4009 22.6513C48.2214 23.4718 48.6824 24.5846 48.6823 25.7449C48.6824 26.9052 48.2214 28.018 47.4009 28.8385L28.8394 47.4ZM24.6522 18.1671L24.6522 30.8385L20.3707 26.5569C20.1656 26.3518 19.8874 26.2366 19.5973 26.2366C19.3072 26.2366 19.029 26.3518 18.8239 26.5569C18.6188 26.7621 18.5035 27.0403 18.5035 27.3303C18.5035 27.6204 18.6188 27.8986 18.8239 28.1037L24.9724 34.2523C25.1775 34.4574 25.4557 34.5726 25.7458 34.5726C26.0359 34.5726 26.3141 34.4574 26.5192 34.2523L32.6677 28.1037C32.8728 27.8986 32.9881 27.6204 32.9881 27.3303C32.9881 27.0403 32.8728 26.7621 32.6677 26.5569C32.4626 26.3518 32.1844 26.2366 31.8943 26.2366C31.6042 26.2366 31.326 26.3518 31.1209 26.5569L26.8394 30.8385L26.8394 18.1671C26.8419 18.0219 26.8155 17.8777 26.7617 17.7428C26.7078 17.6079 26.6277 17.485 26.5259 17.3815C26.4241 17.2779 26.3027 17.1956 26.1688 17.1394C26.0348 17.0833 25.891 17.0544 25.7458 17.0544C25.6006 17.0544 25.4568 17.0833 25.3229 17.1394C25.1889 17.1956 25.0675 17.2779 24.9657 17.3815C24.8639 17.485 24.7838 17.6079 24.7299 17.7428C24.6761 17.8777 24.6497 18.0219 24.6522 18.1671Z" fill="#423AF2"/>
</g>
<defs>
<clipPath id="clip0_96_359">
<rect width="35" height="35" fill="white" transform="translate(0.99707 25.7449) rotate(-45)"/>
</clipPath>
</defs>
</svg>
