<svg width="50" height="50" viewBox="0 0 50 50" fill="none" xmlns="http://www.w3.org/2000/svg">
<g clip-path="url(#clip0_96_356)">
<path d="M21.2737 3.14706C22.0798 2.31239 23.1843 1.83211 24.3445 1.81186C25.5046 1.7916 26.6253 2.23305 27.46 3.03908L46.3426 21.2739C47.1773 22.0799 47.6576 23.1845 47.6778 24.3446C47.6981 25.5048 47.2566 26.6254 46.4506 27.4601L28.2158 46.3428C27.4098 47.1774 26.3052 47.6577 25.1451 47.678C23.9849 47.6982 22.8643 47.2568 22.0296 46.4507L3.14692 28.216C2.31226 27.4099 1.83197 26.3054 1.81172 25.1452C1.79147 23.9851 2.23292 22.8644 3.03894 22.0297L21.2737 3.14706ZM25.9704 32.3024L25.7493 19.633L30.1049 23.8392C30.3136 24.0407 30.5937 24.151 30.8838 24.146C31.1738 24.1409 31.45 24.0208 31.6515 23.8122C31.853 23.6035 31.9633 23.3233 31.9583 23.0333C31.9532 22.7433 31.8331 22.4671 31.6245 22.2656L25.3696 16.2253C25.1609 16.0238 24.8808 15.9135 24.5907 15.9185C24.3007 15.9236 24.0245 16.0437 23.823 16.2523L17.7828 22.5072C17.5812 22.7159 17.4709 22.996 17.4759 23.2861C17.481 23.5761 17.6011 23.8523 17.8097 24.0538C18.0184 24.2553 18.2986 24.3656 18.5886 24.3606C18.8787 24.3555 19.1548 24.2354 19.3563 24.0268L23.5625 19.6712L23.7836 32.3406C23.7836 32.4858 23.8126 32.6296 23.8687 32.7635C23.9249 32.8975 24.0072 33.0189 24.1108 33.1207C24.2144 33.2225 24.3372 33.3026 24.4721 33.3564C24.607 33.4102 24.7512 33.4366 24.8964 33.4341C25.0417 33.4316 25.1849 33.4001 25.3178 33.3416C25.4508 33.2832 25.5707 33.1988 25.6707 33.0934C25.7707 32.9881 25.8487 32.8639 25.9001 32.7281C25.9516 32.5923 25.9755 32.4476 25.9704 32.3024Z" fill="#423AF2"/>
</g>
<defs>
<clipPath id="clip0_96_356">
<rect width="35" height="35" fill="white" transform="translate(49.4897 24.313) rotate(134)"/>
</clipPath>
</defs>
</svg>
