<svg width="37" height="35" viewBox="0 0 37 35" fill="none" xmlns="http://www.w3.org/2000/svg">
<path d="M10.2778 22.6171H28.7778C29.9083 22.6171 30.8333 23.5321 30.8333 24.6503C30.8333 25.7686 29.9083 26.6835 28.7778 26.6835H8.22222C7.09167 26.6835 6.16667 25.7686 6.16667 24.6503V4.31865H2.05556C0.925 4.31865 0 3.40373 0 2.28549C0 1.16724 0.925 0.252319 2.05556 0.252319H8.22222C9.35278 0.252319 10.2778 1.16724 10.2778 2.28549V6.35182H37L28.7778 20.584H10.2778V22.6171ZM9.25 28.7166C10.9561 28.7166 12.3333 30.0789 12.3333 31.7664C12.3333 33.4539 10.9561 34.8161 9.25 34.8161C7.54389 34.8161 6.16667 33.4539 6.16667 31.7664C6.16667 30.0789 7.54389 28.7166 9.25 28.7166ZM27.75 28.7166C29.4561 28.7166 30.8333 30.0789 30.8333 31.7664C30.8333 33.4539 29.4561 34.8161 27.75 34.8161C26.0439 34.8161 24.6667 33.4539 24.6667 31.7664C24.6667 30.0789 26.0439 28.7166 27.75 28.7166Z" fill="#423AF2"/>
</svg>
