<svg width="30" height="30" viewBox="0 0 30 30" fill="none" xmlns="http://www.w3.org/2000/svg">
<path d="M8.75 17.4968C9.41304 17.4968 10.0489 17.2367 10.5178 16.7737C10.9866 16.3107 11.25 15.6827 11.25 15.0279C11.25 14.3731 10.9866 13.7452 10.5178 13.2822C10.0489 12.8192 9.41304 12.5591 8.75 12.5591C8.08696 12.5591 7.45107 12.8192 6.98223 13.2822C6.51339 13.7452 6.25 14.3731 6.25 15.0279C6.25 15.6827 6.51339 16.3107 6.98223 16.7737C7.45107 17.2367 8.08696 17.4968 8.75 17.4968Z" fill="#A82FF9"/>
<path d="M17.5 15.0279C17.5 15.6827 17.2366 16.3107 16.7678 16.7737C16.2989 17.2367 15.663 17.4968 15 17.4968C14.337 17.4968 13.7011 17.2367 13.2322 16.7737C12.7634 16.3107 12.5 15.6827 12.5 15.0279C12.5 14.3731 12.7634 13.7452 13.2322 13.2822C13.7011 12.8192 14.337 12.5591 15 12.5591C15.663 12.5591 16.2989 12.8192 16.7678 13.2822C17.2366 13.7452 17.5 14.3731 17.5 15.0279Z" fill="#A82FF9"/>
<path d="M21.25 17.4968C21.913 17.4968 22.5489 17.2367 23.0178 16.7737C23.4866 16.3107 23.75 15.6827 23.75 15.0279C23.75 14.3731 23.4866 13.7452 23.0178 13.2822C22.5489 12.8192 21.913 12.5591 21.25 12.5591C20.587 12.5591 19.9511 12.8192 19.4822 13.2822C19.0134 13.7452 18.75 14.3731 18.75 15.0279C18.75 15.6827 19.0134 16.3107 19.4822 16.7737C19.9511 17.2367 20.587 17.4968 21.25 17.4968Z" fill="#A82FF9"/>
<path fill-rule="evenodd" clip-rule="evenodd" d="M30 15.0279C30 23.2084 23.2838 29.841 15 29.841C6.71625 29.841 0 23.2084 0 15.0279C0 6.8474 6.71625 0.214844 15 0.214844C23.2838 0.214844 30 6.8474 30 15.0279ZM27.5 15.0279C27.5 21.8456 21.9037 27.3721 15 27.3721C8.09625 27.3721 2.5 21.8456 2.5 15.0279C2.5 8.2102 8.09625 2.68369 15 2.68369C21.9037 2.68369 27.5 8.2102 27.5 15.0279Z" fill="#423AF2"/>
</svg>
