<svg width="20" height="20" viewBox="0 0 20 20" fill="none" xmlns="http://www.w3.org/2000/svg">
<path d="M18.7491 9.99993L19.8531 8.09193C19.9858 7.86238 20.0219 7.58952 19.9535 7.33336C19.885 7.0772 19.7176 6.85871 19.4881 6.72593L17.5781 5.62193V3.42193C17.5781 3.15672 17.4728 2.90236 17.2852 2.71483C17.0977 2.52729 16.8433 2.42193 16.5781 2.42193H14.3791L13.2761 0.512935C13.1429 0.283852 12.9249 0.116441 12.6691 0.0469354C12.5423 0.0125513 12.4099 0.00368519 12.2796 0.020851C12.1493 0.0380167 12.0237 0.0808731 11.9101 0.146935L10.0001 1.25094L8.09013 0.145935C7.86045 0.0133331 7.5875 -0.0226015 7.33133 0.0460363C7.07516 0.114674 6.85674 0.282262 6.72413 0.511935L5.62013 2.42193H3.42113C3.15592 2.42193 2.90156 2.52729 2.71403 2.71483C2.52649 2.90236 2.42113 3.15672 2.42113 3.42193V5.62093L0.511132 6.72493C0.397165 6.79049 0.297273 6.87792 0.217197 6.9822C0.137121 7.08647 0.0784389 7.20555 0.0445217 7.33257C0.0106046 7.4596 0.00212117 7.59208 0.0195588 7.72239C0.0369965 7.85271 0.0800115 7.97829 0.146133 8.09193L1.25013 9.99993L0.146133 11.9079C0.0141214 12.1377 -0.0216953 12.4104 0.0464911 12.6664C0.114677 12.9225 0.281337 13.1412 0.510133 13.2749L2.42013 14.3789V16.5779C2.42013 16.8431 2.52549 17.0975 2.71303 17.285C2.90056 17.4726 3.15492 17.5779 3.42013 17.5779H5.62013L6.72413 19.4879C6.81266 19.6393 6.93907 19.765 7.09091 19.8526C7.24275 19.9403 7.4148 19.9869 7.59013 19.9879C7.76413 19.9879 7.93713 19.9419 8.09113 19.8529L9.99913 18.7489L11.9091 19.8529C12.1387 19.9853 12.4115 20.0213 12.6676 19.9529C12.9237 19.8844 13.1422 19.7172 13.2751 19.4879L14.3781 17.5779H16.5771C16.8423 17.5779 17.0967 17.4726 17.2842 17.285C17.4718 17.0975 17.5771 16.8431 17.5771 16.5779V14.3789L19.4871 13.2749C19.6009 13.2092 19.7006 13.1217 19.7805 13.0174C19.8604 12.9131 19.919 12.794 19.9529 12.6671C19.9868 12.5401 19.9954 12.4077 19.9781 12.2775C19.9608 12.1472 19.918 12.0216 19.8521 11.9079L18.7491 9.99993ZM7.49913 4.98993C7.89709 4.99007 8.27869 5.14828 8.56 5.42977C8.8413 5.71127 8.99926 6.09298 8.99913 6.49093C8.999 6.88889 8.84078 7.2705 8.55929 7.5518C8.2778 7.83311 7.89609 7.99107 7.49813 7.99093C7.10017 7.9908 6.71857 7.83259 6.43726 7.55109C6.15596 7.2696 5.998 6.88789 5.99813 6.48993C5.99826 6.09198 6.15648 5.71037 6.43797 5.42907C6.71946 5.14776 7.10117 4.9898 7.49913 4.98993ZM7.79913 14.5899L6.19913 13.3909L12.1991 5.39093L13.7991 6.58993L7.79913 14.5899ZM12.4991 14.9899C12.3021 14.9899 12.107 14.951 11.925 14.8755C11.7429 14.8001 11.5775 14.6895 11.4383 14.5501C11.299 14.4107 11.1885 14.2453 11.1132 14.0632C11.0378 13.8811 10.9991 13.686 10.9991 13.4889C10.9992 13.2919 11.0381 13.0968 11.1135 12.9148C11.189 12.7327 11.2996 12.5674 11.439 12.4281C11.5784 12.2888 11.7438 12.1783 11.9259 12.103C12.1079 12.0276 12.3031 11.9889 12.5001 11.9889C12.8981 11.9891 13.2797 12.1473 13.561 12.4288C13.8423 12.7103 14.0003 13.092 14.0001 13.4899C14 13.8879 13.8418 14.2695 13.5603 14.5508C13.2788 14.8321 12.8971 14.9901 12.4991 14.9899Z" fill="#423AF2"/>
</svg>
