<svg width="14" height="13" viewBox="0 0 14 13" fill="none" xmlns="http://www.w3.org/2000/svg">
<path d="M13.5066 4.45001L9.53941 3.87344L7.76597 0.278131C7.71753 0.179693 7.63785 0.100006 7.53941 0.0515683C7.29253 -0.0703067 6.99253 0.0312558 6.8691 0.278131L5.09566 3.87344L1.12847 4.45001C1.0191 4.46563 0.919097 4.51719 0.842534 4.59532C0.749974 4.69045 0.69897 4.81844 0.700728 4.95117C0.702485 5.08389 0.756862 5.21048 0.851909 5.30313L3.72222 8.10157L3.0441 12.0531C3.02819 12.1451 3.03837 12.2396 3.07346 12.326C3.10855 12.4125 3.16716 12.4873 3.24264 12.5422C3.31812 12.597 3.40745 12.6296 3.5005 12.6362C3.59355 12.6428 3.6866 12.6233 3.7691 12.5797L7.31753 10.7141L10.866 12.5797C10.9628 12.6313 11.0753 12.6484 11.1832 12.6297C11.455 12.5828 11.6378 12.325 11.591 12.0531L10.9128 8.10157L13.7832 5.30313C13.8613 5.22657 13.9128 5.12657 13.9285 5.01719C13.9707 4.74376 13.78 4.49063 13.5066 4.45001Z" fill="#DBB702"/>
</svg>
