<svg width="123" height="62" viewBox="0 0 123 62" fill="none" xmlns="http://www.w3.org/2000/svg">
<ellipse rx="26.0119" ry="26.5986" transform="matrix(0.998435 0.0535115 -0.0511717 0.99854 28.1834 27.9517)" fill="#423AF2"/>
<line y1="-0.5" x2="14.8558" y2="-0.5" transform="matrix(0.998435 0.0535115 -0.0511717 0.99854 6.7002 11.5818)" stroke="white"/>
<rect width="18.5799" height="15.1992" rx="7.59959" transform="matrix(0.998435 0.0535115 -0.0511717 0.99854 33.457 33.9415)" fill="white"/>
<path d="M34.5224 43.6428C38.4555 37.4167 46.5462 35.5929 52.6351 39.5599L56.8281 42.2916C60.6288 44.7678 61.7393 49.9385 59.3084 53.8408V53.8408C56.8083 57.8539 51.5586 58.9429 47.753 56.2376L33.1319 45.844L34.5224 43.6428Z" fill="#A82FF9"/>
<path d="M67.99 33.16C68.45 33.16 68.86 33.06 69.22 32.86L69.07 36.25C68.13 37.03 67.06 37.42 65.86 37.42C64.04 37.42 62.86 37 62.32 36.16C61.96 35.6 61.78 35.01 61.78 34.39C61.78 33.75 61.82 33.19 61.9 32.71L63.7 22.57H68.8L67.12 32.02C67.1 32.14 67.09 32.25 67.09 32.35C67.09 32.89 67.39 33.16 67.99 33.16ZM64.3 17.68C64.3 16.4 64.58 15.47 65.14 14.89C65.72 14.29 66.61 13.99 67.81 13.99C69.49 13.99 70.33 14.73 70.33 16.21C70.33 17.47 70.04 18.39 69.46 18.97C68.9 19.55 68.01 19.84 66.79 19.84C65.13 19.84 64.3 19.12 64.3 17.68ZM76.7943 30.55C76.7343 30.91 76.7043 31.27 76.7043 31.63C76.7043 32.59 77.2443 33.07 78.3243 33.07C79.2043 33.07 79.9343 32.76 80.5143 32.14L82.1943 22.57H87.2943L84.6543 37.48C84.2143 40.02 83.2043 42.03 81.6243 43.51C80.0643 44.99 78.2743 45.73 76.2543 45.73C74.2343 45.73 72.7743 45.36 71.8743 44.62C70.9943 43.88 70.5543 42.91 70.5543 41.71C70.5543 40.01 71.6043 38.5 73.7043 37.18C72.5643 36.9 71.8443 36.33 71.5443 35.47C71.3643 34.99 71.2743 34.45 71.2743 33.85C71.2743 33.25 71.3243 32.64 71.4243 32.02L73.1043 22.57H78.2043L76.7943 30.55ZM76.9443 41.44C78.2443 41.44 79.0943 40.26 79.4943 37.9L79.7943 36.16C77.0143 37.46 75.6243 38.77 75.6243 40.09C75.6243 40.49 75.7343 40.81 75.9543 41.05C76.1943 41.31 76.5243 41.44 76.9443 41.44ZM102.244 32.38C102.244 32.9 102.504 33.16 103.024 33.16C103.564 33.16 104.014 33.06 104.374 32.86L104.224 36.25C103.264 37.03 102.184 37.42 100.984 37.42C98.7837 37.42 97.5637 36.62 97.3237 35.02C96.3237 36.62 94.8537 37.42 92.9137 37.42C89.6337 37.42 87.9937 36.01 87.9937 33.19C87.9937 32.71 88.0437 32.18 88.1437 31.6L88.7737 28.09C89.0937 26.29 89.8237 24.86 90.9637 23.8C92.1237 22.72 93.6237 22.18 95.4637 22.18C97.3237 22.18 98.5837 22.61 99.2437 23.47L99.3937 22.57H103.954L102.274 32.02C102.254 32.14 102.244 32.26 102.244 32.38ZM93.3637 30.94C93.3237 31.12 93.3037 31.37 93.3037 31.69C93.3037 32.01 93.4537 32.33 93.7537 32.65C94.0537 32.95 94.5537 33.1 95.2537 33.1C95.9737 33.1 96.5937 32.82 97.1137 32.26L98.0137 27.22C97.7937 26.72 97.2737 26.47 96.4537 26.47C94.9137 26.47 94.0137 27.21 93.7537 28.69L93.3637 30.94ZM121.221 25.69C121.221 26.35 121.021 26.96 120.621 27.52H115.701C115.861 27.4 115.941 27.2 115.941 26.92C115.941 26.64 115.781 26.42 115.461 26.26C115.141 26.08 114.731 25.99 114.231 25.99C112.731 25.99 111.981 26.45 111.981 27.37C111.981 27.73 112.261 27.99 112.821 28.15C113.381 28.31 114.061 28.44 114.861 28.54C115.661 28.64 116.461 28.79 117.261 28.99C118.061 29.17 118.741 29.54 119.301 30.1C119.861 30.66 120.141 31.41 120.141 32.35C120.141 34.01 119.471 35.27 118.131 36.13C116.811 36.99 114.881 37.42 112.341 37.42C109.801 37.42 108.021 37.01 107.001 36.19C106.201 35.55 105.801 34.67 105.801 33.55C105.801 33.23 105.831 32.9 105.891 32.56L110.901 32.5C110.861 32.78 111.021 33.03 111.381 33.25C111.761 33.45 112.311 33.55 113.031 33.55C113.751 33.55 114.271 33.48 114.591 33.34C114.911 33.18 115.071 32.89 115.071 32.47C115.071 32.19 114.791 32 114.231 31.9C113.671 31.78 112.981 31.68 112.161 31.6C111.361 31.52 110.551 31.39 109.731 31.21C108.931 31.03 108.251 30.65 107.691 30.07C107.131 29.49 106.851 28.73 106.851 27.79C106.851 25.97 107.551 24.57 108.951 23.59C110.371 22.61 112.411 22.12 115.071 22.12C119.171 22.12 121.221 23.31 121.221 25.69Z" fill="#A82FF9"/>
</svg>
