<svg width="7" height="7" viewBox="0 0 7 7" fill="none" xmlns="http://www.w3.org/2000/svg">
<path d="M6.77375 2.65384L4.67529 2.34887L3.73722 0.447106C3.7116 0.395037 3.66945 0.352886 3.61738 0.327265C3.48679 0.262799 3.32811 0.316521 3.26281 0.447106L2.32474 2.34887L0.226281 2.65384C0.168426 2.66211 0.115531 2.68938 0.0750326 2.7307C0.0260726 2.78103 -0.000906586 2.84873 2.32624e-05 2.91893C0.000953111 2.98914 0.0297159 3.0561 0.0799915 3.10511L1.59826 4.58535L1.23956 6.67555C1.23115 6.72417 1.23653 6.77418 1.25509 6.8199C1.27365 6.86562 1.30466 6.90523 1.34458 6.93422C1.38451 6.96322 1.43176 6.98045 1.48098 6.98396C1.5302 6.98747 1.57942 6.97712 1.62305 6.95408L3.50002 5.96725L5.37698 6.95408C5.42822 6.98135 5.48773 6.99045 5.54476 6.98053C5.68857 6.95573 5.78527 6.81936 5.76047 6.67555L5.40178 4.58535L6.92004 3.10511C6.96137 3.06461 6.98864 3.01171 6.99691 2.95386C7.01922 2.80922 6.91839 2.67533 6.77375 2.65384Z" fill="white"/>
</svg>
