<svg width="89" height="30" viewBox="0 0 89 30" fill="none" xmlns="http://www.w3.org/2000/svg">
<rect x="23" width="66" height="29.04" rx="3" fill="#251EBB"/>
<path d="M8.25 4L0 7.66667V13.1667C0 18.2542 3.52 23.0117 8.25 24.1667C12.98 23.0117 16.5 18.2542 16.5 13.1667V7.66667L8.25 4ZM6.41667 18.6667L2.75 15L4.0425 13.7075L6.41667 16.0725L12.4575 10.0317L13.75 11.3333L6.41667 18.6667Z" fill="#251EBB"/>
<rect x="16" y="12" width="8" height="2" fill="#251EBB"/>
<path d="M43.6055 8.85742C43.5983 8.89323 43.5947 8.93262 43.5947 8.97559C43.5947 9.01139 43.5911 9.0472 43.584 9.08301C43.5267 9.13314 43.4766 9.16536 43.4336 9.17969C43.3978 9.19401 43.3656 9.22982 43.3369 9.28711C43.3154 9.32292 43.3047 9.3623 43.3047 9.40527C43.3047 9.44824 43.2939 9.48763 43.2725 9.52344C43.251 9.57357 43.1973 9.62728 43.1113 9.68457C43.0326 9.7347 42.9753 9.76693 42.9395 9.78125C42.8965 9.80273 42.8499 9.82064 42.7998 9.83496C42.7568 9.84928 42.7139 9.86719 42.6709 9.88867C42.6064 9.91732 42.5527 9.9388 42.5098 9.95312C42.474 9.96745 42.4346 9.97819 42.3916 9.98535C42.3486 9.98535 42.3021 9.98893 42.252 9.99609C42.2018 9.99609 42.1374 10.0033 42.0586 10.0176C42.0371 10.0176 42.0228 10.0247 42.0156 10.0391C42.0085 10.0462 41.9941 10.057 41.9727 10.0713C41.9512 10.0856 41.9189 10.0999 41.876 10.1143C41.833 10.1214 41.7686 10.1286 41.6826 10.1357C41.6038 10.1429 41.543 10.1501 41.5 10.1572C41.4642 10.1572 41.4033 10.1644 41.3174 10.1787C41.2673 10.193 41.2207 10.2145 41.1777 10.2432C41.1348 10.2718 41.0882 10.2969 41.0381 10.3184C40.9378 10.3757 40.8626 10.4329 40.8125 10.4902C40.7695 10.5404 40.7337 10.5869 40.7051 10.6299C40.6621 10.7015 40.6406 10.7839 40.6406 10.877C40.6478 10.9629 40.6335 11.056 40.5977 11.1562C40.569 11.2279 40.5225 11.2995 40.458 11.3711C40.3936 11.4427 40.347 11.5179 40.3184 11.5967C40.3112 11.6325 40.3112 11.6719 40.3184 11.7148C40.3255 11.7578 40.3255 11.8044 40.3184 11.8545C40.304 11.9476 40.2718 12.0443 40.2217 12.1445C40.1715 12.2376 40.1286 12.3379 40.0928 12.4453C40.0785 12.5026 40.0713 12.5599 40.0713 12.6172C40.0785 12.6745 40.0749 12.7318 40.0605 12.7891C40.0391 12.9251 40.0068 13.0719 39.9639 13.2295C39.9209 13.3799 39.8815 13.5303 39.8457 13.6807C39.8314 13.7666 39.8242 13.8561 39.8242 13.9492C39.8314 14.0352 39.8242 14.1104 39.8027 14.1748C39.7884 14.2393 39.7598 14.3001 39.7168 14.3574C39.681 14.4147 39.6452 14.4756 39.6094 14.54C39.5807 14.5973 39.5592 14.6618 39.5449 14.7334C39.5378 14.7979 39.5557 14.8695 39.5986 14.9482C39.5771 15.2132 39.5413 15.4818 39.4912 15.7539C39.4411 16.026 39.3766 16.2874 39.2979 16.5381C39.2764 16.6169 39.2406 16.7207 39.1904 16.8496C39.1475 16.9785 39.1045 17.0609 39.0615 17.0967C39.0186 17.1325 38.9613 17.154 38.8896 17.1611C38.8252 17.1755 38.7572 17.1755 38.6855 17.1611C38.6211 17.1468 38.5602 17.1217 38.5029 17.0859C38.4456 17.0501 38.4062 17.0072 38.3848 16.957C38.3418 16.9857 38.3024 17.0251 38.2666 17.0752C38.238 17.1253 38.195 17.1647 38.1377 17.1934C38.0661 17.2292 37.9909 17.2435 37.9121 17.2363C37.8405 17.2292 37.7653 17.2435 37.6865 17.2793C37.6149 17.3079 37.5505 17.3402 37.4932 17.376C37.4359 17.4189 37.3786 17.4476 37.3213 17.4619C37.2855 17.4762 37.2497 17.4798 37.2139 17.4727C37.1852 17.4727 37.1566 17.4798 37.1279 17.4941C37.085 17.5156 37.0527 17.5514 37.0312 17.6016C37.0098 17.6517 36.9775 17.6911 36.9346 17.7197C36.8773 17.7054 36.8128 17.6947 36.7412 17.6875C36.6696 17.6875 36.6159 17.6696 36.5801 17.6338C36.5658 17.4476 36.5944 17.2829 36.666 17.1396C36.7376 17.0036 36.7913 16.8675 36.8271 16.7314C36.8558 16.6527 36.8737 16.5775 36.8809 16.5059C36.8952 16.4342 36.9095 16.3519 36.9238 16.2588C36.9525 16.1585 36.9883 16.0547 37.0312 15.9473C37.0742 15.8327 37.1064 15.7181 37.1279 15.6035C37.1494 15.5247 37.1602 15.446 37.1602 15.3672C37.1673 15.2812 37.1852 15.1989 37.2139 15.1201C37.2282 15.0628 37.264 15.002 37.3213 14.9375C37.3786 14.8659 37.4215 14.7907 37.4502 14.7119C37.4788 14.6331 37.5039 14.5436 37.5254 14.4434C37.5469 14.3431 37.5755 14.2464 37.6113 14.1533C37.6471 14.0316 37.6973 13.9277 37.7617 13.8418C37.8333 13.7559 37.8656 13.6592 37.8584 13.5518C37.8584 13.5016 37.8477 13.4622 37.8262 13.4336C37.8047 13.4049 37.7939 13.3727 37.7939 13.3369C37.7868 13.2796 37.7939 13.2008 37.8154 13.1006C37.8369 13.0003 37.8584 12.9108 37.8799 12.832C37.9157 12.6816 37.9515 12.5456 37.9873 12.4238C38.0231 12.3021 38.0589 12.1803 38.0947 12.0586C38.109 12.0013 38.1198 11.9476 38.127 11.8975C38.1413 11.8402 38.1556 11.79 38.1699 11.7471C38.1842 11.6898 38.2057 11.6432 38.2344 11.6074C38.2702 11.5645 38.2952 11.5215 38.3096 11.4785C38.3239 11.4284 38.3346 11.3675 38.3418 11.2959C38.3561 11.2243 38.374 11.1562 38.3955 11.0918C38.417 11.0417 38.4385 10.9951 38.46 10.9521C38.4886 10.9092 38.5065 10.8662 38.5137 10.8232C38.528 10.7301 38.5137 10.6442 38.4707 10.5654C38.4349 10.4867 38.417 10.4043 38.417 10.3184C38.3382 10.2611 38.2451 10.2288 38.1377 10.2217C38.0303 10.2074 37.9264 10.2038 37.8262 10.2109C37.7259 10.2181 37.6364 10.2253 37.5576 10.2324C37.4788 10.2324 37.3893 10.236 37.2891 10.2432C37.1243 10.2503 36.9811 10.2646 36.8594 10.2861C36.7376 10.3076 36.6195 10.3291 36.5049 10.3506C36.3975 10.3721 36.2865 10.39 36.1719 10.4043C36.0573 10.4115 35.9284 10.4115 35.7852 10.4043C35.7995 10.3255 35.8102 10.2432 35.8174 10.1572C35.8174 10.0641 35.8281 9.98893 35.8496 9.93164C35.8926 9.89583 35.9355 9.87793 35.9785 9.87793C36.0215 9.87077 36.068 9.86361 36.1182 9.85645C36.0895 9.81348 36.0752 9.77409 36.0752 9.73828C36.0824 9.70247 36.0895 9.67025 36.0967 9.6416C36.111 9.60579 36.1253 9.57357 36.1396 9.54492C36.1611 9.50911 36.1755 9.47689 36.1826 9.44824C36.1969 9.37663 36.2005 9.30501 36.1934 9.2334C36.1934 9.16178 36.2256 9.10449 36.29 9.06152C36.3903 9.05436 36.4798 9.05436 36.5586 9.06152C36.6374 9.06868 36.7126 9.07943 36.7842 9.09375C36.8558 9.10091 36.9274 9.10807 36.999 9.11523C37.0778 9.1224 37.1673 9.1224 37.2676 9.11523C37.4967 9.10091 37.6829 9.08301 37.8262 9.06152C37.9766 9.04004 38.1592 9.02572 38.374 9.01855C38.5244 9.01855 38.6676 9.02214 38.8037 9.0293C38.9469 9.0293 39.0794 9.03646 39.2012 9.05078C39.3301 9.07227 39.4232 9.08301 39.4805 9.08301C39.5449 9.08301 39.6022 9.08301 39.6523 9.08301C39.7025 9.07585 39.7562 9.06868 39.8135 9.06152C39.8708 9.05436 39.9567 9.05078 40.0713 9.05078C40.193 9.05078 40.3076 9.04362 40.415 9.0293C40.5296 9.00781 40.6478 9.00065 40.7695 9.00781C40.9056 9.00781 40.9987 9.01855 41.0488 9.04004C41.1061 9.05436 41.1527 9.06868 41.1885 9.08301C41.2243 9.09733 41.2637 9.11165 41.3066 9.12598C41.3496 9.13314 41.4284 9.12956 41.543 9.11523C41.6217 9.10091 41.6719 9.08659 41.6934 9.07227C41.7148 9.05078 41.765 9.03288 41.8438 9.01855C41.9154 9.01139 41.987 9.01139 42.0586 9.01855C42.1302 9.01855 42.2054 9.01497 42.2842 9.00781C42.499 8.98633 42.7139 8.95052 42.9287 8.90039C43.1507 8.8431 43.3763 8.82878 43.6055 8.85742ZM46.291 11.3926C46.3483 11.4069 46.4056 11.4141 46.4629 11.4141C46.5202 11.4141 46.5775 11.4212 46.6348 11.4355C46.6562 11.4355 46.6777 11.4427 46.6992 11.457C46.7207 11.4714 46.7422 11.4821 46.7637 11.4893C46.7852 11.4964 46.8066 11.4964 46.8281 11.4893C46.8496 11.4821 46.8711 11.4821 46.8926 11.4893C47.0573 11.5322 47.1898 11.6003 47.29 11.6934C47.3903 11.7793 47.4906 11.8867 47.5908 12.0156C47.6338 12.0872 47.6875 12.1732 47.752 12.2734C47.8164 12.3665 47.8701 12.474 47.9131 12.5957C47.9561 12.7103 47.9811 12.832 47.9883 12.9609C47.9954 13.0898 47.9704 13.2188 47.9131 13.3477C47.8988 13.3835 47.8773 13.43 47.8486 13.4873C47.82 13.5374 47.7913 13.5911 47.7627 13.6484C47.7197 13.7272 47.666 13.8096 47.6016 13.8955C47.5371 13.9814 47.4691 14.0423 47.3975 14.0781C47.3402 14.1139 47.29 14.1462 47.2471 14.1748C47.2113 14.2035 47.1647 14.2321 47.1074 14.2607C47.0072 14.2965 46.9069 14.3503 46.8066 14.4219C46.7135 14.4863 46.6169 14.54 46.5166 14.583C46.4808 14.5973 46.4414 14.6081 46.3984 14.6152C46.3626 14.6152 46.3268 14.6224 46.291 14.6367C46.2409 14.6654 46.2015 14.7048 46.1729 14.7549C46.1442 14.805 46.0905 14.8408 46.0117 14.8623C46.1908 14.9053 46.3555 15.0055 46.5059 15.1631C46.6562 15.3135 46.7708 15.471 46.8496 15.6357C46.8854 15.736 46.9355 15.8255 47 15.9043C47.0645 15.9831 47.0931 16.0726 47.0859 16.1729C47.1361 16.2158 47.1755 16.2731 47.2041 16.3447C47.2399 16.4092 47.2686 16.4808 47.29 16.5596C47.3115 16.6383 47.3294 16.7207 47.3438 16.8066C47.3652 16.8854 47.3903 16.957 47.4189 17.0215C47.4619 17.1146 47.5085 17.1898 47.5586 17.2471C47.6087 17.3115 47.6624 17.3688 47.7197 17.4189C47.777 17.4762 47.8343 17.5335 47.8916 17.5908C47.9489 17.6553 47.999 17.734 48.042 17.8271C48.0706 17.82 48.0921 17.8092 48.1064 17.7949C48.1279 17.7878 48.1566 17.7878 48.1924 17.7949C48.2998 17.8737 48.418 17.9346 48.5469 17.9775C48.6829 18.0205 48.8477 18.0563 49.041 18.085C49.2057 18.1136 49.3597 18.1208 49.5029 18.1064C49.6533 18.0993 49.8073 18.0814 49.9648 18.0527C50.015 18.0456 50.0758 18.0241 50.1475 17.9883C50.2262 17.9596 50.3014 17.9346 50.373 17.9131C50.4518 17.8916 50.5199 17.8809 50.5771 17.8809C50.6344 17.888 50.6631 17.9274 50.6631 17.999C50.6631 18.0492 50.6309 18.11 50.5664 18.1816C50.502 18.2533 50.4447 18.307 50.3945 18.3428C50.2728 18.4287 50.1331 18.4967 49.9756 18.5469C49.818 18.597 49.6533 18.6364 49.4814 18.665C49.3096 18.7008 49.1341 18.7259 48.9551 18.7402C48.776 18.7546 48.6077 18.7653 48.4502 18.7725C48.3499 18.7725 48.2568 18.7546 48.1709 18.7188C48.0921 18.6901 48.0205 18.6686 47.9561 18.6543C47.8128 18.6328 47.6839 18.6077 47.5693 18.5791C47.4619 18.5505 47.3581 18.5075 47.2578 18.4502C47.1719 18.4001 47.0967 18.3285 47.0322 18.2354C46.9678 18.1494 46.8783 18.0957 46.7637 18.0742C46.5775 17.9095 46.3913 17.7412 46.2051 17.5693C46.0189 17.4046 45.8721 17.1969 45.7646 16.9463C45.7288 16.8818 45.6895 16.821 45.6465 16.7637C45.6035 16.6992 45.5713 16.6312 45.5498 16.5596C45.5283 16.5094 45.514 16.4557 45.5068 16.3984C45.5068 16.3411 45.4997 16.2767 45.4854 16.2051C45.471 16.1263 45.4495 16.0439 45.4209 15.958C45.3923 15.8649 45.3636 15.779 45.335 15.7002C45.3278 15.6787 45.3171 15.6572 45.3027 15.6357C45.2884 15.6143 45.2777 15.5928 45.2705 15.5713C45.2562 15.5283 45.2419 15.4782 45.2275 15.4209C45.2132 15.3564 45.1882 15.3063 45.1523 15.2705C45.1165 15.2419 45.0557 15.2096 44.9697 15.1738C44.891 15.138 44.8229 15.113 44.7656 15.0986C44.6868 15.0843 44.6081 15.0879 44.5293 15.1094C44.4577 15.1309 44.3896 15.1452 44.3252 15.1523C44.2321 15.1667 44.1426 15.1702 44.0566 15.1631C43.9707 15.1488 43.8991 15.1523 43.8418 15.1738C43.7415 15.2096 43.6592 15.3027 43.5947 15.4531C43.5303 15.6035 43.4909 15.7611 43.4766 15.9258C43.4479 16.0905 43.4049 16.2516 43.3477 16.4092C43.2904 16.5596 43.2438 16.7064 43.208 16.8496C43.1794 16.9427 43.1328 17.0179 43.0684 17.0752C43.0039 17.1396 42.9144 17.1647 42.7998 17.1504C42.7425 17.1432 42.696 17.1361 42.6602 17.1289C42.6315 17.1289 42.5921 17.1146 42.542 17.0859C42.5062 17.1003 42.4417 17.1325 42.3486 17.1826C42.2627 17.2399 42.2018 17.2793 42.166 17.3008C41.9297 17.3724 41.7936 17.3545 41.7578 17.2471C41.7292 17.1396 41.7435 16.9678 41.8008 16.7314C41.8366 16.5811 41.8903 16.4342 41.9619 16.291C42.0407 16.1478 42.0944 16.026 42.123 15.9258C42.1374 15.8613 42.141 15.804 42.1338 15.7539C42.1338 15.6966 42.1302 15.6429 42.123 15.5928C42.1159 15.5426 42.1123 15.4997 42.1123 15.4639C42.1123 15.4209 42.1266 15.3815 42.1553 15.3457C42.1624 15.2669 42.1839 15.2061 42.2197 15.1631C42.2555 15.113 42.2806 15.0485 42.2949 14.9697C42.3092 14.8981 42.3271 14.8229 42.3486 14.7441C42.3701 14.6654 42.3844 14.5902 42.3916 14.5186C42.3988 14.4326 42.4023 14.3538 42.4023 14.2822C42.4095 14.2035 42.4346 14.1139 42.4775 14.0137C42.5133 13.9206 42.5492 13.8275 42.585 13.7344C42.6279 13.6341 42.6566 13.5374 42.6709 13.4443C42.6852 13.3727 42.6924 13.3011 42.6924 13.2295C42.6995 13.1507 42.7174 13.0755 42.7461 13.0039C42.7604 12.9466 42.7891 12.9001 42.832 12.8643C42.8822 12.8285 42.9144 12.7819 42.9287 12.7246C42.9359 12.6816 42.9323 12.6423 42.918 12.6064C42.9036 12.5706 42.9036 12.5348 42.918 12.499C42.9609 12.3558 42.9753 12.2448 42.9609 12.166C42.9466 12.0801 42.9215 12.012 42.8857 11.9619C42.8571 11.9046 42.8285 11.8509 42.7998 11.8008C42.7783 11.7507 42.7783 11.6826 42.7998 11.5967C42.8356 11.5895 42.8678 11.5609 42.8965 11.5107C42.9251 11.4535 42.9645 11.4176 43.0146 11.4033C43.0433 11.3962 43.097 11.3926 43.1758 11.3926C43.2546 11.3854 43.3405 11.3818 43.4336 11.3818C43.5267 11.3747 43.6162 11.3747 43.7021 11.3818C43.7881 11.3818 43.8561 11.3818 43.9062 11.3818C43.9635 11.389 44.0352 11.389 44.1211 11.3818C44.207 11.3675 44.2965 11.3604 44.3896 11.3604C44.4827 11.3532 44.5687 11.3496 44.6475 11.3496C44.7334 11.3496 44.805 11.3639 44.8623 11.3926H46.291ZM44.6582 14.1318C44.7155 14.1318 44.7692 14.1175 44.8193 14.0889C44.8766 14.0602 44.9303 14.0531 44.9805 14.0674C45.0521 14.0817 45.1237 14.0924 45.1953 14.0996C45.2669 14.1068 45.3457 14.1175 45.4316 14.1318C45.4674 14.139 45.5033 14.1354 45.5391 14.1211C45.5749 14.1068 45.6214 14.1032 45.6787 14.1104C45.7933 14.0244 45.8936 13.96 45.9795 13.917C46.0726 13.874 46.1585 13.7881 46.2373 13.6592C46.2731 13.5947 46.3125 13.5339 46.3555 13.4766C46.3984 13.4121 46.4271 13.3584 46.4414 13.3154C46.4915 13.1507 46.4844 13.0111 46.4199 12.8965C46.3555 12.7747 46.2946 12.6673 46.2373 12.5742C46.1657 12.4668 46.0977 12.3916 46.0332 12.3486C45.9688 12.2985 45.8613 12.2806 45.7109 12.2949C45.5892 12.3021 45.4639 12.3021 45.335 12.2949C45.2061 12.2806 45.0807 12.277 44.959 12.2842C44.8444 12.2913 44.7406 12.3128 44.6475 12.3486C44.5544 12.3844 44.4863 12.4489 44.4434 12.542C44.4076 12.6494 44.3646 12.7676 44.3145 12.8965C44.2643 13.0254 44.2178 13.1579 44.1748 13.2939C44.1318 13.4229 44.096 13.5553 44.0674 13.6914C44.0387 13.8275 44.0244 13.96 44.0244 14.0889C44.1318 14.0745 44.2393 14.0817 44.3467 14.1104C44.4541 14.1318 44.5579 14.139 44.6582 14.1318ZM53.542 10.9629C53.5993 10.9772 53.6279 11.0202 53.6279 11.0918C53.6279 11.1562 53.6423 11.2064 53.6709 11.2422C53.7425 11.1992 53.832 11.1562 53.9395 11.1133C54.0469 11.0632 54.1686 11.0488 54.3047 11.0703C54.3405 11.1562 54.3584 11.2386 54.3584 11.3174C54.3584 11.389 54.3512 11.4606 54.3369 11.5322C54.3226 11.6038 54.3047 11.679 54.2832 11.7578C54.2617 11.8294 54.2438 11.9082 54.2295 11.9941C54.2152 12.1374 54.1973 12.2484 54.1758 12.3271C54.1543 12.4059 54.1292 12.499 54.1006 12.6064C54.0648 12.721 54.0361 12.8356 54.0146 12.9502C54.0003 13.0576 53.9824 13.1615 53.9609 13.2617C53.9395 13.362 53.9108 13.4551 53.875 13.541C53.8392 13.6198 53.7855 13.6914 53.7139 13.7559C53.721 14.0495 53.6852 14.3467 53.6064 14.6475C53.5348 14.9482 53.4489 15.2168 53.3486 15.4531C53.32 15.5176 53.2949 15.5856 53.2734 15.6572C53.2591 15.7288 53.2412 15.7897 53.2197 15.8398C53.1982 15.8828 53.1696 15.9258 53.1338 15.9688C53.1051 16.0046 53.0729 16.0439 53.0371 16.0869C52.9368 16.2731 52.8294 16.4486 52.7148 16.6133C52.6074 16.7708 52.4535 16.889 52.2529 16.9678C52.1956 16.9893 52.1419 17.0072 52.0918 17.0215C52.0488 17.0358 52.0023 17.0573 51.9521 17.0859C51.8877 17.1217 51.8018 17.1719 51.6943 17.2363C51.5941 17.3008 51.4974 17.3366 51.4043 17.3438C51.3542 17.3438 51.2969 17.333 51.2324 17.3115C51.168 17.29 51.1071 17.2793 51.0498 17.2793C50.9854 17.2793 50.9137 17.2829 50.835 17.29C50.7633 17.3044 50.6917 17.3115 50.6201 17.3115C50.5557 17.3115 50.4948 17.3044 50.4375 17.29C50.3802 17.2757 50.3337 17.2399 50.2979 17.1826C50.2119 17.1683 50.1331 17.1862 50.0615 17.2363C49.9899 17.2865 49.9147 17.3115 49.8359 17.3115C49.75 17.3044 49.6748 17.2721 49.6104 17.2148C49.5531 17.1576 49.485 17.111 49.4062 17.0752C49.3561 17.1038 49.3096 17.1146 49.2666 17.1074C49.2236 17.1074 49.1771 17.1146 49.127 17.1289C49.084 17.1003 49.041 17.0788 48.998 17.0645C48.9551 17.0573 48.9121 17.0394 48.8691 17.0107C48.7904 16.9463 48.7295 16.8639 48.6865 16.7637C48.6507 16.6562 48.6185 16.5452 48.5898 16.4307C48.5612 16.3089 48.529 16.1943 48.4932 16.0869C48.4645 15.9723 48.418 15.8757 48.3535 15.7969C48.375 15.6465 48.4072 15.5068 48.4502 15.3779C48.4932 15.249 48.5397 15.1237 48.5898 15.002C48.6113 14.916 48.6221 14.8229 48.6221 14.7227C48.6292 14.6152 48.6328 14.5114 48.6328 14.4111C48.64 14.3037 48.6507 14.1999 48.665 14.0996C48.6794 13.9922 48.7044 13.8955 48.7402 13.8096C48.7546 13.7738 48.7868 13.738 48.8369 13.7021C48.887 13.6592 48.9229 13.6198 48.9443 13.584C48.9658 13.5267 48.9837 13.4622 48.998 13.3906C49.0124 13.3118 49.0267 13.2438 49.041 13.1865C49.0553 13.0934 49.0697 12.9788 49.084 12.8428C49.0983 12.7067 49.109 12.5885 49.1162 12.4883C49.1305 12.3021 49.152 12.1266 49.1807 11.9619C49.2165 11.79 49.2988 11.6683 49.4277 11.5967C49.5352 11.568 49.6318 11.5286 49.7178 11.4785C49.8109 11.4284 49.9326 11.4176 50.083 11.4463C50.1188 11.4535 50.1618 11.4678 50.2119 11.4893C50.2692 11.5036 50.3193 11.5179 50.3623 11.5322C50.4626 11.5609 50.5413 11.5859 50.5986 11.6074C50.6631 11.6217 50.7025 11.6898 50.7168 11.8115C50.724 11.8473 50.7204 11.9082 50.7061 11.9941C50.6917 12.0729 50.6738 12.141 50.6523 12.1982C50.638 12.234 50.6165 12.2663 50.5879 12.2949C50.5592 12.3236 50.5378 12.3558 50.5234 12.3916C50.5091 12.4131 50.502 12.4382 50.502 12.4668C50.5091 12.4954 50.5055 12.5205 50.4912 12.542C50.4769 12.5778 50.4482 12.6351 50.4053 12.7139C50.3623 12.7926 50.3337 12.8499 50.3193 12.8857C50.2764 12.9645 50.2406 13.0469 50.2119 13.1328C50.1833 13.2188 50.151 13.3118 50.1152 13.4121C50.0723 13.5339 50.0221 13.6699 49.9648 13.8203C49.9076 13.9707 49.861 14.1211 49.8252 14.2715C49.7965 14.4219 49.7822 14.5651 49.7822 14.7012C49.7822 14.8301 49.7715 14.9626 49.75 15.0986C49.7357 15.1559 49.7178 15.2096 49.6963 15.2598C49.6748 15.3099 49.6712 15.3743 49.6855 15.4531C49.6068 15.5319 49.5817 15.6107 49.6104 15.6895C49.639 15.7682 49.682 15.8506 49.7393 15.9365C49.7822 15.9795 49.8288 16.0296 49.8789 16.0869C49.929 16.1442 49.9863 16.1979 50.0508 16.248C50.1152 16.2982 50.1904 16.3376 50.2764 16.3662C50.3623 16.3877 50.459 16.3913 50.5664 16.377C50.638 16.3626 50.7132 16.334 50.792 16.291C50.8708 16.248 50.9424 16.2087 51.0068 16.1729C51.1501 16.1156 51.2754 16.0439 51.3828 15.958C51.4902 15.8649 51.569 15.7467 51.6191 15.6035C51.6478 15.5319 51.6621 15.4639 51.6621 15.3994C51.6693 15.3278 51.6693 15.2598 51.6621 15.1953C51.6621 15.1237 51.6621 15.0521 51.6621 14.9805C51.6693 14.9017 51.6908 14.8193 51.7266 14.7334C51.7624 14.6546 51.8161 14.583 51.8877 14.5186C51.9593 14.4541 52.0059 14.3789 52.0273 14.293C52.0417 14.25 52.0417 14.2106 52.0273 14.1748C52.0202 14.1318 52.0166 14.0889 52.0166 14.0459C52.0166 13.9456 52.0309 13.8454 52.0596 13.7451C52.0882 13.6449 52.1204 13.5446 52.1562 13.4443C52.1992 13.3369 52.235 13.2331 52.2637 13.1328C52.2995 13.0326 52.321 12.9323 52.3281 12.832C52.3353 12.7389 52.3424 12.6602 52.3496 12.5957C52.3568 12.5312 52.3639 12.474 52.3711 12.4238C52.3854 12.3665 52.3997 12.3128 52.4141 12.2627C52.4284 12.2054 52.4535 12.141 52.4893 12.0693C52.5251 12.0049 52.5573 11.9368 52.5859 11.8652C52.6146 11.7865 52.6361 11.6898 52.6504 11.5752C52.6647 11.5394 52.6719 11.4964 52.6719 11.4463C52.6719 11.389 52.6826 11.3389 52.7041 11.2959C52.7327 11.2314 52.7793 11.1813 52.8438 11.1455C52.9082 11.1025 52.9798 11.0703 53.0586 11.0488C53.1374 11.0273 53.2197 11.013 53.3057 11.0059C53.3916 10.9915 53.4704 10.9772 53.542 10.9629ZM58.043 12.5098C58.1074 12.5384 58.1504 12.5778 58.1719 12.6279C58.1934 12.6709 58.2077 12.7174 58.2148 12.7676C58.2292 12.8177 58.2435 12.8678 58.2578 12.918C58.2721 12.9681 58.3079 13.0075 58.3652 13.0361C58.3796 13.0505 58.4046 13.0684 58.4404 13.0898C58.4762 13.1113 58.5156 13.1364 58.5586 13.165C58.6016 13.1865 58.641 13.208 58.6768 13.2295C58.7197 13.2438 58.752 13.2474 58.7734 13.2402C58.8164 13.2331 58.8558 13.2008 58.8916 13.1436C58.9274 13.0863 58.9561 13.0218 58.9775 12.9502C59.0062 12.8714 59.0241 12.7926 59.0312 12.7139C59.0384 12.6351 59.0348 12.5706 59.0205 12.5205C59.0062 12.499 58.9668 12.4704 58.9023 12.4346C58.8379 12.3916 58.7878 12.363 58.752 12.3486C58.6517 12.3128 58.5586 12.2699 58.4727 12.2197C58.3867 12.1696 58.2936 12.1266 58.1934 12.0908C58.1504 12.0765 58.1038 12.055 58.0537 12.0264C58.0107 11.9906 57.9678 11.9727 57.9248 11.9727C57.8962 11.9655 57.8639 11.9727 57.8281 11.9941C57.7923 12.0085 57.7565 12.0156 57.7207 12.0156C57.6777 12.0228 57.624 12.0264 57.5596 12.0264C57.5023 12.0192 57.4414 12.0192 57.377 12.0264C57.3125 12.0335 57.2445 12.0443 57.1729 12.0586C57.1084 12.0729 57.0511 12.098 57.001 12.1338C56.9079 12.2126 56.8398 12.3021 56.7969 12.4023C56.7611 12.4954 56.7109 12.6029 56.6465 12.7246C56.6322 12.7533 56.6071 12.7855 56.5713 12.8213C56.5355 12.8571 56.5176 12.9001 56.5176 12.9502C56.5176 12.9788 56.5283 13.0039 56.5498 13.0254C56.5785 13.0469 56.5999 13.0791 56.6143 13.1221C56.6357 13.165 56.6501 13.2116 56.6572 13.2617C56.6644 13.3047 56.6751 13.3441 56.6895 13.3799C56.7109 13.4014 56.7324 13.4229 56.7539 13.4443C56.7754 13.4587 56.7933 13.473 56.8076 13.4873C56.8291 13.5088 56.8434 13.5339 56.8506 13.5625C56.8649 13.5911 56.8828 13.6126 56.9043 13.627C56.9401 13.6484 57.001 13.6878 57.0869 13.7451C57.18 13.7952 57.266 13.8275 57.3447 13.8418C57.4808 13.8704 57.6025 13.917 57.71 13.9814C57.8245 14.0387 57.9355 14.0889 58.043 14.1318C58.1217 14.1676 58.1826 14.2106 58.2256 14.2607C58.2757 14.3037 58.3187 14.3503 58.3545 14.4004C58.3903 14.4434 58.4261 14.4863 58.4619 14.5293C58.5049 14.5723 58.5622 14.6045 58.6338 14.626C58.6696 14.6403 58.7018 14.6475 58.7305 14.6475C58.7591 14.6475 58.7913 14.6546 58.8271 14.6689C58.863 14.6833 58.8988 14.7083 58.9346 14.7441C58.9704 14.7728 59.0098 14.805 59.0527 14.8408C59.0814 14.8695 59.1064 14.9017 59.1279 14.9375C59.1566 14.9661 59.1781 14.9948 59.1924 15.0234C59.2139 15.0664 59.2282 15.1237 59.2354 15.1953C59.2425 15.2598 59.2461 15.3135 59.2461 15.3564C59.2533 15.5283 59.2497 15.6644 59.2354 15.7646C59.221 15.8649 59.196 15.958 59.1602 16.0439C59.1243 16.1299 59.0778 16.2158 59.0205 16.3018C58.9704 16.3877 58.9131 16.4987 58.8486 16.6348C58.7555 16.6777 58.6589 16.7279 58.5586 16.7852C58.4583 16.8353 58.3724 16.889 58.3008 16.9463C58.265 16.9749 58.2148 17.0107 58.1504 17.0537C58.0859 17.0967 58.0286 17.1253 57.9785 17.1396C57.8783 17.1755 57.7565 17.1969 57.6133 17.2041C57.4701 17.2113 57.3376 17.2363 57.2158 17.2793C57.1442 17.3008 57.0583 17.3044 56.958 17.29C56.8649 17.2757 56.779 17.2721 56.7002 17.2793C56.6071 17.2936 56.5283 17.3079 56.4639 17.3223C56.3994 17.3438 56.3242 17.3473 56.2383 17.333C56.138 17.3187 56.027 17.2793 55.9053 17.2148C55.7835 17.1576 55.6761 17.1003 55.583 17.043C55.5472 17.0286 55.5186 17.0107 55.4971 16.9893C55.4756 16.9606 55.4469 16.9355 55.4111 16.9141C55.361 16.8854 55.3109 16.8675 55.2607 16.8604C55.2106 16.846 55.1641 16.821 55.1211 16.7852C55.0781 16.7493 55.0387 16.7171 55.0029 16.6885C54.9671 16.6527 54.9313 16.6169 54.8955 16.5811C54.8096 16.5238 54.7129 16.4665 54.6055 16.4092C54.5052 16.3447 54.4336 16.2803 54.3906 16.2158C54.362 16.18 54.3441 16.1335 54.3369 16.0762C54.3369 16.0117 54.3226 15.9508 54.2939 15.8936C54.2796 15.8434 54.2546 15.8005 54.2188 15.7646C54.1829 15.7288 54.1615 15.693 54.1543 15.6572C54.1328 15.557 54.1436 15.446 54.1865 15.3242C54.2295 15.2025 54.2689 15.0986 54.3047 15.0127C54.4408 14.9912 54.5518 15.0055 54.6377 15.0557C54.7308 15.0986 54.8096 15.1595 54.874 15.2383C54.9385 15.3171 54.9958 15.4066 55.0459 15.5068C55.096 15.5999 55.1462 15.6823 55.1963 15.7539C55.2536 15.847 55.3431 15.9186 55.4648 15.9688C55.5866 16.0189 55.7048 16.069 55.8193 16.1191C55.8623 16.1406 55.9017 16.1621 55.9375 16.1836C55.9805 16.1979 56.0199 16.2122 56.0557 16.2266C56.1488 16.2624 56.2275 16.3018 56.292 16.3447C56.3636 16.3805 56.4388 16.402 56.5176 16.4092C56.5892 16.4092 56.6572 16.4056 56.7217 16.3984C56.7933 16.3841 56.8721 16.3698 56.958 16.3555C57.0439 16.3268 57.1299 16.3161 57.2158 16.3232C57.3018 16.3232 57.3841 16.3053 57.4629 16.2695C57.556 16.2337 57.6097 16.1908 57.624 16.1406C57.6383 16.0905 57.6706 16.0225 57.7207 15.9365C57.6921 15.8005 57.6598 15.7038 57.624 15.6465C57.5882 15.5892 57.5238 15.5212 57.4307 15.4424C57.3949 15.4137 57.3519 15.3923 57.3018 15.3779C57.2588 15.3564 57.2194 15.335 57.1836 15.3135C57.0332 15.2204 56.8685 15.1273 56.6895 15.0342C56.5104 14.9411 56.3135 14.8766 56.0986 14.8408C55.9626 14.7979 55.8193 14.7406 55.6689 14.6689C55.5257 14.5902 55.4219 14.4863 55.3574 14.3574C55.3359 14.3288 55.3216 14.3001 55.3145 14.2715C55.3145 14.2428 55.3073 14.2106 55.293 14.1748C55.2357 14.0316 55.1533 13.8955 55.0459 13.7666C54.9456 13.6377 54.8776 13.4909 54.8418 13.3262C54.8275 13.276 54.8239 13.2259 54.8311 13.1758C54.8382 13.1185 54.8454 13.0648 54.8525 13.0146C54.8669 12.9645 54.8776 12.9108 54.8848 12.8535C54.8919 12.7962 54.8883 12.7354 54.874 12.6709C54.9027 12.6423 54.9206 12.6136 54.9277 12.585C54.9349 12.5563 54.9456 12.5277 54.96 12.499C54.9886 12.4561 55.0065 12.4131 55.0137 12.3701C55.028 12.32 55.0602 12.2734 55.1104 12.2305C55.1605 12.1875 55.1999 12.1445 55.2285 12.1016C55.2643 12.0514 55.3001 12.012 55.3359 11.9834C55.3574 11.9691 55.3825 11.9619 55.4111 11.9619C55.4398 11.9548 55.4648 11.944 55.4863 11.9297C55.5221 11.9082 55.5544 11.8831 55.583 11.8545C55.6117 11.8187 55.6439 11.7865 55.6797 11.7578C55.8229 11.6504 55.984 11.5609 56.1631 11.4893C56.3421 11.4105 56.5247 11.3496 56.7109 11.3066C56.7396 11.2708 56.7861 11.2422 56.8506 11.2207C56.915 11.1921 56.9831 11.1742 57.0547 11.167C57.1335 11.1527 57.2087 11.1419 57.2803 11.1348C57.3519 11.1276 57.4128 11.1204 57.4629 11.1133C57.6849 11.1419 57.8604 11.1777 57.9893 11.2207C58.1253 11.2637 58.2507 11.3102 58.3652 11.3604C58.487 11.4033 58.6159 11.4463 58.752 11.4893C58.888 11.5322 59.0635 11.568 59.2783 11.5967C59.3643 11.6611 59.4538 11.7399 59.5469 11.833C59.6471 11.9189 59.7331 12.0156 59.8047 12.123C59.8763 12.2305 59.9264 12.3451 59.9551 12.4668C59.9909 12.5814 59.9837 12.6995 59.9336 12.8213C59.8978 12.8929 59.8691 12.9753 59.8477 13.0684C59.8262 13.1543 59.7939 13.2331 59.751 13.3047C59.7152 13.362 59.6758 13.43 59.6328 13.5088C59.597 13.5876 59.554 13.652 59.5039 13.7021C59.4036 13.8024 59.2747 13.874 59.1172 13.917C58.9596 13.96 58.8057 13.9743 58.6553 13.96C58.6123 13.8883 58.5443 13.8275 58.4512 13.7773C58.3652 13.7272 58.2757 13.6771 58.1826 13.627C58.0967 13.5697 58.0143 13.5088 57.9355 13.4443C57.8639 13.3727 57.8174 13.2868 57.7959 13.1865C57.7744 13.0648 57.778 12.9359 57.8066 12.7998C57.8424 12.6637 57.9212 12.5671 58.043 12.5098ZM66.0137 11.3818C65.9993 11.4964 65.9564 11.568 65.8848 11.5967C65.8203 11.6253 65.7523 11.6576 65.6807 11.6934C65.6305 11.7292 65.5947 11.7757 65.5732 11.833C65.5518 11.8903 65.5231 11.9333 65.4873 11.9619C65.4515 11.9977 65.3978 12.0264 65.3262 12.0479C65.2617 12.0622 65.208 12.0765 65.165 12.0908C65.0433 12.1266 64.9144 12.1445 64.7783 12.1445C64.6494 12.1445 64.5348 12.1517 64.4346 12.166C64.3773 12.1803 64.32 12.2126 64.2627 12.2627C64.2054 12.3128 64.1445 12.3522 64.0801 12.3809C64.0156 12.4023 63.9655 12.4202 63.9297 12.4346C63.8939 12.4489 63.8617 12.4668 63.833 12.4883C63.8115 12.5098 63.79 12.5384 63.7686 12.5742C63.7471 12.6029 63.7184 12.6458 63.6826 12.7031C63.6468 12.7676 63.6289 12.8607 63.6289 12.9824C63.6289 13.1042 63.6182 13.2044 63.5967 13.2832C63.5752 13.3477 63.5501 13.4229 63.5215 13.5088C63.5 13.5947 63.4749 13.6878 63.4463 13.7881C63.432 13.8454 63.4248 13.9098 63.4248 13.9814C63.4248 14.0459 63.4176 14.1068 63.4033 14.1641C63.3818 14.2357 63.346 14.2894 63.2959 14.3252C63.2529 14.361 63.2207 14.4255 63.1992 14.5186C63.1849 14.5615 63.1777 14.6081 63.1777 14.6582C63.1849 14.7012 63.1849 14.7441 63.1777 14.7871C63.1491 14.959 63.1133 15.1452 63.0703 15.3457C63.0345 15.5462 62.9987 15.7432 62.9629 15.9365C62.9271 16.1012 62.8877 16.2588 62.8447 16.4092C62.8089 16.5596 62.7624 16.6992 62.7051 16.8281C62.6478 16.821 62.5905 16.8389 62.5332 16.8818C62.4759 16.9176 62.4186 16.9427 62.3613 16.957C62.3112 16.9714 62.2611 16.9785 62.2109 16.9785C62.168 16.9785 62.125 16.9964 62.082 17.0322C62.0319 17.0824 61.9674 17.1468 61.8887 17.2256C61.8099 17.3115 61.7419 17.3617 61.6846 17.376C61.6344 17.3903 61.5879 17.3903 61.5449 17.376C61.5091 17.3617 61.4733 17.3509 61.4375 17.3438C61.3802 17.3438 61.3229 17.3438 61.2656 17.3438C61.2155 17.3509 61.1546 17.3509 61.083 17.3438C61.0544 17.2721 61.0436 17.1934 61.0508 17.1074C61.0579 17.0286 61.0723 16.9499 61.0938 16.8711C61.1224 16.7923 61.151 16.7171 61.1797 16.6455C61.2155 16.5667 61.2406 16.4915 61.2549 16.4199C61.2692 16.3698 61.2764 16.3161 61.2764 16.2588C61.2835 16.2015 61.2979 16.1442 61.3193 16.0869C61.3408 16.0225 61.373 15.9652 61.416 15.915C61.4661 15.8577 61.502 15.7933 61.5234 15.7217C61.5521 15.6429 61.5879 15.5498 61.6309 15.4424C61.6738 15.335 61.6989 15.2454 61.7061 15.1738C61.7204 15.0879 61.7168 15.0055 61.6953 14.9268C61.681 14.848 61.6882 14.762 61.7168 14.6689C61.7311 14.626 61.749 14.5902 61.7705 14.5615C61.7992 14.5257 61.8206 14.4792 61.835 14.4219C61.8564 14.3431 61.8708 14.2607 61.8779 14.1748C61.8851 14.0817 61.8958 13.9922 61.9102 13.9062C61.9245 13.8275 61.9388 13.7523 61.9531 13.6807C61.9674 13.6019 61.9854 13.5231 62.0068 13.4443C62.0283 13.3512 62.0498 13.2653 62.0713 13.1865C62.0999 13.1006 62.1214 13.0182 62.1357 12.9395C62.1572 12.8607 62.168 12.7855 62.168 12.7139C62.168 12.6351 62.1465 12.5527 62.1035 12.4668C62.0605 12.388 62.0033 12.3307 61.9316 12.2949C61.86 12.2591 61.7812 12.2376 61.6953 12.2305C61.6094 12.2233 61.5163 12.2233 61.416 12.2305C61.3158 12.2376 61.2191 12.2412 61.126 12.2412C61.0902 12.2197 61.0579 12.1803 61.0293 12.123C61.0007 12.0658 60.9613 12.0264 60.9111 12.0049C60.8252 11.9762 60.7285 11.9619 60.6211 11.9619C60.5208 11.9619 60.4456 11.9225 60.3955 11.8438C60.3525 11.7363 60.349 11.6325 60.3848 11.5322C60.4277 11.432 60.4779 11.3604 60.5352 11.3174C60.8001 11.2744 61.0758 11.278 61.3623 11.3281C61.6488 11.3711 61.9352 11.389 62.2217 11.3818C62.3363 11.3747 62.4508 11.3532 62.5654 11.3174C62.68 11.2816 62.7982 11.2816 62.9199 11.3174C62.9557 11.3317 63.0166 11.3568 63.1025 11.3926C63.1956 11.4212 63.2601 11.4427 63.2959 11.457C63.3317 11.4642 63.3675 11.4642 63.4033 11.457C63.4391 11.4499 63.4749 11.4499 63.5107 11.457C63.568 11.457 63.6217 11.4678 63.6719 11.4893C63.7292 11.5036 63.7865 11.5107 63.8438 11.5107C63.9154 11.5107 63.9655 11.5107 63.9941 11.5107C64.0299 11.5036 64.0586 11.4964 64.0801 11.4893C64.1087 11.4821 64.1374 11.4749 64.166 11.4678C64.1947 11.4535 64.2412 11.4427 64.3057 11.4355C64.363 11.4284 64.4202 11.432 64.4775 11.4463C64.5348 11.4606 64.5921 11.4678 64.6494 11.4678C64.807 11.4749 64.9574 11.457 65.1006 11.4141C65.251 11.3639 65.3978 11.3317 65.541 11.3174C65.6198 11.3102 65.6986 11.3102 65.7773 11.3174C65.8633 11.3174 65.9421 11.3389 66.0137 11.3818ZM70.5791 11.9834C70.3857 12.0765 70.1924 12.123 69.999 12.123C69.8057 12.123 69.5908 12.1159 69.3545 12.1016C69.29 12.1016 69.2184 12.1051 69.1396 12.1123C69.068 12.1195 69 12.1266 68.9355 12.1338C68.599 12.1696 68.3161 12.2985 68.0869 12.5205C67.8577 12.7354 67.6895 13.0075 67.582 13.3369C67.5462 13.4587 67.5176 13.5697 67.4961 13.6699C67.4746 13.7702 67.5212 13.8275 67.6357 13.8418C67.7074 13.8561 67.779 13.8561 67.8506 13.8418C67.9222 13.8275 67.9938 13.8096 68.0654 13.7881C68.1442 13.7594 68.2194 13.7344 68.291 13.7129C68.3626 13.6914 68.4342 13.6807 68.5059 13.6807C68.5345 13.6807 68.5596 13.6878 68.5811 13.7021C68.6097 13.7165 68.6383 13.7236 68.667 13.7236C68.7887 13.738 68.9176 13.7308 69.0537 13.7021C69.1898 13.6663 69.3151 13.6628 69.4297 13.6914C69.4512 13.6986 69.4691 13.7129 69.4834 13.7344C69.5049 13.7487 69.5335 13.763 69.5693 13.7773C69.6624 13.8132 69.7734 13.8382 69.9023 13.8525C70.0312 13.8597 70.1351 13.8812 70.2139 13.917C70.2497 13.9313 70.2855 13.96 70.3213 14.0029C70.3571 14.0387 70.375 14.0638 70.375 14.0781C70.375 14.1569 70.3285 14.207 70.2354 14.2285C70.1423 14.25 70.0635 14.2643 69.999 14.2715C69.9417 14.2786 69.8844 14.2786 69.8271 14.2715C69.7699 14.2643 69.7126 14.2679 69.6553 14.2822C69.555 14.2965 69.4583 14.318 69.3652 14.3467C69.2721 14.3682 69.1719 14.3968 69.0645 14.4326C68.9427 14.4756 68.8281 14.5293 68.7207 14.5938C68.6133 14.651 68.4951 14.6868 68.3662 14.7012C68.2731 14.7155 68.1836 14.7155 68.0977 14.7012C68.0117 14.6868 67.9186 14.6868 67.8184 14.7012C67.7826 14.7083 67.7467 14.7191 67.7109 14.7334C67.6823 14.7477 67.6501 14.7585 67.6143 14.7656C67.5498 14.7799 67.4997 14.7907 67.4639 14.7979C67.4352 14.7979 67.4102 14.805 67.3887 14.8193C67.3743 14.8337 67.3564 14.8551 67.335 14.8838C67.3206 14.9124 67.2956 14.9554 67.2598 15.0127C67.2025 15.1416 67.1667 15.2812 67.1523 15.4316C67.138 15.5749 67.1237 15.7288 67.1094 15.8936C67.1882 15.9723 67.2633 16.0368 67.335 16.0869C67.4066 16.1299 67.5176 16.1514 67.668 16.1514C67.7467 16.1514 67.8076 16.1442 67.8506 16.1299C67.9007 16.1084 67.9652 16.0941 68.0439 16.0869C68.1227 16.0869 68.2015 16.0941 68.2803 16.1084C68.359 16.1156 68.4486 16.1156 68.5488 16.1084C68.7565 16.0941 68.932 16.069 69.0752 16.0332C69.2184 15.9902 69.3939 15.9759 69.6016 15.9902C69.6445 15.9902 69.7197 15.9938 69.8271 16.001C69.9417 16.0081 70.0563 16.0189 70.1709 16.0332C70.2855 16.0404 70.3857 16.0547 70.4717 16.0762C70.5648 16.0977 70.6113 16.1263 70.6113 16.1621C70.6113 16.2051 70.5827 16.2516 70.5254 16.3018C70.4753 16.3447 70.4144 16.3877 70.3428 16.4307C70.2783 16.4665 70.2103 16.4987 70.1387 16.5273C70.0742 16.5488 70.0312 16.5632 70.0098 16.5703C69.888 16.6061 69.7699 16.6169 69.6553 16.6025C69.5407 16.5811 69.4154 16.5775 69.2793 16.5918C69.179 16.6061 69.0895 16.6276 69.0107 16.6562C68.932 16.6849 68.8532 16.7171 68.7744 16.7529C68.6956 16.7816 68.6133 16.8138 68.5273 16.8496C68.4486 16.8783 68.3555 16.8962 68.248 16.9033C68.1048 16.9176 67.9831 16.9355 67.8828 16.957C67.7826 16.9714 67.6644 16.9928 67.5283 17.0215C67.471 17.0358 67.4173 17.0501 67.3672 17.0645C67.3171 17.0859 67.2633 17.1038 67.2061 17.1182C66.9984 17.1611 66.7728 17.1683 66.5293 17.1396C66.293 17.1182 66.0352 17.1217 65.7559 17.1504C65.5768 17.1719 65.4157 17.1969 65.2725 17.2256C65.1364 17.2614 64.9967 17.2721 64.8535 17.2578C64.8034 17.2507 64.7568 17.2435 64.7139 17.2363C64.6637 17.2363 64.6208 17.2184 64.585 17.1826C64.5993 17.1253 64.6315 17.0752 64.6816 17.0322C64.7318 16.9893 64.7819 16.9499 64.832 16.9141C64.8822 16.8711 64.9287 16.8281 64.9717 16.7852C65.0218 16.735 65.0684 16.6885 65.1113 16.6455C65.1543 16.5882 65.1901 16.5202 65.2188 16.4414C65.2474 16.3555 65.2725 16.2695 65.2939 16.1836C65.3226 16.0977 65.3512 16.0189 65.3799 15.9473C65.4157 15.8685 65.4587 15.8005 65.5088 15.7432C65.4515 15.6143 65.4515 15.4674 65.5088 15.3027C65.5732 15.138 65.6305 14.9661 65.6807 14.7871C65.695 14.7441 65.7021 14.7012 65.7021 14.6582C65.7021 14.6152 65.7093 14.5758 65.7236 14.54C65.738 14.4684 65.7702 14.4076 65.8203 14.3574C65.8704 14.3001 65.9027 14.2428 65.917 14.1855C65.9242 14.1497 65.9242 14.1139 65.917 14.0781C65.917 14.0423 65.9206 14.0065 65.9277 13.9707C65.9421 13.8633 65.9671 13.763 66.0029 13.6699C66.0459 13.5697 66.0745 13.4801 66.0889 13.4014C66.1032 13.3441 66.1032 13.2868 66.0889 13.2295C66.0817 13.165 66.0817 13.1042 66.0889 13.0469C66.1032 12.9036 66.1318 12.7676 66.1748 12.6387C66.2249 12.5098 66.2536 12.3952 66.2607 12.2949C66.2679 12.2161 66.2572 12.1302 66.2285 12.0371C66.1999 11.944 66.1712 11.8724 66.1426 11.8223C66.1211 11.7865 66.0889 11.7507 66.0459 11.7148C66.0029 11.6719 65.96 11.6325 65.917 11.5967C65.874 11.5609 65.8346 11.5286 65.7988 11.5C65.7702 11.4642 65.7559 11.432 65.7559 11.4033C65.763 11.3245 65.7952 11.2852 65.8525 11.2852C65.9098 11.278 65.9635 11.2529 66.0137 11.21C66.2715 11.2171 66.515 11.2458 66.7441 11.2959C66.9805 11.346 67.224 11.3783 67.4746 11.3926C67.5677 11.4069 67.6644 11.4069 67.7646 11.3926C67.8649 11.3711 67.9616 11.3568 68.0547 11.3496C68.2051 11.3424 68.3734 11.3639 68.5596 11.4141C68.7529 11.4642 68.9427 11.4821 69.1289 11.4678C69.3796 11.4535 69.6159 11.4463 69.8379 11.4463C70.0599 11.4463 70.2926 11.4391 70.5361 11.4248C70.5791 11.4606 70.6436 11.4785 70.7295 11.4785C70.8154 11.4714 70.9014 11.4642 70.9873 11.457C71.0804 11.4427 71.1628 11.4391 71.2344 11.4463C71.3132 11.4535 71.3669 11.4857 71.3955 11.543C71.4385 11.6432 71.4313 11.7292 71.374 11.8008C71.3167 11.8724 71.238 11.9189 71.1377 11.9404C71.109 11.9404 71.0697 11.944 71.0195 11.9512C70.9694 11.9583 70.9157 11.9655 70.8584 11.9727C70.8011 11.9798 70.7438 11.9834 70.6865 11.9834C70.6364 11.9834 70.6006 11.9834 70.5791 11.9834ZM71.2881 16.3555C71.3382 16.2409 71.3812 16.1335 71.417 16.0332C71.4528 15.9258 71.4993 15.8076 71.5566 15.6787C71.5853 15.6071 71.6068 15.5319 71.6211 15.4531C71.6354 15.3743 71.6605 15.2956 71.6963 15.2168C71.7321 15.1523 71.7751 15.0879 71.8252 15.0234C71.8825 14.959 71.9255 14.8874 71.9541 14.8086C71.9971 14.6868 72.0007 14.5508 71.9648 14.4004C71.929 14.2428 71.9326 14.0853 71.9756 13.9277C72.0114 13.7773 72.0508 13.6305 72.0938 13.4873C72.1439 13.3369 72.1761 13.2044 72.1904 13.0898C72.2048 13.0111 72.2119 12.9323 72.2119 12.8535C72.2119 12.7676 72.2191 12.6816 72.2334 12.5957C72.2477 12.5026 72.2764 12.4131 72.3193 12.3271C72.3623 12.234 72.3874 12.1481 72.3945 12.0693C72.4089 11.9046 72.3695 11.7578 72.2764 11.6289C72.1904 11.4928 72.1009 11.3783 72.0078 11.2852C72.015 11.2422 72.0365 11.21 72.0723 11.1885C72.1152 11.1598 72.1475 11.1491 72.1689 11.1562C72.2549 11.1706 72.3516 11.1992 72.459 11.2422C72.5664 11.2852 72.6702 11.3138 72.7705 11.3281C72.8564 11.3424 72.9495 11.3424 73.0498 11.3281C73.1572 11.3138 73.2682 11.3138 73.3828 11.3281C73.5046 11.3424 73.6514 11.3568 73.8232 11.3711C73.9951 11.3854 74.1634 11.3926 74.3281 11.3926C74.5143 11.3997 74.6934 11.3962 74.8652 11.3818C75.0371 11.3675 75.2054 11.3711 75.3701 11.3926C75.4919 11.4069 75.6029 11.4391 75.7031 11.4893C75.8034 11.5394 75.9144 11.5573 76.0361 11.543C76.1364 11.6576 76.251 11.7471 76.3799 11.8115C76.516 11.8688 76.6377 11.944 76.7451 12.0371C76.8955 12.1589 77.0244 12.3057 77.1318 12.4775C77.2393 12.6423 77.3682 12.7855 77.5186 12.9072C77.5186 12.9645 77.5329 13.0182 77.5615 13.0684C77.5902 13.1185 77.6081 13.1758 77.6152 13.2402C77.6152 13.276 77.6081 13.319 77.5938 13.3691C77.5794 13.4121 77.5723 13.4551 77.5723 13.498C77.5794 13.5625 77.6009 13.6162 77.6367 13.6592C77.6725 13.695 77.6868 13.7523 77.6797 13.8311C77.6725 14.0817 77.6081 14.3288 77.4863 14.5723C77.3646 14.8158 77.2428 15.0306 77.1211 15.2168C77.0423 15.224 76.985 15.2562 76.9492 15.3135C76.9206 15.3708 76.8812 15.4352 76.8311 15.5068C76.7594 15.6071 76.6735 15.693 76.5732 15.7646C76.4801 15.8291 76.3942 15.9115 76.3154 16.0117C76.1579 16.069 76.0111 16.1442 75.875 16.2373C75.7461 16.3304 75.5993 16.4163 75.4346 16.4951C75.3773 16.5238 75.3164 16.5524 75.252 16.5811C75.1947 16.6025 75.1374 16.6276 75.0801 16.6562C75.0085 16.6777 74.9404 16.7028 74.876 16.7314C74.8115 16.7601 74.7507 16.7816 74.6934 16.7959C74.6504 16.8102 74.6038 16.8138 74.5537 16.8066C74.5107 16.7995 74.4678 16.8031 74.4248 16.8174C74.3317 16.8389 74.2422 16.8783 74.1562 16.9355C74.0703 16.9857 73.9844 17.0179 73.8984 17.0322C73.7982 17.0465 73.6979 17.0394 73.5977 17.0107C73.4974 16.9821 73.4007 16.957 73.3076 16.9355C73.1859 16.9499 73.0641 16.957 72.9424 16.957C72.8206 16.9499 72.6953 16.9427 72.5664 16.9355C72.4375 16.9284 72.3014 16.9284 72.1582 16.9355C72.015 16.9427 71.861 16.9606 71.6963 16.9893C71.6533 16.9964 71.6068 17.0107 71.5566 17.0322C71.5137 17.0537 71.4707 17.068 71.4277 17.0752C71.349 17.0895 71.2594 17.0967 71.1592 17.0967C71.0661 17.0967 70.9766 17.0967 70.8906 17.0967C70.8548 17.0967 70.8118 17.0931 70.7617 17.0859C70.7116 17.0859 70.665 17.0824 70.6221 17.0752C70.5719 17.068 70.529 17.0537 70.4932 17.0322C70.4574 17.0179 70.4359 16.9964 70.4287 16.9678C70.4215 16.9248 70.4359 16.889 70.4717 16.8604C70.5003 16.8245 70.5397 16.7959 70.5898 16.7744C70.6328 16.7458 70.6794 16.7243 70.7295 16.71C70.7796 16.6885 70.819 16.6706 70.8477 16.6562C70.9336 16.6061 71.0088 16.5524 71.0732 16.4951C71.1305 16.4307 71.2021 16.3841 71.2881 16.3555ZM74.1455 12.1982C74.0882 12.2555 74.0452 12.3236 74.0166 12.4023C73.9951 12.4811 73.9736 12.5671 73.9521 12.6602C73.9378 12.7461 73.9235 12.8356 73.9092 12.9287C73.8949 13.0218 73.8734 13.1113 73.8447 13.1973C73.8161 13.2546 73.7874 13.3118 73.7588 13.3691C73.7301 13.4193 73.7087 13.473 73.6943 13.5303C73.6585 13.6663 73.637 13.7988 73.6299 13.9277C73.6227 14.0566 73.6012 14.1927 73.5654 14.3359C73.5511 14.4147 73.5225 14.4935 73.4795 14.5723C73.4437 14.6439 73.4186 14.7191 73.4043 14.7979C73.39 14.8766 73.39 14.9518 73.4043 15.0234C73.4186 15.0951 73.4186 15.1702 73.4043 15.249C73.39 15.3063 73.3685 15.36 73.3398 15.4102C73.3184 15.4603 73.3005 15.514 73.2861 15.5713C73.2503 15.7646 73.2861 15.9079 73.3936 16.001C73.501 16.0869 73.6299 16.1478 73.7803 16.1836C74.0381 16.2409 74.2744 16.2266 74.4893 16.1406C74.7113 16.0475 74.8867 15.9437 75.0156 15.8291C75.1087 15.7217 75.2054 15.6071 75.3057 15.4854C75.4059 15.3564 75.4847 15.2168 75.542 15.0664C75.5635 15.0091 75.585 14.9339 75.6064 14.8408C75.6279 14.7406 75.653 14.6439 75.6816 14.5508C75.7031 14.472 75.7282 14.4004 75.7568 14.3359C75.7926 14.2643 75.8213 14.1927 75.8428 14.1211C75.9215 13.9349 75.9502 13.738 75.9287 13.5303C75.9144 13.3154 75.8786 13.1471 75.8213 13.0254C75.7998 12.9824 75.764 12.9359 75.7139 12.8857C75.6709 12.8356 75.6279 12.7855 75.585 12.7354C75.5348 12.6781 75.4883 12.6208 75.4453 12.5635C75.4095 12.5062 75.3773 12.4632 75.3486 12.4346C75.2484 12.3415 75.1266 12.277 74.9834 12.2412C74.8473 12.1982 74.722 12.1302 74.6074 12.0371C74.4857 12.0443 74.3962 12.0658 74.3389 12.1016C74.2816 12.1374 74.2171 12.1696 74.1455 12.1982Z" fill="white"/>
</svg>
