<svg width="40" height="42" viewBox="0 0 40 42" fill="none" xmlns="http://www.w3.org/2000/svg">
<g filter="url(#filter0_d)">
<path d="M10.2352 14.9591C7.03766 10.2858 11.7127 4.25915 17.0342 6.19426V6.19426C18.4024 6.6918 19.9074 6.65901 21.2527 6.10235L22.6327 5.53131C28.9993 2.89686 36 7.57642 36 14.4666V20.5637C36 26.9969 28.708 30.7196 23.4975 26.9464L21.5835 25.5604C20.1214 24.5017 18.1612 24.4429 16.6383 25.412L14.1131 27.0189C10.747 29.161 12.6351 34.3801 16.5926 33.8727V33.8727C19.3602 33.5179 20.775 30.3635 19.1994 28.0606L10.2352 14.9591Z" fill="#423AF2"/>
<path d="M23.25 21.25C24.3594 21.2498 25.4368 20.8784 26.3106 20.195L29.0581 22.9425L29.9419 22.0587L27.1944 19.3112C27.8781 18.4373 28.2497 17.3596 28.25 16.25C28.25 13.4931 26.0069 11.25 23.25 11.25C20.4931 11.25 18.25 13.4931 18.25 16.25C18.25 19.0069 20.4931 21.25 23.25 21.25ZM23.25 12.5C25.3181 12.5 27 14.1819 27 16.25C27 18.3181 25.3181 20 23.25 20C21.1819 20 19.5 18.3181 19.5 16.25C19.5 14.1819 21.1819 12.5 23.25 12.5Z" fill="white"/>
<path d="M24.1326 15.3663C24.3695 15.6038 24.5001 15.9176 24.5001 16.2501H25.7501C25.7507 15.9216 25.6861 15.5962 25.5602 15.2929C25.4342 14.9895 25.2494 14.7141 25.0164 14.4826C24.0701 13.5376 22.4295 13.5376 21.4839 14.4826L22.3664 15.3676C22.8414 14.8938 23.6601 14.8951 24.1326 15.3663Z" fill="white"/>
</g>
<defs>
<filter id="filter0_d" x="5.18994" y="4.78662" width="34.8099" height="37.1207" filterUnits="userSpaceOnUse" color-interpolation-filters="sRGB">
<feFlood flood-opacity="0" result="BackgroundImageFix"/>
<feColorMatrix in="SourceAlpha" type="matrix" values="0 0 0 0 0 0 0 0 0 0 0 0 0 0 0 0 0 0 127 0" result="hardAlpha"/>
<feOffset dy="4"/>
<feGaussianBlur stdDeviation="2"/>
<feComposite in2="hardAlpha" operator="out"/>
<feColorMatrix type="matrix" values="0 0 0 0 0 0 0 0 0 0 0 0 0 0 0 0 0 0 0.25 0"/>
<feBlend mode="normal" in2="BackgroundImageFix" result="effect1_dropShadow"/>
<feBlend mode="normal" in="SourceGraphic" in2="effect1_dropShadow" result="shape"/>
</filter>
</defs>
</svg>
