<svg width="69" height="21" viewBox="0 0 69 21" fill="none" xmlns="http://www.w3.org/2000/svg">
<rect x="16.2793" width="46.7202" height="20.5569" rx="3" fill="#251EBB"/>
<g clip-path="url(#clip0_539:7)">
<path d="M5.84002 2.83179L0 5.42736V9.32071C0 12.9221 2.49174 16.2898 5.84002 17.1074C9.18831 16.2898 11.68 12.9221 11.68 9.32071V5.42736L5.84002 2.83179ZM4.54224 13.2141L1.94668 10.6185L2.86161 9.70355L4.54224 11.3777L8.81844 7.1015L9.73338 8.02292L4.54224 13.2141Z" fill="#251EBB"/>
</g>
<rect x="11.3281" y="8.49451" width="5.66305" height="1.41576" fill="#251EBB"/>
<path d="M30.5312 7.07812C30.526 7.10417 30.5234 7.13281 30.5234 7.16406C30.5234 7.1901 30.5208 7.21615 30.5156 7.24219C30.474 7.27865 30.4375 7.30208 30.4062 7.3125C30.3802 7.32292 30.3568 7.34896 30.3359 7.39062C30.3203 7.41667 30.3125 7.44531 30.3125 7.47656C30.3125 7.50781 30.3047 7.53646 30.2891 7.5625C30.2734 7.59896 30.2344 7.63802 30.1719 7.67969C30.1146 7.71615 30.0729 7.73958 30.0469 7.75C30.0156 7.76562 29.9818 7.77865 29.9453 7.78906C29.9141 7.79948 29.8828 7.8125 29.8516 7.82812C29.8047 7.84896 29.7656 7.86458 29.7344 7.875C29.7083 7.88542 29.6797 7.89323 29.6484 7.89844C29.6172 7.89844 29.5833 7.90104 29.5469 7.90625C29.5104 7.90625 29.4635 7.91146 29.4062 7.92188C29.3906 7.92188 29.3802 7.92708 29.375 7.9375C29.3698 7.94271 29.3594 7.95052 29.3438 7.96094C29.3281 7.97135 29.3047 7.98177 29.2734 7.99219C29.2422 7.9974 29.1953 8.0026 29.1328 8.00781C29.0755 8.01302 29.0312 8.01823 29 8.02344C28.974 8.02344 28.9297 8.02865 28.8672 8.03906C28.8307 8.04948 28.7969 8.0651 28.7656 8.08594C28.7344 8.10677 28.7005 8.125 28.6641 8.14062C28.5911 8.18229 28.5365 8.22396 28.5 8.26562C28.4688 8.30208 28.4427 8.33594 28.4219 8.36719C28.3906 8.41927 28.375 8.47917 28.375 8.54688C28.3802 8.60938 28.3698 8.67708 28.3438 8.75C28.3229 8.80208 28.2891 8.85417 28.2422 8.90625C28.1953 8.95833 28.1615 9.01302 28.1406 9.07031C28.1354 9.09635 28.1354 9.125 28.1406 9.15625C28.1458 9.1875 28.1458 9.22135 28.1406 9.25781C28.1302 9.32552 28.1068 9.39583 28.0703 9.46875C28.0339 9.53646 28.0026 9.60938 27.9766 9.6875C27.9661 9.72917 27.9609 9.77083 27.9609 9.8125C27.9661 9.85417 27.9635 9.89583 27.9531 9.9375C27.9375 10.0365 27.9141 10.1432 27.8828 10.2578C27.8516 10.3672 27.8229 10.4766 27.7969 10.5859C27.7865 10.6484 27.7812 10.7135 27.7812 10.7812C27.7865 10.8438 27.7812 10.8984 27.7656 10.9453C27.7552 10.9922 27.7344 11.0365 27.7031 11.0781C27.6771 11.1198 27.651 11.1641 27.625 11.2109C27.6042 11.2526 27.5885 11.2995 27.5781 11.3516C27.5729 11.3984 27.5859 11.4505 27.6172 11.5078C27.6016 11.7005 27.5755 11.8958 27.5391 12.0938C27.5026 12.2917 27.4557 12.4818 27.3984 12.6641C27.3828 12.7214 27.3568 12.7969 27.3203 12.8906C27.2891 12.9844 27.2578 13.0443 27.2266 13.0703C27.1953 13.0964 27.1536 13.112 27.1016 13.1172C27.0547 13.1276 27.0052 13.1276 26.9531 13.1172C26.9062 13.1068 26.862 13.0885 26.8203 13.0625C26.7786 13.0365 26.75 13.0052 26.7344 12.9688C26.7031 12.9896 26.6745 13.0182 26.6484 13.0547C26.6276 13.0911 26.5964 13.1198 26.5547 13.1406C26.5026 13.1667 26.4479 13.1771 26.3906 13.1719C26.3385 13.1667 26.2839 13.1771 26.2266 13.2031C26.1745 13.224 26.1276 13.2474 26.0859 13.2734C26.0443 13.3047 26.0026 13.3255 25.9609 13.3359C25.9349 13.3464 25.9089 13.349 25.8828 13.3438C25.862 13.3438 25.8411 13.349 25.8203 13.3594C25.7891 13.375 25.7656 13.401 25.75 13.4375C25.7344 13.474 25.7109 13.5026 25.6797 13.5234C25.638 13.513 25.5911 13.5052 25.5391 13.5C25.487 13.5 25.4479 13.487 25.4219 13.4609C25.4115 13.3255 25.4323 13.2057 25.4844 13.1016C25.5365 13.0026 25.5755 12.9036 25.6016 12.8047C25.6224 12.7474 25.6354 12.6927 25.6406 12.6406C25.651 12.5885 25.6615 12.5286 25.6719 12.4609C25.6927 12.388 25.7188 12.3125 25.75 12.2344C25.7812 12.151 25.8047 12.0677 25.8203 11.9844C25.8359 11.9271 25.8438 11.8698 25.8438 11.8125C25.849 11.75 25.862 11.6901 25.8828 11.6328C25.8932 11.5911 25.9193 11.5469 25.9609 11.5C26.0026 11.4479 26.0339 11.3932 26.0547 11.3359C26.0755 11.2786 26.0938 11.2135 26.1094 11.1406C26.125 11.0677 26.1458 10.9974 26.1719 10.9297C26.1979 10.8411 26.2344 10.7656 26.2812 10.7031C26.3333 10.6406 26.3568 10.5703 26.3516 10.4922C26.3516 10.4557 26.3438 10.4271 26.3281 10.4062C26.3125 10.3854 26.3047 10.362 26.3047 10.3359C26.2995 10.2943 26.3047 10.237 26.3203 10.1641C26.3359 10.0911 26.3516 10.026 26.3672 9.96875C26.3932 9.85938 26.4193 9.76042 26.4453 9.67188C26.4714 9.58333 26.4974 9.49479 26.5234 9.40625C26.5339 9.36458 26.5417 9.32552 26.5469 9.28906C26.5573 9.2474 26.5677 9.21094 26.5781 9.17969C26.5885 9.13802 26.6042 9.10417 26.625 9.07812C26.651 9.04688 26.6693 9.01562 26.6797 8.98438C26.6901 8.94792 26.6979 8.90365 26.7031 8.85156C26.7135 8.79948 26.7266 8.75 26.7422 8.70312C26.7578 8.66667 26.7734 8.63281 26.7891 8.60156C26.8099 8.57031 26.8229 8.53906 26.8281 8.50781C26.8385 8.4401 26.8281 8.3776 26.7969 8.32031C26.7708 8.26302 26.7578 8.20312 26.7578 8.14062C26.7005 8.09896 26.6328 8.07552 26.5547 8.07031C26.4766 8.0599 26.401 8.05729 26.3281 8.0625C26.2552 8.06771 26.1901 8.07292 26.1328 8.07812C26.0755 8.07812 26.0104 8.08073 25.9375 8.08594C25.8177 8.09115 25.7135 8.10156 25.625 8.11719C25.5365 8.13281 25.4505 8.14844 25.3672 8.16406C25.2891 8.17969 25.2083 8.19271 25.125 8.20312C25.0417 8.20833 24.9479 8.20833 24.8438 8.20312C24.8542 8.14583 24.862 8.08594 24.8672 8.02344C24.8672 7.95573 24.875 7.90104 24.8906 7.85938C24.9219 7.83333 24.9531 7.82031 24.9844 7.82031C25.0156 7.8151 25.0495 7.8099 25.0859 7.80469C25.0651 7.77344 25.0547 7.74479 25.0547 7.71875C25.0599 7.69271 25.0651 7.66927 25.0703 7.64844C25.0807 7.6224 25.0911 7.59896 25.1016 7.57812C25.1172 7.55208 25.1276 7.52865 25.1328 7.50781C25.1432 7.45573 25.1458 7.40365 25.1406 7.35156C25.1406 7.29948 25.1641 7.25781 25.2109 7.22656C25.2839 7.22135 25.349 7.22135 25.4062 7.22656C25.4635 7.23177 25.5182 7.23958 25.5703 7.25C25.6224 7.25521 25.6745 7.26042 25.7266 7.26562C25.7839 7.27083 25.849 7.27083 25.9219 7.26562C26.0885 7.25521 26.224 7.24219 26.3281 7.22656C26.4375 7.21094 26.5703 7.20052 26.7266 7.19531C26.8359 7.19531 26.9401 7.19792 27.0391 7.20312C27.1432 7.20312 27.2396 7.20833 27.3281 7.21875C27.4219 7.23438 27.4896 7.24219 27.5312 7.24219C27.5781 7.24219 27.6198 7.24219 27.6562 7.24219C27.6927 7.23698 27.7318 7.23177 27.7734 7.22656C27.8151 7.22135 27.8776 7.21875 27.9609 7.21875C28.0495 7.21875 28.1328 7.21354 28.2109 7.20312C28.2943 7.1875 28.3802 7.18229 28.4688 7.1875C28.5677 7.1875 28.6354 7.19531 28.6719 7.21094C28.7135 7.22135 28.7474 7.23177 28.7734 7.24219C28.7995 7.2526 28.8281 7.26302 28.8594 7.27344C28.8906 7.27865 28.9479 7.27604 29.0312 7.26562C29.0885 7.25521 29.125 7.24479 29.1406 7.23438C29.1562 7.21875 29.1927 7.20573 29.25 7.19531C29.3021 7.1901 29.3542 7.1901 29.4062 7.19531C29.4583 7.19531 29.513 7.19271 29.5703 7.1875C29.7266 7.17188 29.8828 7.14583 30.0391 7.10938C30.2005 7.06771 30.3646 7.05729 30.5312 7.07812ZM32.4844 8.92188C32.526 8.93229 32.5677 8.9375 32.6094 8.9375C32.651 8.9375 32.6927 8.94271 32.7344 8.95312C32.75 8.95312 32.7656 8.95833 32.7812 8.96875C32.7969 8.97917 32.8125 8.98698 32.8281 8.99219C32.8438 8.9974 32.8594 8.9974 32.875 8.99219C32.8906 8.98698 32.9062 8.98698 32.9219 8.99219C33.0417 9.02344 33.138 9.07292 33.2109 9.14062C33.2839 9.20312 33.3568 9.28125 33.4297 9.375C33.4609 9.42708 33.5 9.48958 33.5469 9.5625C33.5938 9.63021 33.6328 9.70833 33.6641 9.79688C33.6953 9.88021 33.7135 9.96875 33.7188 10.0625C33.724 10.1562 33.7057 10.25 33.6641 10.3438C33.6536 10.3698 33.638 10.4036 33.6172 10.4453C33.5964 10.4818 33.5755 10.5208 33.5547 10.5625C33.5234 10.6198 33.4844 10.6797 33.4375 10.7422C33.3906 10.8047 33.3411 10.849 33.2891 10.875C33.2474 10.901 33.2109 10.9245 33.1797 10.9453C33.1536 10.9661 33.1198 10.987 33.0781 11.0078C33.0052 11.0339 32.9323 11.0729 32.8594 11.125C32.7917 11.1719 32.7214 11.2109 32.6484 11.2422C32.6224 11.2526 32.5938 11.2604 32.5625 11.2656C32.5365 11.2656 32.5104 11.2708 32.4844 11.2812C32.4479 11.3021 32.4193 11.3307 32.3984 11.3672C32.3776 11.4036 32.3385 11.4297 32.2812 11.4453C32.4115 11.4766 32.5312 11.5495 32.6406 11.6641C32.75 11.7734 32.8333 11.888 32.8906 12.0078C32.9167 12.0807 32.9531 12.1458 33 12.2031C33.0469 12.2604 33.0677 12.3255 33.0625 12.3984C33.099 12.4297 33.1276 12.4714 33.1484 12.5234C33.1745 12.5703 33.1953 12.6224 33.2109 12.6797C33.2266 12.737 33.2396 12.7969 33.25 12.8594C33.2656 12.9167 33.2839 12.9688 33.3047 13.0156C33.3359 13.0833 33.3698 13.138 33.4062 13.1797C33.4427 13.2266 33.4818 13.2682 33.5234 13.3047C33.5651 13.3464 33.6068 13.388 33.6484 13.4297C33.6901 13.4766 33.7266 13.5339 33.7578 13.6016C33.7786 13.5964 33.7943 13.5885 33.8047 13.5781C33.8203 13.5729 33.8411 13.5729 33.8672 13.5781C33.9453 13.6354 34.0312 13.6797 34.125 13.7109C34.224 13.7422 34.3438 13.7682 34.4844 13.7891C34.6042 13.8099 34.7161 13.8151 34.8203 13.8047C34.9297 13.7995 35.0417 13.7865 35.1562 13.7656C35.1927 13.7604 35.237 13.7448 35.2891 13.7188C35.3464 13.6979 35.401 13.6797 35.4531 13.6641C35.5104 13.6484 35.5599 13.6406 35.6016 13.6406C35.6432 13.6458 35.6641 13.6745 35.6641 13.7266C35.6641 13.763 35.6406 13.8073 35.5938 13.8594C35.5469 13.9115 35.5052 13.9505 35.4688 13.9766C35.3802 14.0391 35.2786 14.0885 35.1641 14.125C35.0495 14.1615 34.9297 14.1901 34.8047 14.2109C34.6797 14.237 34.5521 14.2552 34.4219 14.2656C34.2917 14.276 34.1693 14.2839 34.0547 14.2891C33.9818 14.2891 33.9141 14.276 33.8516 14.25C33.7943 14.2292 33.7422 14.2135 33.6953 14.2031C33.5911 14.1875 33.4974 14.1693 33.4141 14.1484C33.3359 14.1276 33.2604 14.0964 33.1875 14.0547C33.125 14.0182 33.0703 13.9661 33.0234 13.8984C32.9766 13.8359 32.9115 13.7969 32.8281 13.7812C32.6927 13.6615 32.5573 13.5391 32.4219 13.4141C32.2865 13.2943 32.1797 13.1432 32.1016 12.9609C32.0755 12.9141 32.0469 12.8698 32.0156 12.8281C31.9844 12.7812 31.9609 12.7318 31.9453 12.6797C31.9297 12.6432 31.9193 12.6042 31.9141 12.5625C31.9141 12.5208 31.9089 12.474 31.8984 12.4219C31.888 12.3646 31.8724 12.3047 31.8516 12.2422C31.8307 12.1745 31.8099 12.112 31.7891 12.0547C31.7839 12.0391 31.776 12.0234 31.7656 12.0078C31.7552 11.9922 31.7474 11.9766 31.7422 11.9609C31.7318 11.9297 31.7214 11.8932 31.7109 11.8516C31.7005 11.8047 31.6823 11.7682 31.6562 11.7422C31.6302 11.7214 31.5859 11.6979 31.5234 11.6719C31.4661 11.6458 31.4167 11.6276 31.375 11.6172C31.3177 11.6068 31.2604 11.6094 31.2031 11.625C31.151 11.6406 31.1016 11.651 31.0547 11.6562C30.987 11.6667 30.9219 11.6693 30.8594 11.6641C30.7969 11.6536 30.7448 11.6562 30.7031 11.6719C30.6302 11.6979 30.5703 11.7656 30.5234 11.875C30.4766 11.9844 30.4479 12.099 30.4375 12.2188C30.4167 12.3385 30.3854 12.4557 30.3438 12.5703C30.3021 12.6797 30.2682 12.7865 30.2422 12.8906C30.2214 12.9583 30.1875 13.013 30.1406 13.0547C30.0938 13.1016 30.0286 13.1198 29.9453 13.1094C29.9036 13.1042 29.8698 13.099 29.8438 13.0938C29.8229 13.0938 29.7943 13.0833 29.7578 13.0625C29.7318 13.0729 29.6849 13.0964 29.6172 13.1328C29.5547 13.1745 29.5104 13.2031 29.4844 13.2188C29.3125 13.2708 29.2135 13.2578 29.1875 13.1797C29.1667 13.1016 29.1771 12.9766 29.2188 12.8047C29.2448 12.6953 29.2839 12.5885 29.3359 12.4844C29.3932 12.3802 29.4323 12.2917 29.4531 12.2188C29.4635 12.1719 29.4661 12.1302 29.4609 12.0938C29.4609 12.0521 29.4583 12.013 29.4531 11.9766C29.4479 11.9401 29.4453 11.9089 29.4453 11.8828C29.4453 11.8516 29.4557 11.8229 29.4766 11.7969C29.4818 11.7396 29.4974 11.6953 29.5234 11.6641C29.5495 11.6276 29.5677 11.5807 29.5781 11.5234C29.5885 11.4714 29.6016 11.4167 29.6172 11.3594C29.6328 11.3021 29.6432 11.2474 29.6484 11.1953C29.6536 11.1328 29.6562 11.0755 29.6562 11.0234C29.6615 10.9661 29.6797 10.901 29.7109 10.8281C29.737 10.7604 29.763 10.6927 29.7891 10.625C29.8203 10.5521 29.8411 10.4818 29.8516 10.4141C29.862 10.362 29.8672 10.3099 29.8672 10.2578C29.8724 10.2005 29.8854 10.1458 29.9062 10.0938C29.9167 10.0521 29.9375 10.0182 29.9688 9.99219C30.0052 9.96615 30.0286 9.93229 30.0391 9.89062C30.0443 9.85938 30.0417 9.83073 30.0312 9.80469C30.0208 9.77865 30.0208 9.7526 30.0312 9.72656C30.0625 9.6224 30.0729 9.54167 30.0625 9.48438C30.0521 9.42188 30.0339 9.3724 30.0078 9.33594C29.987 9.29427 29.9661 9.25521 29.9453 9.21875C29.9297 9.18229 29.9297 9.13281 29.9453 9.07031C29.9714 9.0651 29.9948 9.04427 30.0156 9.00781C30.0365 8.96615 30.0651 8.9401 30.1016 8.92969C30.1224 8.92448 30.1615 8.92188 30.2188 8.92188C30.276 8.91667 30.3385 8.91406 30.4062 8.91406C30.474 8.90885 30.5391 8.90885 30.6016 8.91406C30.6641 8.91406 30.7135 8.91406 30.75 8.91406C30.7917 8.91927 30.8438 8.91927 30.9062 8.91406C30.9688 8.90365 31.0339 8.89844 31.1016 8.89844C31.1693 8.89323 31.2318 8.89062 31.2891 8.89062C31.3516 8.89062 31.4036 8.90104 31.4453 8.92188H32.4844ZM31.2969 10.9141C31.3385 10.9141 31.3776 10.9036 31.4141 10.8828C31.4557 10.862 31.4948 10.8568 31.5312 10.8672C31.5833 10.8776 31.6354 10.8854 31.6875 10.8906C31.7396 10.8958 31.7969 10.9036 31.8594 10.9141C31.8854 10.9193 31.9115 10.9167 31.9375 10.9062C31.9635 10.8958 31.9974 10.8932 32.0391 10.8984C32.1224 10.8359 32.1953 10.7891 32.2578 10.7578C32.3255 10.7266 32.388 10.6641 32.4453 10.5703C32.4714 10.5234 32.5 10.4792 32.5312 10.4375C32.5625 10.3906 32.5833 10.3516 32.5938 10.3203C32.6302 10.2005 32.625 10.099 32.5781 10.0156C32.5312 9.92708 32.487 9.84896 32.4453 9.78125C32.3932 9.70312 32.3438 9.64844 32.2969 9.61719C32.25 9.58073 32.1719 9.56771 32.0625 9.57812C31.974 9.58333 31.8828 9.58333 31.7891 9.57812C31.6953 9.56771 31.6042 9.5651 31.5156 9.57031C31.4323 9.57552 31.3568 9.59115 31.2891 9.61719C31.2214 9.64323 31.1719 9.6901 31.1406 9.75781C31.1146 9.83594 31.0833 9.92188 31.0469 10.0156C31.0104 10.1094 30.9766 10.2057 30.9453 10.3047C30.9141 10.3984 30.888 10.4948 30.8672 10.5938C30.8464 10.6927 30.8359 10.7891 30.8359 10.8828C30.9141 10.8724 30.9922 10.8776 31.0703 10.8984C31.1484 10.9141 31.224 10.9193 31.2969 10.9141ZM37.7578 8.60938C37.7995 8.61979 37.8203 8.65104 37.8203 8.70312C37.8203 8.75 37.8307 8.78646 37.8516 8.8125C37.9036 8.78125 37.9688 8.75 38.0469 8.71875C38.125 8.68229 38.2135 8.67188 38.3125 8.6875C38.3385 8.75 38.3516 8.8099 38.3516 8.86719C38.3516 8.91927 38.3464 8.97135 38.3359 9.02344C38.3255 9.07552 38.3125 9.13021 38.2969 9.1875C38.2812 9.23958 38.2682 9.29688 38.2578 9.35938C38.2474 9.46354 38.2344 9.54427 38.2188 9.60156C38.2031 9.65885 38.1849 9.72656 38.1641 9.80469C38.138 9.88802 38.1172 9.97135 38.1016 10.0547C38.0911 10.1328 38.0781 10.2083 38.0625 10.2812C38.0469 10.3542 38.026 10.4219 38 10.4844C37.974 10.5417 37.9349 10.5938 37.8828 10.6406C37.888 10.8542 37.862 11.0703 37.8047 11.2891C37.7526 11.5078 37.6901 11.7031 37.6172 11.875C37.5964 11.9219 37.5781 11.9714 37.5625 12.0234C37.5521 12.0755 37.5391 12.1198 37.5234 12.1562C37.5078 12.1875 37.487 12.2188 37.4609 12.25C37.4401 12.276 37.4167 12.3047 37.3906 12.3359C37.3177 12.4714 37.2396 12.599 37.1562 12.7188C37.0781 12.8333 36.9661 12.9193 36.8203 12.9766C36.7786 12.9922 36.7396 13.0052 36.7031 13.0156C36.6719 13.026 36.638 13.0417 36.6016 13.0625C36.5547 13.0885 36.4922 13.125 36.4141 13.1719C36.3411 13.2188 36.2708 13.2448 36.2031 13.25C36.1667 13.25 36.125 13.2422 36.0781 13.2266C36.0312 13.2109 35.987 13.2031 35.9453 13.2031C35.8984 13.2031 35.8464 13.2057 35.7891 13.2109C35.737 13.2214 35.6849 13.2266 35.6328 13.2266C35.5859 13.2266 35.5417 13.2214 35.5 13.2109C35.4583 13.2005 35.4245 13.1745 35.3984 13.1328C35.3359 13.1224 35.2786 13.1354 35.2266 13.1719C35.1745 13.2083 35.1198 13.2266 35.0625 13.2266C35 13.2214 34.9453 13.1979 34.8984 13.1562C34.8568 13.1146 34.8073 13.0807 34.75 13.0547C34.7135 13.0755 34.6797 13.0833 34.6484 13.0781C34.6172 13.0781 34.5833 13.0833 34.5469 13.0938C34.5156 13.0729 34.4844 13.0573 34.4531 13.0469C34.4219 13.0417 34.3906 13.0286 34.3594 13.0078C34.3021 12.9609 34.2578 12.901 34.2266 12.8281C34.2005 12.75 34.1771 12.6693 34.1562 12.5859C34.1354 12.4974 34.112 12.4141 34.0859 12.3359C34.0651 12.2526 34.0312 12.1823 33.9844 12.125C34 12.0156 34.0234 11.9141 34.0547 11.8203C34.0859 11.7266 34.1198 11.6354 34.1562 11.5469C34.1719 11.4844 34.1797 11.4167 34.1797 11.3438C34.1849 11.2656 34.1875 11.1901 34.1875 11.1172C34.1927 11.0391 34.2005 10.9635 34.2109 10.8906C34.2214 10.8125 34.2396 10.7422 34.2656 10.6797C34.276 10.6536 34.2995 10.6276 34.3359 10.6016C34.3724 10.5703 34.3984 10.5417 34.4141 10.5156C34.4297 10.474 34.4427 10.4271 34.4531 10.375C34.4635 10.3177 34.474 10.2682 34.4844 10.2266C34.4948 10.1589 34.5052 10.0755 34.5156 9.97656C34.526 9.8776 34.5339 9.79167 34.5391 9.71875C34.5495 9.58333 34.5651 9.45573 34.5859 9.33594C34.612 9.21094 34.6719 9.1224 34.7656 9.07031C34.8438 9.04948 34.9141 9.02083 34.9766 8.98438C35.0443 8.94792 35.1328 8.9401 35.2422 8.96094C35.2682 8.96615 35.2995 8.97656 35.3359 8.99219C35.3776 9.0026 35.4141 9.01302 35.4453 9.02344C35.5182 9.04427 35.5755 9.0625 35.6172 9.07812C35.6641 9.08854 35.6927 9.13802 35.7031 9.22656C35.7083 9.2526 35.7057 9.29688 35.6953 9.35938C35.6849 9.41667 35.6719 9.46615 35.6562 9.50781C35.6458 9.53385 35.6302 9.55729 35.6094 9.57812C35.5885 9.59896 35.5729 9.6224 35.5625 9.64844C35.5521 9.66406 35.5469 9.68229 35.5469 9.70312C35.5521 9.72396 35.5495 9.74219 35.5391 9.75781C35.5286 9.78385 35.5078 9.82552 35.4766 9.88281C35.4453 9.9401 35.4245 9.98177 35.4141 10.0078C35.3828 10.0651 35.3568 10.125 35.3359 10.1875C35.3151 10.25 35.2917 10.3177 35.2656 10.3906C35.2344 10.4792 35.1979 10.5781 35.1562 10.6875C35.1146 10.7969 35.0807 10.9062 35.0547 11.0156C35.0339 11.125 35.0234 11.2292 35.0234 11.3281C35.0234 11.4219 35.0156 11.5182 35 11.6172C34.9896 11.6589 34.9766 11.6979 34.9609 11.7344C34.9453 11.7708 34.9427 11.8177 34.9531 11.875C34.8958 11.9323 34.8776 11.9896 34.8984 12.0469C34.9193 12.1042 34.9505 12.1641 34.9922 12.2266C35.0234 12.2578 35.0573 12.2943 35.0938 12.3359C35.1302 12.3776 35.1719 12.4167 35.2188 12.4531C35.2656 12.4896 35.3203 12.5182 35.3828 12.5391C35.4453 12.5547 35.5156 12.5573 35.5938 12.5469C35.6458 12.5365 35.7005 12.5156 35.7578 12.4844C35.8151 12.4531 35.8672 12.4245 35.9141 12.3984C36.0182 12.3568 36.1094 12.3047 36.1875 12.2422C36.2656 12.1745 36.3229 12.0885 36.3594 11.9844C36.3802 11.9323 36.3906 11.8828 36.3906 11.8359C36.3958 11.7839 36.3958 11.7344 36.3906 11.6875C36.3906 11.6354 36.3906 11.5833 36.3906 11.5312C36.3958 11.474 36.4115 11.4141 36.4375 11.3516C36.4635 11.2943 36.5026 11.2422 36.5547 11.1953C36.6068 11.1484 36.6406 11.0938 36.6562 11.0312C36.6667 11 36.6667 10.9714 36.6562 10.9453C36.651 10.9141 36.6484 10.8828 36.6484 10.8516C36.6484 10.7786 36.6589 10.7057 36.6797 10.6328C36.7005 10.5599 36.724 10.487 36.75 10.4141C36.7812 10.3359 36.8073 10.2604 36.8281 10.1875C36.8542 10.1146 36.8698 10.0417 36.875 9.96875C36.8802 9.90104 36.8854 9.84375 36.8906 9.79688C36.8958 9.75 36.901 9.70833 36.9062 9.67188C36.9167 9.63021 36.9271 9.59115 36.9375 9.55469C36.9479 9.51302 36.9661 9.46615 36.9922 9.41406C37.0182 9.36719 37.0417 9.31771 37.0625 9.26562C37.0833 9.20833 37.099 9.13802 37.1094 9.05469C37.1198 9.02865 37.125 8.9974 37.125 8.96094C37.125 8.91927 37.1328 8.88281 37.1484 8.85156C37.1693 8.80469 37.2031 8.76823 37.25 8.74219C37.2969 8.71094 37.349 8.6875 37.4062 8.67188C37.4635 8.65625 37.5234 8.64583 37.5859 8.64062C37.6484 8.63021 37.7057 8.61979 37.7578 8.60938ZM41.0312 9.73438C41.0781 9.75521 41.1094 9.78385 41.125 9.82031C41.1406 9.85156 41.151 9.88542 41.1562 9.92188C41.1667 9.95833 41.1771 9.99479 41.1875 10.0312C41.1979 10.0677 41.224 10.0964 41.2656 10.1172C41.276 10.1276 41.2943 10.1406 41.3203 10.1562C41.3464 10.1719 41.375 10.1901 41.4062 10.2109C41.4375 10.2266 41.4661 10.2422 41.4922 10.2578C41.5234 10.2682 41.5469 10.2708 41.5625 10.2656C41.5938 10.2604 41.6224 10.237 41.6484 10.1953C41.6745 10.1536 41.6953 10.1068 41.7109 10.0547C41.7318 9.9974 41.7448 9.9401 41.75 9.88281C41.7552 9.82552 41.7526 9.77865 41.7422 9.74219C41.7318 9.72656 41.7031 9.70573 41.6562 9.67969C41.6094 9.64844 41.5729 9.6276 41.5469 9.61719C41.474 9.59115 41.4062 9.5599 41.3438 9.52344C41.2812 9.48698 41.2135 9.45573 41.1406 9.42969C41.1094 9.41927 41.0755 9.40365 41.0391 9.38281C41.0078 9.35677 40.9766 9.34375 40.9453 9.34375C40.9245 9.33854 40.901 9.34375 40.875 9.35938C40.849 9.36979 40.8229 9.375 40.7969 9.375C40.7656 9.38021 40.7266 9.38281 40.6797 9.38281C40.638 9.3776 40.5938 9.3776 40.5469 9.38281C40.5 9.38802 40.4505 9.39583 40.3984 9.40625C40.3516 9.41667 40.3099 9.4349 40.2734 9.46094C40.2057 9.51823 40.1562 9.58333 40.125 9.65625C40.099 9.72396 40.0625 9.80208 40.0156 9.89062C40.0052 9.91146 39.987 9.9349 39.9609 9.96094C39.9349 9.98698 39.9219 10.0182 39.9219 10.0547C39.9219 10.0755 39.9297 10.0938 39.9453 10.1094C39.9661 10.125 39.9818 10.1484 39.9922 10.1797C40.0078 10.2109 40.0182 10.2448 40.0234 10.2812C40.0286 10.3125 40.0365 10.3411 40.0469 10.3672C40.0625 10.3828 40.0781 10.3984 40.0938 10.4141C40.1094 10.4245 40.1224 10.4349 40.1328 10.4453C40.1484 10.4609 40.1589 10.4792 40.1641 10.5C40.1745 10.5208 40.1875 10.5365 40.2031 10.5469C40.2292 10.5625 40.2734 10.5911 40.3359 10.6328C40.4036 10.6693 40.4661 10.6927 40.5234 10.7031C40.6224 10.724 40.7109 10.7578 40.7891 10.8047C40.8724 10.8464 40.9531 10.8828 41.0312 10.9141C41.0885 10.9401 41.1328 10.9714 41.1641 11.0078C41.2005 11.0391 41.2318 11.0729 41.2578 11.1094C41.2839 11.1406 41.3099 11.1719 41.3359 11.2031C41.3672 11.2344 41.4089 11.2578 41.4609 11.2734C41.487 11.2839 41.5104 11.2891 41.5312 11.2891C41.5521 11.2891 41.5755 11.2943 41.6016 11.3047C41.6276 11.3151 41.6536 11.3333 41.6797 11.3594C41.7057 11.3802 41.7344 11.4036 41.7656 11.4297C41.7865 11.4505 41.8047 11.474 41.8203 11.5C41.8411 11.5208 41.8568 11.5417 41.8672 11.5625C41.8828 11.5938 41.8932 11.6354 41.8984 11.6875C41.9036 11.7344 41.9062 11.7734 41.9062 11.8047C41.9115 11.9297 41.9089 12.0286 41.8984 12.1016C41.888 12.1745 41.8698 12.2422 41.8438 12.3047C41.8177 12.3672 41.7839 12.4297 41.7422 12.4922C41.7057 12.5547 41.6641 12.6354 41.6172 12.7344C41.5495 12.7656 41.4792 12.8021 41.4062 12.8438C41.3333 12.8802 41.2708 12.9193 41.2188 12.9609C41.1927 12.9818 41.1562 13.0078 41.1094 13.0391C41.0625 13.0703 41.0208 13.0911 40.9844 13.1016C40.9115 13.1276 40.8229 13.1432 40.7188 13.1484C40.6146 13.1536 40.5182 13.1719 40.4297 13.2031C40.3776 13.2188 40.3151 13.2214 40.2422 13.2109C40.1745 13.2005 40.112 13.1979 40.0547 13.2031C39.987 13.2135 39.9297 13.224 39.8828 13.2344C39.8359 13.25 39.7812 13.2526 39.7188 13.2422C39.6458 13.2318 39.5651 13.2031 39.4766 13.1562C39.388 13.1146 39.3099 13.0729 39.2422 13.0312C39.2161 13.0208 39.1953 13.0078 39.1797 12.9922C39.1641 12.9714 39.1432 12.9531 39.1172 12.9375C39.0807 12.9167 39.0443 12.9036 39.0078 12.8984C38.9714 12.888 38.9375 12.8698 38.9062 12.8438C38.875 12.8177 38.8464 12.7943 38.8203 12.7734C38.7943 12.7474 38.7682 12.7214 38.7422 12.6953C38.6797 12.6536 38.6094 12.612 38.5312 12.5703C38.4583 12.5234 38.4062 12.4766 38.375 12.4297C38.3542 12.4036 38.3411 12.3698 38.3359 12.3281C38.3359 12.2812 38.3255 12.237 38.3047 12.1953C38.2943 12.1589 38.276 12.1276 38.25 12.1016C38.224 12.0755 38.2083 12.0495 38.2031 12.0234C38.1875 11.9505 38.1953 11.8698 38.2266 11.7812C38.2578 11.6927 38.2865 11.6172 38.3125 11.5547C38.4115 11.5391 38.4922 11.5495 38.5547 11.5859C38.6224 11.6172 38.6797 11.6615 38.7266 11.7188C38.7734 11.776 38.8151 11.8411 38.8516 11.9141C38.888 11.9818 38.9245 12.0417 38.9609 12.0938C39.0026 12.1615 39.0677 12.2135 39.1562 12.25C39.2448 12.2865 39.3307 12.3229 39.4141 12.3594C39.4453 12.375 39.474 12.3906 39.5 12.4062C39.5312 12.4167 39.5599 12.4271 39.5859 12.4375C39.6536 12.4635 39.7109 12.4922 39.7578 12.5234C39.8099 12.5495 39.8646 12.5651 39.9219 12.5703C39.974 12.5703 40.0234 12.5677 40.0703 12.5625C40.1224 12.5521 40.1797 12.5417 40.2422 12.5312C40.3047 12.5104 40.3672 12.5026 40.4297 12.5078C40.4922 12.5078 40.5521 12.4948 40.6094 12.4688C40.6771 12.4427 40.7161 12.4115 40.7266 12.375C40.737 12.3385 40.7604 12.2891 40.7969 12.2266C40.776 12.1276 40.7526 12.0573 40.7266 12.0156C40.7005 11.974 40.6536 11.9245 40.5859 11.8672C40.5599 11.8464 40.5286 11.8307 40.4922 11.8203C40.4609 11.8047 40.4323 11.7891 40.4062 11.7734C40.2969 11.7057 40.1771 11.638 40.0469 11.5703C39.9167 11.5026 39.7734 11.4557 39.6172 11.4297C39.5182 11.3984 39.4141 11.3568 39.3047 11.3047C39.2005 11.2474 39.125 11.1719 39.0781 11.0781C39.0625 11.0573 39.0521 11.0365 39.0469 11.0156C39.0469 10.9948 39.0417 10.9714 39.0312 10.9453C38.9896 10.8411 38.9297 10.7422 38.8516 10.6484C38.7786 10.5547 38.7292 10.4479 38.7031 10.3281C38.6927 10.2917 38.6901 10.2552 38.6953 10.2188C38.7005 10.1771 38.7057 10.138 38.7109 10.1016C38.7214 10.0651 38.7292 10.026 38.7344 9.98438C38.7396 9.94271 38.737 9.89844 38.7266 9.85156C38.7474 9.83073 38.7604 9.8099 38.7656 9.78906C38.7708 9.76823 38.7786 9.7474 38.7891 9.72656C38.8099 9.69531 38.8229 9.66406 38.8281 9.63281C38.8385 9.59635 38.862 9.5625 38.8984 9.53125C38.9349 9.5 38.9635 9.46875 38.9844 9.4375C39.0104 9.40104 39.0365 9.3724 39.0625 9.35156C39.0781 9.34115 39.0964 9.33594 39.1172 9.33594C39.138 9.33073 39.1562 9.32292 39.1719 9.3125C39.1979 9.29688 39.2214 9.27865 39.2422 9.25781C39.263 9.23177 39.2865 9.20833 39.3125 9.1875C39.4167 9.10938 39.5339 9.04427 39.6641 8.99219C39.7943 8.9349 39.9271 8.89062 40.0625 8.85938C40.0833 8.83333 40.1172 8.8125 40.1641 8.79688C40.2109 8.77604 40.2604 8.76302 40.3125 8.75781C40.3698 8.7474 40.4245 8.73958 40.4766 8.73438C40.5286 8.72917 40.5729 8.72396 40.6094 8.71875C40.7708 8.73958 40.8984 8.76562 40.9922 8.79688C41.0911 8.82812 41.1823 8.86198 41.2656 8.89844C41.3542 8.92969 41.4479 8.96094 41.5469 8.99219C41.6458 9.02344 41.7734 9.04948 41.9297 9.07031C41.9922 9.11719 42.0573 9.17448 42.125 9.24219C42.1979 9.30469 42.2604 9.375 42.3125 9.45312C42.3646 9.53125 42.401 9.61458 42.4219 9.70312C42.4479 9.78646 42.4427 9.8724 42.4062 9.96094C42.3802 10.013 42.3594 10.0729 42.3438 10.1406C42.3281 10.2031 42.3047 10.2604 42.2734 10.3125C42.2474 10.3542 42.2188 10.4036 42.1875 10.4609C42.1615 10.5182 42.1302 10.5651 42.0938 10.6016C42.0208 10.6745 41.9271 10.7266 41.8125 10.7578C41.6979 10.7891 41.5859 10.7995 41.4766 10.7891C41.4453 10.737 41.3958 10.6927 41.3281 10.6562C41.2656 10.6198 41.2005 10.5833 41.1328 10.5469C41.0703 10.5052 41.0104 10.4609 40.9531 10.4141C40.901 10.362 40.8672 10.2995 40.8516 10.2266C40.8359 10.138 40.8385 10.0443 40.8594 9.94531C40.8854 9.84635 40.9427 9.77604 41.0312 9.73438ZM46.8281 8.91406C46.8177 8.9974 46.7865 9.04948 46.7344 9.07031C46.6875 9.09115 46.638 9.11458 46.5859 9.14062C46.5495 9.16667 46.5234 9.20052 46.5078 9.24219C46.4922 9.28385 46.4714 9.3151 46.4453 9.33594C46.4193 9.36198 46.3802 9.38281 46.3281 9.39844C46.2812 9.40885 46.2422 9.41927 46.2109 9.42969C46.1224 9.45573 46.0286 9.46875 45.9297 9.46875C45.8359 9.46875 45.7526 9.47396 45.6797 9.48438C45.638 9.49479 45.5964 9.51823 45.5547 9.55469C45.513 9.59115 45.4688 9.61979 45.4219 9.64062C45.375 9.65625 45.3385 9.66927 45.3125 9.67969C45.2865 9.6901 45.263 9.70312 45.2422 9.71875C45.2266 9.73438 45.2109 9.75521 45.1953 9.78125C45.1797 9.80208 45.1589 9.83333 45.1328 9.875C45.1068 9.92188 45.0938 9.98958 45.0938 10.0781C45.0938 10.1667 45.0859 10.2396 45.0703 10.2969C45.0547 10.3438 45.0365 10.3984 45.0156 10.4609C45 10.5234 44.9818 10.5911 44.9609 10.6641C44.9505 10.7057 44.9453 10.7526 44.9453 10.8047C44.9453 10.8516 44.9401 10.8958 44.9297 10.9375C44.9141 10.9896 44.888 11.0286 44.8516 11.0547C44.8203 11.0807 44.7969 11.1276 44.7812 11.1953C44.7708 11.2266 44.7656 11.2604 44.7656 11.2969C44.7708 11.3281 44.7708 11.3594 44.7656 11.3906C44.7448 11.5156 44.7188 11.651 44.6875 11.7969C44.6615 11.9427 44.6354 12.0859 44.6094 12.2266C44.5833 12.3464 44.5547 12.4609 44.5234 12.5703C44.4974 12.6797 44.4635 12.7812 44.4219 12.875C44.3802 12.8698 44.3385 12.8828 44.2969 12.9141C44.2552 12.9401 44.2135 12.9583 44.1719 12.9688C44.1354 12.9792 44.099 12.9844 44.0625 12.9844C44.0312 12.9844 44 12.9974 43.9688 13.0234C43.9323 13.0599 43.8854 13.1068 43.8281 13.1641C43.7708 13.2266 43.7214 13.263 43.6797 13.2734C43.6432 13.2839 43.6094 13.2839 43.5781 13.2734C43.5521 13.263 43.526 13.2552 43.5 13.25C43.4583 13.25 43.4167 13.25 43.375 13.25C43.3385 13.2552 43.2943 13.2552 43.2422 13.25C43.2214 13.1979 43.2135 13.1406 43.2188 13.0781C43.224 13.0208 43.2344 12.9635 43.25 12.9062C43.2708 12.849 43.2917 12.7943 43.3125 12.7422C43.3385 12.6849 43.3568 12.6302 43.3672 12.5781C43.3776 12.5417 43.3828 12.5026 43.3828 12.4609C43.388 12.4193 43.3984 12.3776 43.4141 12.3359C43.4297 12.2891 43.4531 12.2474 43.4844 12.2109C43.5208 12.1693 43.5469 12.1224 43.5625 12.0703C43.5833 12.013 43.6094 11.9453 43.6406 11.8672C43.6719 11.7891 43.6901 11.724 43.6953 11.6719C43.7057 11.6094 43.7031 11.5495 43.6875 11.4922C43.6771 11.4349 43.6823 11.3724 43.7031 11.3047C43.7135 11.2734 43.7266 11.2474 43.7422 11.2266C43.763 11.2005 43.7786 11.1667 43.7891 11.125C43.8047 11.0677 43.8151 11.0078 43.8203 10.9453C43.8255 10.8776 43.8333 10.8125 43.8438 10.75C43.8542 10.6927 43.8646 10.638 43.875 10.5859C43.8854 10.5286 43.8984 10.4714 43.9141 10.4141C43.9297 10.3464 43.9453 10.2839 43.9609 10.2266C43.9818 10.1641 43.9974 10.1042 44.0078 10.0469C44.0234 9.98958 44.0312 9.9349 44.0312 9.88281C44.0312 9.82552 44.0156 9.76562 43.9844 9.70312C43.9531 9.64583 43.9115 9.60417 43.8594 9.57812C43.8073 9.55208 43.75 9.53646 43.6875 9.53125C43.625 9.52604 43.5573 9.52604 43.4844 9.53125C43.4115 9.53646 43.3411 9.53906 43.2734 9.53906C43.2474 9.52344 43.224 9.49479 43.2031 9.45312C43.1823 9.41146 43.1536 9.38281 43.1172 9.36719C43.0547 9.34635 42.9844 9.33594 42.9062 9.33594C42.8333 9.33594 42.7786 9.30729 42.7422 9.25C42.7109 9.17188 42.7083 9.09635 42.7344 9.02344C42.7656 8.95052 42.8021 8.89844 42.8438 8.86719C43.0365 8.83594 43.237 8.83854 43.4453 8.875C43.6536 8.90625 43.862 8.91927 44.0703 8.91406C44.1536 8.90885 44.237 8.89323 44.3203 8.86719C44.4036 8.84115 44.4896 8.84115 44.5781 8.86719C44.6042 8.8776 44.6484 8.89583 44.7109 8.92188C44.7786 8.94271 44.8255 8.95833 44.8516 8.96875C44.8776 8.97396 44.9036 8.97396 44.9297 8.96875C44.9557 8.96354 44.9818 8.96354 45.0078 8.96875C45.0495 8.96875 45.0885 8.97656 45.125 8.99219C45.1667 9.0026 45.2083 9.00781 45.25 9.00781C45.3021 9.00781 45.3385 9.00781 45.3594 9.00781C45.3854 9.0026 45.4062 8.9974 45.4219 8.99219C45.4427 8.98698 45.4635 8.98177 45.4844 8.97656C45.5052 8.96615 45.5391 8.95833 45.5859 8.95312C45.6276 8.94792 45.6693 8.95052 45.7109 8.96094C45.7526 8.97135 45.7943 8.97656 45.8359 8.97656C45.9505 8.98177 46.0599 8.96875 46.1641 8.9375C46.2734 8.90104 46.3802 8.8776 46.4844 8.86719C46.5417 8.86198 46.599 8.86198 46.6562 8.86719C46.7188 8.86719 46.776 8.88281 46.8281 8.91406ZM50.1484 9.35156C50.0078 9.41927 49.8672 9.45312 49.7266 9.45312C49.5859 9.45312 49.4297 9.44792 49.2578 9.4375C49.2109 9.4375 49.1589 9.4401 49.1016 9.44531C49.0495 9.45052 49 9.45573 48.9531 9.46094C48.7083 9.48698 48.5026 9.58073 48.3359 9.74219C48.1693 9.89844 48.0469 10.0964 47.9688 10.3359C47.9427 10.4245 47.9219 10.5052 47.9062 10.5781C47.8906 10.651 47.9245 10.6927 48.0078 10.7031C48.0599 10.7135 48.112 10.7135 48.1641 10.7031C48.2161 10.6927 48.2682 10.6797 48.3203 10.6641C48.3776 10.6432 48.4323 10.625 48.4844 10.6094C48.5365 10.5938 48.5885 10.5859 48.6406 10.5859C48.6615 10.5859 48.6797 10.5911 48.6953 10.6016C48.7161 10.612 48.737 10.6172 48.7578 10.6172C48.8464 10.6276 48.9401 10.6224 49.0391 10.6016C49.138 10.5755 49.2292 10.5729 49.3125 10.5938C49.3281 10.599 49.3411 10.6094 49.3516 10.625C49.3672 10.6354 49.388 10.6458 49.4141 10.6562C49.4818 10.6823 49.5625 10.7005 49.6562 10.7109C49.75 10.7161 49.8255 10.7318 49.8828 10.7578C49.9089 10.7682 49.9349 10.7891 49.9609 10.8203C49.987 10.8464 50 10.8646 50 10.875C50 10.9323 49.9661 10.9688 49.8984 10.9844C49.8307 11 49.7734 11.0104 49.7266 11.0156C49.6849 11.0208 49.6432 11.0208 49.6016 11.0156C49.5599 11.0104 49.5182 11.013 49.4766 11.0234C49.4036 11.0339 49.3333 11.0495 49.2656 11.0703C49.1979 11.0859 49.125 11.1068 49.0469 11.1328C48.9583 11.1641 48.875 11.2031 48.7969 11.25C48.7188 11.2917 48.6328 11.3177 48.5391 11.3281C48.4714 11.3385 48.4062 11.3385 48.3438 11.3281C48.2812 11.3177 48.2135 11.3177 48.1406 11.3281C48.1146 11.3333 48.0885 11.3411 48.0625 11.3516C48.0417 11.362 48.0182 11.3698 47.9922 11.375C47.9453 11.3854 47.9089 11.3932 47.8828 11.3984C47.862 11.3984 47.8438 11.4036 47.8281 11.4141C47.8177 11.4245 47.8047 11.4401 47.7891 11.4609C47.7786 11.4818 47.7604 11.513 47.7344 11.5547C47.6927 11.6484 47.6667 11.75 47.6562 11.8594C47.6458 11.9635 47.6354 12.0755 47.625 12.1953C47.6823 12.2526 47.737 12.2995 47.7891 12.3359C47.8411 12.3672 47.9219 12.3828 48.0312 12.3828C48.0885 12.3828 48.1328 12.3776 48.1641 12.3672C48.2005 12.3516 48.2474 12.3411 48.3047 12.3359C48.362 12.3359 48.4193 12.3411 48.4766 12.3516C48.5339 12.3568 48.599 12.3568 48.6719 12.3516C48.8229 12.3411 48.9505 12.3229 49.0547 12.2969C49.1589 12.2656 49.2865 12.2552 49.4375 12.2656C49.4688 12.2656 49.5234 12.2682 49.6016 12.2734C49.6849 12.2786 49.7682 12.2865 49.8516 12.2969C49.9349 12.3021 50.0078 12.3125 50.0703 12.3281C50.138 12.3438 50.1719 12.3646 50.1719 12.3906C50.1719 12.4219 50.151 12.4557 50.1094 12.4922C50.0729 12.5234 50.0286 12.5547 49.9766 12.5859C49.9297 12.612 49.8802 12.6354 49.8281 12.6562C49.7812 12.6719 49.75 12.6823 49.7344 12.6875C49.6458 12.7135 49.5599 12.7214 49.4766 12.7109C49.3932 12.6953 49.3021 12.6927 49.2031 12.7031C49.1302 12.7135 49.0651 12.7292 49.0078 12.75C48.9505 12.7708 48.8932 12.7943 48.8359 12.8203C48.7786 12.8411 48.7188 12.8646 48.6562 12.8906C48.599 12.9115 48.5312 12.9245 48.4531 12.9297C48.349 12.9401 48.2604 12.9531 48.1875 12.9688C48.1146 12.9792 48.0286 12.9948 47.9297 13.0156C47.888 13.026 47.849 13.0365 47.8125 13.0469C47.776 13.0625 47.737 13.0755 47.6953 13.0859C47.5443 13.1172 47.3802 13.1224 47.2031 13.1016C47.0312 13.0859 46.8438 13.0885 46.6406 13.1094C46.5104 13.125 46.3932 13.1432 46.2891 13.1641C46.1901 13.1901 46.0885 13.1979 45.9844 13.1875C45.9479 13.1823 45.9141 13.1771 45.8828 13.1719C45.8464 13.1719 45.8151 13.1589 45.7891 13.1328C45.7995 13.0911 45.8229 13.0547 45.8594 13.0234C45.8958 12.9922 45.9323 12.9635 45.9688 12.9375C46.0052 12.9062 46.0391 12.875 46.0703 12.8438C46.1068 12.8073 46.1406 12.7734 46.1719 12.7422C46.2031 12.7005 46.2292 12.651 46.25 12.5938C46.2708 12.5312 46.2891 12.4688 46.3047 12.4062C46.3255 12.3438 46.3464 12.2865 46.3672 12.2344C46.3932 12.1771 46.4245 12.1276 46.4609 12.0859C46.4193 11.9922 46.4193 11.8854 46.4609 11.7656C46.5078 11.6458 46.5495 11.5208 46.5859 11.3906C46.5964 11.3594 46.6016 11.3281 46.6016 11.2969C46.6016 11.2656 46.6068 11.237 46.6172 11.2109C46.6276 11.1589 46.651 11.1146 46.6875 11.0781C46.724 11.0365 46.7474 10.9948 46.7578 10.9531C46.763 10.9271 46.763 10.901 46.7578 10.875C46.7578 10.849 46.7604 10.8229 46.7656 10.7969C46.776 10.7188 46.7943 10.6458 46.8203 10.5781C46.8516 10.5052 46.8724 10.4401 46.8828 10.3828C46.8932 10.3411 46.8932 10.2995 46.8828 10.2578C46.8776 10.2109 46.8776 10.1667 46.8828 10.125C46.8932 10.0208 46.9141 9.92188 46.9453 9.82812C46.9818 9.73438 47.0026 9.65104 47.0078 9.57812C47.013 9.52083 47.0052 9.45833 46.9844 9.39062C46.9635 9.32292 46.9427 9.27083 46.9219 9.23438C46.9062 9.20833 46.8828 9.18229 46.8516 9.15625C46.8203 9.125 46.7891 9.09635 46.7578 9.07031C46.7266 9.04427 46.6979 9.02083 46.6719 9C46.651 8.97396 46.6406 8.95052 46.6406 8.92969C46.6458 8.8724 46.6693 8.84375 46.7109 8.84375C46.7526 8.83854 46.7917 8.82031 46.8281 8.78906C47.0156 8.79427 47.1927 8.8151 47.3594 8.85156C47.5312 8.88802 47.7083 8.91146 47.8906 8.92188C47.9583 8.93229 48.0286 8.93229 48.1016 8.92188C48.1745 8.90625 48.2448 8.89583 48.3125 8.89062C48.4219 8.88542 48.5443 8.90104 48.6797 8.9375C48.8203 8.97396 48.9583 8.98698 49.0938 8.97656C49.276 8.96615 49.4479 8.96094 49.6094 8.96094C49.7708 8.96094 49.9401 8.95573 50.1172 8.94531C50.1484 8.97135 50.1953 8.98438 50.2578 8.98438C50.3203 8.97917 50.3828 8.97396 50.4453 8.96875C50.513 8.95833 50.5729 8.95573 50.625 8.96094C50.6823 8.96615 50.7214 8.98958 50.7422 9.03125C50.7734 9.10417 50.7682 9.16667 50.7266 9.21875C50.6849 9.27083 50.6276 9.30469 50.5547 9.32031C50.5339 9.32031 50.5052 9.32292 50.4688 9.32812C50.4323 9.33333 50.3932 9.33854 50.3516 9.34375C50.3099 9.34896 50.2682 9.35156 50.2266 9.35156C50.1901 9.35156 50.1641 9.35156 50.1484 9.35156ZM50.6641 12.5312C50.7005 12.4479 50.7318 12.3698 50.7578 12.2969C50.7839 12.2188 50.8177 12.1328 50.8594 12.0391C50.8802 11.987 50.8958 11.9323 50.9062 11.875C50.9167 11.8177 50.9349 11.7604 50.9609 11.7031C50.987 11.6562 51.0182 11.6094 51.0547 11.5625C51.0964 11.5156 51.1276 11.4635 51.1484 11.4062C51.1797 11.3177 51.1823 11.2188 51.1562 11.1094C51.1302 10.9948 51.1328 10.8802 51.1641 10.7656C51.1901 10.6562 51.2188 10.5495 51.25 10.4453C51.2865 10.3359 51.3099 10.2396 51.3203 10.1562C51.3307 10.099 51.3359 10.0417 51.3359 9.98438C51.3359 9.92188 51.3411 9.85938 51.3516 9.79688C51.362 9.72917 51.3828 9.66406 51.4141 9.60156C51.4453 9.53385 51.4635 9.47135 51.4688 9.41406C51.4792 9.29427 51.4505 9.1875 51.3828 9.09375C51.3203 8.99479 51.2552 8.91146 51.1875 8.84375C51.1927 8.8125 51.2083 8.78906 51.2344 8.77344C51.2656 8.7526 51.2891 8.74479 51.3047 8.75C51.3672 8.76042 51.4375 8.78125 51.5156 8.8125C51.5938 8.84375 51.6693 8.86458 51.7422 8.875C51.8047 8.88542 51.8724 8.88542 51.9453 8.875C52.0234 8.86458 52.1042 8.86458 52.1875 8.875C52.276 8.88542 52.3828 8.89583 52.5078 8.90625C52.6328 8.91667 52.7552 8.92188 52.875 8.92188C53.0104 8.92708 53.1406 8.92448 53.2656 8.91406C53.3906 8.90365 53.513 8.90625 53.6328 8.92188C53.7214 8.93229 53.8021 8.95573 53.875 8.99219C53.9479 9.02865 54.0286 9.04167 54.1172 9.03125C54.1901 9.11458 54.2734 9.17969 54.3672 9.22656C54.4661 9.26823 54.5547 9.32292 54.6328 9.39062C54.7422 9.47917 54.8359 9.58594 54.9141 9.71094C54.9922 9.83073 55.0859 9.9349 55.1953 10.0234C55.1953 10.0651 55.2057 10.1042 55.2266 10.1406C55.2474 10.1771 55.2604 10.2188 55.2656 10.2656C55.2656 10.2917 55.2604 10.3229 55.25 10.3594C55.2396 10.3906 55.2344 10.4219 55.2344 10.4531C55.2396 10.5 55.2552 10.5391 55.2812 10.5703C55.3073 10.5964 55.3177 10.638 55.3125 10.6953C55.3073 10.8776 55.2604 11.0573 55.1719 11.2344C55.0833 11.4115 54.9948 11.5677 54.9062 11.7031C54.849 11.7083 54.8073 11.7318 54.7812 11.7734C54.7604 11.8151 54.7318 11.862 54.6953 11.9141C54.6432 11.987 54.5807 12.0495 54.5078 12.1016C54.4401 12.1484 54.3776 12.2083 54.3203 12.2812C54.2057 12.3229 54.099 12.3776 54 12.4453C53.9062 12.513 53.7995 12.5755 53.6797 12.6328C53.638 12.6536 53.5938 12.6745 53.5469 12.6953C53.5052 12.7109 53.4635 12.7292 53.4219 12.75C53.3698 12.7656 53.3203 12.7839 53.2734 12.8047C53.2266 12.8255 53.1823 12.8411 53.1406 12.8516C53.1094 12.862 53.0755 12.8646 53.0391 12.8594C53.0078 12.8542 52.9766 12.8568 52.9453 12.8672C52.8776 12.8828 52.8125 12.9115 52.75 12.9531C52.6875 12.9896 52.625 13.013 52.5625 13.0234C52.4896 13.0339 52.4167 13.0286 52.3438 13.0078C52.2708 12.987 52.2005 12.9688 52.1328 12.9531C52.0443 12.9635 51.9557 12.9688 51.8672 12.9688C51.7786 12.9635 51.6875 12.9583 51.5938 12.9531C51.5 12.9479 51.401 12.9479 51.2969 12.9531C51.1927 12.9583 51.0807 12.9714 50.9609 12.9922C50.9297 12.9974 50.8958 13.0078 50.8594 13.0234C50.8281 13.0391 50.7969 13.0495 50.7656 13.0547C50.7083 13.0651 50.6432 13.0703 50.5703 13.0703C50.5026 13.0703 50.4375 13.0703 50.375 13.0703C50.349 13.0703 50.3177 13.0677 50.2812 13.0625C50.2448 13.0625 50.2109 13.0599 50.1797 13.0547C50.1432 13.0495 50.112 13.0391 50.0859 13.0234C50.0599 13.013 50.0443 12.9974 50.0391 12.9766C50.0339 12.9453 50.0443 12.9193 50.0703 12.8984C50.0911 12.8724 50.1198 12.8516 50.1562 12.8359C50.1875 12.8151 50.2214 12.7995 50.2578 12.7891C50.2943 12.7734 50.3229 12.7604 50.3438 12.75C50.4062 12.7135 50.4609 12.6745 50.5078 12.6328C50.5495 12.5859 50.6016 12.5521 50.6641 12.5312ZM52.7422 9.50781C52.7005 9.54948 52.6693 9.59896 52.6484 9.65625C52.6328 9.71354 52.6172 9.77604 52.6016 9.84375C52.5911 9.90625 52.5807 9.97135 52.5703 10.0391C52.5599 10.1068 52.5443 10.1719 52.5234 10.2344C52.5026 10.276 52.4818 10.3177 52.4609 10.3594C52.4401 10.3958 52.4245 10.4349 52.4141 10.4766C52.388 10.5755 52.3724 10.6719 52.3672 10.7656C52.362 10.8594 52.3464 10.9583 52.3203 11.0625C52.3099 11.1198 52.2891 11.1771 52.2578 11.2344C52.2318 11.2865 52.2135 11.3411 52.2031 11.3984C52.1927 11.4557 52.1927 11.5104 52.2031 11.5625C52.2135 11.6146 52.2135 11.6693 52.2031 11.7266C52.1927 11.7682 52.1771 11.8073 52.1562 11.8438C52.1406 11.8802 52.1276 11.9193 52.1172 11.9609C52.0911 12.1016 52.1172 12.2057 52.1953 12.2734C52.2734 12.3359 52.3672 12.3802 52.4766 12.4062C52.6641 12.4479 52.8359 12.4375 52.9922 12.375C53.1536 12.3073 53.2812 12.2318 53.375 12.1484C53.4427 12.0703 53.513 11.987 53.5859 11.8984C53.6589 11.8047 53.7161 11.7031 53.7578 11.5938C53.7734 11.5521 53.7891 11.4974 53.8047 11.4297C53.8203 11.3568 53.8385 11.2865 53.8594 11.2188C53.875 11.1615 53.8932 11.1094 53.9141 11.0625C53.9401 11.0104 53.9609 10.9583 53.9766 10.9062C54.0339 10.7708 54.0547 10.6276 54.0391 10.4766C54.0286 10.3203 54.0026 10.1979 53.9609 10.1094C53.9453 10.0781 53.9193 10.0443 53.8828 10.0078C53.8516 9.97135 53.8203 9.9349 53.7891 9.89844C53.7526 9.85677 53.7188 9.8151 53.6875 9.77344C53.6615 9.73177 53.638 9.70052 53.6172 9.67969C53.5443 9.61198 53.4557 9.5651 53.3516 9.53906C53.2526 9.50781 53.1615 9.45833 53.0781 9.39062C52.9896 9.39583 52.9245 9.41146 52.8828 9.4375C52.8411 9.46354 52.7943 9.48698 52.7422 9.50781Z" fill="white"/>
<defs>
<clipPath id="clip0_539:7">
<rect width="15.5734" height="15.5734" fill="white" transform="translate(0 1.41602)"/>
</clipPath>
</defs>
</svg>
