<svg width="8" height="11" viewBox="0 0 8 11" fill="none" xmlns="http://www.w3.org/2000/svg">
<path d="M0.285876 10.606C0.372154 10.6509 0.469024 10.6714 0.566089 10.6654C0.663154 10.6594 0.756749 10.6271 0.836827 10.5719L7.77039 5.77174C7.84124 5.72266 7.89913 5.65713 7.93912 5.58078C7.97911 5.50443 8 5.41952 8 5.33333C8 5.24714 7.97911 5.16223 7.93912 5.08588C7.89913 5.00952 7.84124 4.944 7.77039 4.89491L0.836827 0.0947566C0.756811 0.0393908 0.663173 0.0069697 0.566052 0.00100364C0.468932 -0.00496242 0.37203 0.015754 0.285838 0.0609097C0.199647 0.106065 0.127451 0.17394 0.0770675 0.257183C0.026684 0.340427 3.28455e-05 0.435867 7.24456e-09 0.533171V10.1335C-1.60365e-05 10.2308 0.0266158 10.3263 0.077009 10.4096C0.127402 10.4929 0.199634 10.5609 0.285876 10.606Z" fill="#423AF2"/>
</svg>
