<svg width="30" height="30" viewBox="0 0 30 30" fill="none" xmlns="http://www.w3.org/2000/svg">
<path d="M0.329551 8.57921C0.388484 4.74855 4.55689 2.40462 7.86061 4.34442L27.5317 15.8944C29.0608 16.7923 30 18.4329 30 20.2061V24.2163C30 26.9169 27.8555 29.1295 25.1562 29.2139L5.23617 29.8364C2.38465 29.9255 0.0367005 27.6145 0.0805862 24.7619L0.329551 8.57921Z" fill="#423AF2"/>
<path d="M11.0332 15.7607C11.0332 15.7972 11.0264 15.8337 11.0127 15.8701C11.0036 15.902 10.9922 15.9316 10.9785 15.959C10.9329 16.0775 10.8851 16.1937 10.835 16.3076C10.7848 16.4215 10.7393 16.5378 10.6982 16.6562C10.5342 17.1712 10.4066 17.7477 10.3154 18.3857C10.2288 19.0192 10.1742 19.6823 10.1514 20.375C10.2562 20.3841 10.3587 20.3932 10.459 20.4023C10.5592 20.4069 10.6618 20.4092 10.7666 20.4092C10.9762 20.4092 11.2018 20.4001 11.4434 20.3818C11.6849 20.3636 11.9219 20.3408 12.1543 20.3135C12.3867 20.2816 12.6032 20.2451 12.8037 20.2041C13.0088 20.1631 13.1797 20.1198 13.3164 20.0742L13.3984 20.1562C12.9883 20.4115 12.5052 20.6074 11.9492 20.7441C11.3932 20.8809 10.7894 20.9743 10.1377 21.0244C10.1286 21.7764 10.1491 22.5169 10.1992 23.2461C10.2493 23.9798 10.3223 24.668 10.418 25.3105L10.3018 25.3652C10.1696 25.0645 10.0557 24.7409 9.95996 24.3945C9.86426 24.0482 9.77995 23.6904 9.70703 23.3213C9.63867 22.9521 9.58171 22.5762 9.53613 22.1934C9.49512 21.8105 9.46094 21.4323 9.43359 21.0586C9.34245 21.0632 9.24902 21.0654 9.15332 21.0654C9.06217 21.0654 8.96875 21.0654 8.87305 21.0654C8.79102 21.0654 8.69531 21.0632 8.58594 21.0586C8.48112 21.0495 8.38086 21.0312 8.28516 21.0039C8.18945 20.972 8.1097 20.9242 8.0459 20.8604C7.9821 20.792 7.9502 20.6986 7.9502 20.5801C7.9502 20.5026 7.96842 20.4388 8.00488 20.3887C8.0459 20.334 8.09375 20.2907 8.14844 20.2588C8.20768 20.2223 8.27148 20.1973 8.33984 20.1836C8.41276 20.1654 8.4834 20.1562 8.55176 20.1562C8.58822 20.1562 8.6224 20.1585 8.6543 20.1631C8.69076 20.1676 8.72721 20.1745 8.76367 20.1836C8.86849 20.1973 8.97331 20.2132 9.07812 20.2314C9.18294 20.2451 9.28776 20.2588 9.39258 20.2725C9.38346 20.0993 9.37891 19.9284 9.37891 19.7598C9.37891 19.5866 9.37891 19.4202 9.37891 19.2607C9.37891 19.1058 9.38118 18.9258 9.38574 18.7207C9.3903 18.5111 9.40169 18.29 9.41992 18.0576C9.44271 17.8252 9.47233 17.5928 9.50879 17.3604C9.5498 17.1234 9.60449 16.9001 9.67285 16.6904C9.74121 16.4808 9.8278 16.2939 9.93262 16.1299C10.0374 15.9658 10.165 15.8382 10.3154 15.7471C10.3929 15.7061 10.4749 15.6673 10.5615 15.6309C10.6527 15.5898 10.7393 15.5693 10.8213 15.5693C10.9626 15.5693 11.0332 15.6331 11.0332 15.7607ZM16.0029 13.7441C15.6702 13.9993 15.2829 14.2204 14.8408 14.4072C14.3988 14.5895 13.9362 14.7422 13.4531 14.8652C12.9701 14.9883 12.487 15.0794 12.0039 15.1387C11.5208 15.1979 11.0719 15.2275 10.6572 15.2275C10.5296 15.2275 10.3678 15.2207 10.1719 15.207C9.97591 15.1934 9.764 15.1729 9.53613 15.1455C9.31283 15.1182 9.08268 15.0817 8.8457 15.0361C8.60872 14.986 8.38314 14.929 8.16895 14.8652C7.95931 14.7969 7.77246 14.7171 7.6084 14.626C7.44434 14.5348 7.32129 14.4323 7.23926 14.3184C7.18913 14.2409 7.13672 14.1543 7.08203 14.0586C7.02734 13.9583 7 13.8581 7 13.7578C7 13.6302 7.07064 13.5664 7.21191 13.5664C7.24837 13.5664 7.28027 13.5687 7.30762 13.5732C7.33496 13.5778 7.36686 13.5846 7.40332 13.5938C7.5765 13.6484 7.74056 13.7054 7.89551 13.7646C8.05501 13.8239 8.21908 13.8786 8.3877 13.9287C8.93913 14.0563 9.49284 14.152 10.0488 14.2158C10.6094 14.2751 11.1745 14.3047 11.7441 14.3047C12.4368 14.3047 13.1478 14.2523 13.877 14.1475C14.6061 14.0426 15.2965 13.8672 15.9482 13.6211L16.0029 13.7441ZM18.9492 22.0225C18.8672 22.2048 18.7624 22.3688 18.6348 22.5146C18.5117 22.6605 18.3773 22.7858 18.2314 22.8906C18.0856 22.9909 17.9352 23.0684 17.7803 23.123C17.6253 23.1823 17.4772 23.2119 17.3359 23.2119C17.0716 23.2119 16.8483 23.1663 16.666 23.0752C16.4837 22.984 16.3356 22.861 16.2217 22.7061C16.1077 22.5511 16.0257 22.3688 15.9756 22.1592C15.9255 21.9495 15.9004 21.7262 15.9004 21.4893C15.9004 21.307 15.9141 21.1178 15.9414 20.9219C15.9688 20.7259 16.0075 20.5368 16.0576 20.3545C16.0667 20.3271 16.0758 20.2952 16.085 20.2588C16.0941 20.2178 16.0986 20.1836 16.0986 20.1562C16.0986 20.1335 16.085 20.1152 16.0576 20.1016C15.9801 20.0742 15.8981 20.0492 15.8115 20.0264C15.7249 19.999 15.6383 19.9694 15.5518 19.9375C15.4697 19.9056 15.39 19.8691 15.3125 19.8281C15.2396 19.7871 15.1758 19.7347 15.1211 19.6709C15.1165 19.9443 15.071 20.2223 14.9844 20.5049C14.8978 20.7829 14.7816 21.0518 14.6357 21.3115C14.4945 21.5667 14.3281 21.806 14.1367 22.0293C13.9453 22.2526 13.7425 22.4463 13.5283 22.6104L13.46 22.542C13.5921 22.3962 13.7129 22.223 13.8223 22.0225C13.9316 21.8219 14.0251 21.6123 14.1025 21.3936C14.18 21.1748 14.2393 20.9538 14.2803 20.7305C14.3258 20.5072 14.3486 20.2975 14.3486 20.1016C14.3486 20.0013 14.3395 19.9079 14.3213 19.8213C14.3031 19.7301 14.2826 19.6436 14.2598 19.5615C14.2415 19.4795 14.2233 19.402 14.2051 19.3291C14.1868 19.2516 14.1777 19.1742 14.1777 19.0967C14.1777 18.9691 14.2188 18.8688 14.3008 18.7959C14.3828 18.723 14.4876 18.6865 14.6152 18.6865C14.6836 18.6865 14.736 18.707 14.7725 18.748C14.8089 18.7845 14.8408 18.8301 14.8682 18.8848C14.8955 18.9395 14.9274 18.9964 14.9639 19.0557C15.0003 19.1149 15.0527 19.165 15.1211 19.2061C15.2077 19.2562 15.3171 19.2926 15.4492 19.3154C15.5814 19.3382 15.7204 19.3587 15.8662 19.377C16.012 19.3952 16.1579 19.4134 16.3037 19.4316C16.4495 19.4499 16.5794 19.4818 16.6934 19.5273C16.8118 19.5684 16.9076 19.6276 16.9805 19.7051C17.0534 19.778 17.0898 19.8783 17.0898 20.0059C17.0898 20.0697 17.083 20.1335 17.0693 20.1973C17.0602 20.2565 17.0443 20.3135 17.0215 20.3682C16.9668 20.5596 16.9189 20.7555 16.8779 20.9561C16.8415 21.152 16.8232 21.348 16.8232 21.5439C16.8232 21.7126 16.8346 21.8675 16.8574 22.0088C16.8848 22.1455 16.9326 22.264 17.001 22.3643C17.0693 22.4645 17.1605 22.542 17.2744 22.5967C17.3883 22.6514 17.5342 22.6787 17.7119 22.6787C17.9671 22.6787 18.1904 22.6172 18.3818 22.4941C18.5732 22.3665 18.7419 22.2002 18.8877 21.9951L18.9492 22.0225Z" fill="white"/>
</svg>
