<svg width="19" height="15" viewBox="0 0 19 15" fill="none" xmlns="http://www.w3.org/2000/svg">
<path d="M17.6712 6.31699C17.2788 6.31699 16.9589 6.00346 16.9589 5.61744C16.9589 5.23143 17.2788 4.9158 17.6712 4.9158C18.0657 4.9158 18.3856 5.23143 18.3856 5.61744C18.3856 6.00346 18.0658 6.31699 17.6712 6.31699ZM18.9871 5.23995C18.8506 3.9902 17.5645 4.49138 17.5645 4.49138C16.6518 4.83904 16.4428 4.69184 16.4428 4.69184L16.6134 2.25845C16.5174 1.12173 14.9968 1.51631 14.9968 1.51631C15.82 1.88952 15.6515 2.32669 15.6515 2.32669C15.6515 2.32669 14.7558 11.284 14.6534 11.8577C14.551 12.4314 13.7577 12.1968 13.7577 12.1968V13.1778H14.7899C15.547 13.1778 15.6153 12.1627 15.6153 12.1627L16.1207 7.40678C16.9183 7.27452 17.5432 7.09325 17.5432 7.09325C19.2366 6.5281 18.9871 5.24213 18.9871 5.24213V5.23995ZM18.07 5.61744C18.07 5.83289 17.8909 6.00774 17.6712 6.00774C17.4536 6.00774 17.2745 5.8307 17.2745 5.61744C17.2745 5.40419 17.4536 5.22505 17.6712 5.22505C17.8909 5.22505 18.07 5.3999 18.07 5.61744ZM8.33001 7.69261L10.8275 2.96232C10.8317 2.9559 10.836 2.94952 10.8403 2.94524C10.9576 2.65093 11.2305 2.43763 11.5568 2.39499C11.2348 2.40355 10.9234 2.57416 10.7634 2.87699L8.33001 7.49211V7.69471V7.69261ZM0.985051 13.0457C0.543594 12.8174 0.370838 12.2736 0.605461 11.8428L6.62386 0.618495C6.75188 0.377494 6.98217 0.221777 7.23598 0.168474C7.25087 0.164236 7.26368 0.162095 7.27648 0.157813C7.3106 0.153531 7.3511 0.147152 7.38951 0.147152C7.40445 0.147152 7.42149 0.14287 7.43429 0.14287C7.44508 0.143096 7.45581 0.144532 7.46627 0.147152C7.49402 0.147152 7.51962 0.151435 7.54732 0.155672C7.58358 0.159954 7.61985 0.166377 7.65821 0.176993C7.67315 0.179134 7.6881 0.185558 7.70299 0.191936C7.74778 0.204738 7.79042 0.221822 7.83311 0.243143C7.83739 0.245239 7.84381 0.245239 7.84381 0.249521C7.8495 0.250844 7.85468 0.253806 7.85871 0.258041C7.90778 0.281503 7.94614 0.309248 7.9845 0.34123C7.99306 0.347608 8.00158 0.351935 8.008 0.358269L8.05707 0.407334C8.04213 0.386013 8.02933 0.36041 8.01224 0.34123C8.00554 0.336401 8.00036 0.329742 7.99734 0.322049C7.96322 0.283689 7.9291 0.249521 7.88641 0.215443C7.88003 0.211116 7.87151 0.202597 7.86295 0.196218C7.82245 0.168474 7.78194 0.138633 7.73716 0.115171C7.73283 0.11303 7.72646 0.106651 7.72222 0.102369C7.7158 0.100228 7.70942 0.100228 7.70304 0.0980868C7.66249 0.0789066 7.62199 0.0597263 7.57502 0.0469246C7.55798 0.0405015 7.54304 0.0362194 7.52386 0.0298409C7.48974 0.0213659 7.45138 0.0170838 7.41511 0.0106606C7.38758 0.00641674 7.35977 0.00428434 7.33192 0.0042821C7.31912 0.0042821 7.3106 0 7.29784 0C7.28504 0 7.2701 0.0042821 7.25092 0.0042821C7.21244 0.00677758 7.17403 0.0103325 7.13575 0.0149427C7.12085 0.0191802 7.10805 0.0213213 7.09311 0.0256034C6.83507 0.0789066 6.60044 0.23672 6.46823 0.484145L0.328195 11.9387C0.0893343 12.3802 0.26209 12.9347 0.714208 13.1671C1.02555 13.3292 1.38815 13.293 1.66323 13.1117C1.44359 13.1757 1.19621 13.1608 0.978672 13.0499L0.985051 13.0457ZM7.43643 12.1414C6.94591 12.1414 6.54072 11.7447 6.54072 11.2627V4.59384L6.39142 4.87111V11.3459C6.39142 11.8386 6.80304 12.2438 7.30422 12.2438C7.5516 12.2438 7.77552 12.1457 7.94185 11.9857C7.7947 12.0839 7.62199 12.1414 7.43429 12.1414H7.43643ZM11.672 11.6679C11.1793 11.6679 10.7762 11.2712 10.7762 10.7892V6.88218L10.6333 7.16154V10.9258C10.6333 11.4291 11.0513 11.8449 11.5653 11.8449C11.9684 11.8449 12.3139 11.5847 12.4418 11.2286C12.2883 11.4909 12.0004 11.6701 11.6719 11.6701L11.672 11.6679ZM14.276 0.56943C14.276 0.56943 11.4117 1.04501 8.33001 1.55048V7.69261L10.8275 2.96232C10.8317 2.9559 10.836 2.94952 10.8403 2.94524C10.9725 2.61895 11.2945 2.38647 11.6699 2.38647C12.1625 2.38647 12.5656 2.78314 12.5656 3.26514V10.7871C12.5656 11.2712 12.1625 11.6658 11.6699 11.6658C11.1772 11.6658 10.7741 11.2691 10.7741 10.7871V6.88004L8.3962 11.3971C8.36234 11.4583 8.32075 11.5149 8.27247 11.5655C8.14454 11.9004 7.81816 12.1414 7.43429 12.1414C6.94377 12.1414 6.53862 11.7447 6.53862 11.2627V4.59384L2.20705 12.6703C1.97671 13.1011 1.42223 13.2717 0.982865 13.0435C0.541408 12.8153 0.368652 12.2715 0.603275 11.8407L5.90942 1.94287C3.36938 2.35877 1.16633 2.71703 0.880541 2.7533C0.170382 2.84287 0.0104277 3.45066 0.0104277 3.45066C0.0104277 3.45066 -0.0130346 13.0243 0.0104277 13.4998C0.031749 13.9733 0.539311 14.0629 0.539311 14.0629C0.539311 14.0629 12.5101 14.1525 13.1285 14.0629C13.7492 13.9733 13.8622 13.2759 13.8622 13.2759L15.0778 1.17508C15.0331 0.386013 14.276 0.565103 14.276 0.565103V0.56943Z" fill="#0072CF"/>
</svg>
