<svg width="18" height="18" viewBox="0 0 18 18" fill="none" xmlns="http://www.w3.org/2000/svg">
<path d="M16.2911 8.99982L17.2111 7.40982C17.3217 7.21852 17.3517 6.99114 17.2947 6.77768C17.2377 6.56421 17.0982 6.38214 16.9069 6.27149L15.3153 5.35149V3.51816C15.3153 3.29714 15.2275 3.08518 15.0712 2.9289C14.9149 2.77262 14.703 2.68482 14.4819 2.68482H12.6494L11.7303 1.09399C11.6193 0.903088 11.4375 0.763579 11.2244 0.705657C11.1187 0.677004 11.0084 0.669616 10.8998 0.68392C10.7913 0.698225 10.6866 0.733939 10.5919 0.788991L9.00027 1.70899L7.40861 0.788157C7.21721 0.677655 6.98975 0.64771 6.77627 0.704908C6.5628 0.762106 6.38078 0.901763 6.27027 1.09316L5.35027 2.68482H3.51777C3.29676 2.68482 3.0848 2.77262 2.92852 2.9289C2.77224 3.08518 2.68444 3.29714 2.68444 3.51816V5.35066L1.09277 6.27066C0.9978 6.32529 0.914557 6.39814 0.847827 6.48504C0.781097 6.57194 0.732195 6.67117 0.703931 6.77702C0.675667 6.88288 0.668597 6.99328 0.683128 7.10187C0.69766 7.21047 0.733506 7.31512 0.788607 7.40982L1.70861 8.99982L0.788607 10.5898C0.678597 10.7813 0.64875 11.0085 0.705572 11.2219C0.762394 11.4353 0.901277 11.6176 1.09194 11.729L2.68361 12.649V14.4815C2.68361 14.7025 2.7714 14.9145 2.92768 15.0707C3.08396 15.227 3.29593 15.3148 3.51694 15.3148H5.35027L6.27027 16.9065C6.34405 17.0326 6.44939 17.1373 6.57592 17.2104C6.70246 17.2835 6.84583 17.3223 6.99194 17.3232C7.13694 17.3232 7.2811 17.2848 7.40944 17.2107L8.99944 16.2907L10.5911 17.2107C10.7825 17.321 11.0098 17.3509 11.2232 17.2939C11.4366 17.2369 11.6186 17.0976 11.7294 16.9065L12.6486 15.3148H14.4811C14.7021 15.3148 14.9141 15.227 15.0704 15.0707C15.2266 14.9145 15.3144 14.7025 15.3144 14.4815V12.649L16.9061 11.729C17.0009 11.6742 17.084 11.6013 17.1506 11.5143C17.2172 11.4274 17.266 11.3282 17.2943 11.2224C17.3225 11.1166 17.3296 11.0063 17.3152 10.8978C17.3008 10.7892 17.2651 10.6846 17.2103 10.5898L16.2911 8.99982ZM6.9161 4.82482C7.24774 4.82493 7.56574 4.95678 7.80016 5.19136C8.03458 5.42593 8.16621 5.74403 8.1661 6.07566C8.16599 6.40729 8.03415 6.72529 7.79957 6.95971C7.56499 7.19413 7.2469 7.32577 6.91527 7.32566C6.58364 7.32555 6.26564 7.1937 6.03122 6.95912C5.7968 6.72455 5.66516 6.40645 5.66527 6.07482C5.66538 5.74319 5.79723 5.42519 6.03181 5.19077C6.26638 4.95635 6.58447 4.82471 6.9161 4.82482ZM7.1661 12.8248L5.83277 11.8257L10.8328 5.15899L12.1661 6.15816L7.1661 12.8248ZM11.0828 13.1582C10.9186 13.1581 10.756 13.1257 10.6043 13.0628C10.4526 12.9999 10.3148 12.9078 10.1987 12.7916C10.0826 12.6755 9.99058 12.5376 9.92779 12.3859C9.86501 12.2341 9.83272 12.0715 9.83277 11.9073C9.83283 11.7431 9.86522 11.5805 9.92811 11.4288C9.991 11.2772 10.0832 11.1393 10.1993 11.0233C10.3155 10.9072 10.4533 10.8151 10.6051 10.7523C10.7568 10.6896 10.9194 10.6573 11.0836 10.6573C11.4152 10.6574 11.7332 10.7893 11.9677 11.0239C12.2021 11.2584 12.3337 11.5765 12.3336 11.9082C12.3335 12.2398 12.2016 12.5578 11.9671 12.7922C11.7325 13.0266 11.4144 13.1583 11.0828 13.1582Z" fill="#423AF2"/>
</svg>
