<svg width="30" height="30" viewBox="0 0 30 30" fill="none" xmlns="http://www.w3.org/2000/svg">
<mask id="mask0_971_16" style="mask-type:alpha" maskUnits="userSpaceOnUse" x="0" y="0" width="30" height="30">
<rect width="30" height="30" rx="4" fill="#E1E1E1"/>
</mask>
<g mask="url(#mask0_971_16)">
<path d="M0.412214 14.0262C14.1765 9.31173 34.2999 -0.0595016 11.8721 -2.49731C-16.8779 -5.62231 31.2471 -25.6223 31.8721 6.25269C32.2418 25.1089 39.4693 10.4965 45.8217 -6.90564C48.0599 -13.5774 50.1894 -19.9491 51.8721 -24.9971C50.1894 -19.5149 48.0599 -13.0371 45.8217 -6.90564C39.4693 12.03 32.2418 33.3832 31.8721 33.7529C31.4491 34.1759 8.63726 33.4361 -7.96731 32.8198C-11.3139 32.6956 -13.0245 28.7579 -10.8379 26.2214L-1.34737 15.2122C-0.876511 14.666 -0.270016 14.2598 0.412214 14.0262Z" fill="#423AF2"/>
<path d="M13.8643 23.793C15.255 23.2461 14.9503 21.7383 14.2472 20.7852C13.5518 19.8086 12.5909 19.1367 11.6222 18.4883C10.9309 18.0526 10.3138 17.5093 9.79403 16.8789C9.57528 16.6211 9.12997 16.1445 9.58309 16.0508C10.044 15.957 10.8409 16.4102 11.2472 16.582C11.9581 16.8789 12.6612 17.2227 13.3175 17.6289L14.1065 16.3008C12.8878 15.4961 11.3253 14.7852 9.87215 14.5742C9.04403 14.4492 8.16903 14.6211 7.88778 15.5195C7.63778 16.293 8.03622 17.0742 8.48934 17.6836C9.55965 19.1133 11.2237 19.8008 12.4659 21.0352C12.7315 21.293 13.0518 21.5977 13.2081 21.957C13.3722 22.3008 13.3331 22.3242 12.9659 22.3242C11.9972 22.3242 10.7862 21.5664 9.99715 21.0664L9.20809 22.3945C10.4034 23.1289 12.4034 24.2773 13.8643 23.793ZM21.0597 13.2305L16.63 17.6602H14.8409V15.8711L19.2706 11.4336L21.0597 13.2305ZM23.7159 12.6211C23.7081 12.8555 23.4659 13.0977 23.2159 13.3398L21.2472 15.3164L20.5675 14.6367L22.5987 12.6133L22.1378 12.1523L21.6143 12.6758L19.8253 10.8867L21.505 9.20703C21.6925 9.01953 21.9972 9.01953 22.1768 9.20703L23.294 10.3242C23.4815 10.4961 23.4815 10.8086 23.294 10.9961C23.13 11.1602 22.9737 11.3164 22.9737 11.4727C22.9581 11.6289 23.1143 11.8008 23.2706 11.9336C23.4972 12.168 23.7237 12.3867 23.7159 12.6211Z" fill="white"/>
</g>
</svg>
