<svg width="32" height="32" viewBox="0 0 32 32" fill="none" xmlns="http://www.w3.org/2000/svg">
<path d="M25.3332 9.33342C25.3332 7.86675 24.1332 6.66675 22.6665 6.66675H18.6665V9.33342H22.6665V12.8668L18.0265 18.6668H13.3332V12.0001H7.99984C5.05317 12.0001 2.6665 14.3868 2.6665 17.3334V21.3334H5.33317C5.33317 23.5468 7.11984 25.3334 9.33317 25.3334C11.5465 25.3334 13.3332 23.5468 13.3332 21.3334H19.3065L25.3332 13.8001V9.33342ZM9.33317 22.6668C8.59984 22.6668 7.99984 22.0668 7.99984 21.3334H10.6665C10.6665 22.0668 10.0665 22.6668 9.33317 22.6668Z" fill="#423AF2"/>
<path d="M6.6665 8H13.3332V10.6667H6.6665V8ZM25.3332 17.3333C23.1198 17.3333 21.3332 19.12 21.3332 21.3333C21.3332 23.5467 23.1198 25.3333 25.3332 25.3333C27.5465 25.3333 29.3332 23.5467 29.3332 21.3333C29.3332 19.12 27.5465 17.3333 25.3332 17.3333ZM25.3332 22.6667C24.5998 22.6667 23.9998 22.0667 23.9998 21.3333C23.9998 20.6 24.5998 20 25.3332 20C26.0665 20 26.6665 20.6 26.6665 21.3333C26.6665 22.0667 26.0665 22.6667 25.3332 22.6667Z" fill="#423AF2"/>
</svg>
