<svg width="9" height="9" viewBox="0 0 9 9" fill="none" xmlns="http://www.w3.org/2000/svg">
<g clip-path="url(#clip0_565_1115)">
<path d="M7.98116 5.10298L5.74962 4.77867L4.75206 2.7563C4.72481 2.70093 4.67999 2.65611 4.62462 2.62886C4.48575 2.56031 4.317 2.61743 4.24756 2.7563L3.25001 4.77867L1.01846 5.10298C0.956939 5.11177 0.900689 5.14077 0.857623 5.18472C0.805558 5.23823 0.776868 5.31023 0.777857 5.38488C0.778846 5.45954 0.809432 5.53075 0.862896 5.58286L2.47745 7.15699L2.096 9.37974C2.08706 9.43145 2.09278 9.48462 2.11252 9.53324C2.13226 9.58186 2.16523 9.62398 2.20768 9.65482C2.25014 9.68565 2.30039 9.70398 2.35273 9.70771C2.40507 9.71144 2.45741 9.70043 2.50381 9.67593L4.49981 8.62652L6.49581 9.67593C6.5503 9.70494 6.61358 9.7146 6.67423 9.70406C6.82716 9.67769 6.92999 9.53267 6.90362 9.37974L6.52217 7.15699L8.13673 5.58286C8.18067 5.5398 8.20967 5.48355 8.21846 5.42202C8.24219 5.26822 8.13497 5.12583 7.98116 5.10298Z" fill="#FDFDFD"/>
</g>
<defs>
<clipPath id="clip0_565_1115">
<rect width="9" height="9" fill="white"/>
</clipPath>
</defs>
</svg>
