<svg width="49" height="16" viewBox="0 0 49 16" fill="none" xmlns="http://www.w3.org/2000/svg">
<rect x="12.6626" width="36.3371" height="15.9883" rx="3" fill="#251EBB"/>
<path d="M4.54214 2.20288L0 4.22161V7.2497C0 10.0507 1.93798 12.67 4.54214 13.3059C7.14629 12.67 9.08427 10.0507 9.08427 7.2497V4.22161L4.54214 2.20288ZM3.53277 10.2778L1.51405 8.25906L2.22565 7.54746L3.53277 8.84954L6.85863 5.52369L7.57023 6.24034L3.53277 10.2778Z" fill="#251EBB"/>
<rect x="8.80908" y="6.60645" width="4.40449" height="1.10112" fill="#251EBB"/>
<path d="M23.9658 4.86255C23.9619 4.88208 23.96 4.90356 23.96 4.927C23.96 4.94653 23.958 4.96606 23.9541 4.9856C23.9229 5.01294 23.8955 5.03052 23.8721 5.03833C23.8525 5.04614 23.835 5.06567 23.8193 5.09692C23.8076 5.11646 23.8018 5.13794 23.8018 5.16138C23.8018 5.18481 23.7959 5.2063 23.7842 5.22583C23.7725 5.25317 23.7432 5.28247 23.6963 5.31372C23.6533 5.34106 23.6221 5.35864 23.6025 5.36646C23.5791 5.37817 23.5537 5.38794 23.5264 5.39575C23.5029 5.40356 23.4795 5.41333 23.4561 5.42505C23.4209 5.44067 23.3916 5.45239 23.3682 5.46021C23.3486 5.46802 23.3271 5.47388 23.3037 5.47778C23.2803 5.47778 23.2549 5.47974 23.2275 5.48364C23.2002 5.48364 23.165 5.48755 23.1221 5.49536C23.1104 5.49536 23.1025 5.49927 23.0986 5.50708C23.0947 5.51099 23.0869 5.51685 23.0752 5.52466C23.0635 5.53247 23.0459 5.54028 23.0225 5.5481C22.999 5.552 22.9639 5.55591 22.917 5.55981C22.874 5.56372 22.8408 5.56763 22.8174 5.57153C22.7979 5.57153 22.7646 5.57544 22.7178 5.58325C22.6904 5.59106 22.665 5.60278 22.6416 5.61841C22.6182 5.63403 22.5928 5.64771 22.5654 5.65942C22.5107 5.69067 22.4697 5.72192 22.4424 5.75317C22.4189 5.78052 22.3994 5.80591 22.3838 5.82935C22.3604 5.86841 22.3486 5.91333 22.3486 5.96411C22.3525 6.01099 22.3447 6.06177 22.3252 6.11646C22.3096 6.15552 22.2842 6.19458 22.249 6.23364C22.2139 6.27271 22.1885 6.31372 22.1729 6.35669C22.1689 6.37622 22.1689 6.39771 22.1729 6.42114C22.1768 6.44458 22.1768 6.46997 22.1729 6.49731C22.165 6.5481 22.1475 6.60083 22.1201 6.65552C22.0928 6.7063 22.0693 6.76099 22.0498 6.81958C22.042 6.85083 22.0381 6.88208 22.0381 6.91333C22.042 6.94458 22.04 6.97583 22.0322 7.00708C22.0205 7.0813 22.0029 7.16138 21.9795 7.24731C21.9561 7.32935 21.9346 7.41138 21.915 7.49341C21.9072 7.54028 21.9033 7.58911 21.9033 7.63989C21.9072 7.68677 21.9033 7.72778 21.8916 7.76294C21.8838 7.7981 21.8682 7.8313 21.8447 7.86255C21.8252 7.8938 21.8057 7.927 21.7861 7.96216C21.7705 7.99341 21.7588 8.02856 21.751 8.06763C21.7471 8.10278 21.7568 8.14185 21.7803 8.18481C21.7686 8.32935 21.749 8.47583 21.7217 8.62427C21.6943 8.77271 21.6592 8.91528 21.6162 9.052C21.6045 9.09497 21.585 9.15161 21.5576 9.22192C21.5342 9.29224 21.5107 9.33716 21.4873 9.35669C21.4639 9.37622 21.4326 9.38794 21.3936 9.39185C21.3584 9.39966 21.3213 9.39966 21.2822 9.39185C21.2471 9.38403 21.2139 9.37036 21.1826 9.35083C21.1514 9.3313 21.1299 9.30786 21.1182 9.28052C21.0947 9.29614 21.0732 9.31763 21.0537 9.34497C21.0381 9.37231 21.0146 9.3938 20.9834 9.40942C20.9443 9.42896 20.9033 9.43677 20.8604 9.43286C20.8213 9.42896 20.7803 9.43677 20.7373 9.4563C20.6982 9.47192 20.6631 9.4895 20.6318 9.50903C20.6006 9.53247 20.5693 9.5481 20.5381 9.55591C20.5186 9.56372 20.499 9.56567 20.4795 9.56177C20.4639 9.56177 20.4482 9.56567 20.4326 9.57349C20.4092 9.58521 20.3916 9.60474 20.3799 9.63208C20.3682 9.65942 20.3506 9.68091 20.3271 9.69653C20.2959 9.68872 20.2607 9.68286 20.2217 9.67896C20.1826 9.67896 20.1533 9.66919 20.1338 9.64966C20.126 9.5481 20.1416 9.45825 20.1807 9.38013C20.2197 9.30591 20.249 9.23169 20.2686 9.15747C20.2842 9.1145 20.2939 9.07349 20.2979 9.03442C20.3057 8.99536 20.3135 8.95044 20.3213 8.89966C20.3369 8.84497 20.3564 8.78833 20.3799 8.72974C20.4033 8.66724 20.4209 8.60474 20.4326 8.54224C20.4443 8.49927 20.4502 8.4563 20.4502 8.41333C20.4541 8.36646 20.4639 8.32153 20.4795 8.27856C20.4873 8.24731 20.5068 8.21411 20.5381 8.17896C20.5693 8.13989 20.5928 8.09888 20.6084 8.05591C20.624 8.01294 20.6377 7.96411 20.6494 7.90942C20.6611 7.85474 20.6768 7.802 20.6963 7.75122C20.7158 7.68481 20.7432 7.62817 20.7783 7.5813C20.8174 7.53442 20.835 7.48169 20.8311 7.4231C20.8311 7.39575 20.8252 7.37427 20.8135 7.35864C20.8018 7.34302 20.7959 7.32544 20.7959 7.30591C20.792 7.27466 20.7959 7.23169 20.8076 7.177C20.8193 7.12231 20.8311 7.07349 20.8428 7.03052C20.8623 6.94849 20.8818 6.87427 20.9014 6.80786C20.9209 6.74146 20.9404 6.67505 20.96 6.60864C20.9678 6.57739 20.9736 6.5481 20.9775 6.52075C20.9854 6.4895 20.9932 6.46216 21.001 6.43872C21.0088 6.40747 21.0205 6.38208 21.0361 6.36255C21.0557 6.33911 21.0693 6.31567 21.0771 6.29224C21.085 6.26489 21.0908 6.23169 21.0947 6.19263C21.1025 6.15356 21.1123 6.11646 21.124 6.0813C21.1357 6.05396 21.1475 6.02856 21.1592 6.00513C21.1748 5.98169 21.1846 5.95825 21.1885 5.93481C21.1963 5.88403 21.1885 5.83716 21.165 5.79419C21.1455 5.75122 21.1357 5.7063 21.1357 5.65942C21.0928 5.62817 21.042 5.6106 20.9834 5.60669C20.9248 5.59888 20.8682 5.59692 20.8135 5.60083C20.7588 5.60474 20.71 5.60864 20.667 5.61255C20.624 5.61255 20.5752 5.6145 20.5205 5.61841C20.4307 5.62231 20.3525 5.63013 20.2861 5.64185C20.2197 5.65356 20.1553 5.66528 20.0928 5.677C20.0342 5.68872 19.9736 5.69849 19.9111 5.7063C19.8486 5.71021 19.7783 5.71021 19.7002 5.7063C19.708 5.66333 19.7139 5.61841 19.7178 5.57153C19.7178 5.52075 19.7236 5.47974 19.7354 5.44849C19.7588 5.42896 19.7822 5.41919 19.8057 5.41919C19.8291 5.41528 19.8545 5.41138 19.8818 5.40747C19.8662 5.38403 19.8584 5.36255 19.8584 5.34302C19.8623 5.32349 19.8662 5.30591 19.8701 5.29028C19.8779 5.27075 19.8857 5.25317 19.8936 5.23755C19.9053 5.21802 19.9131 5.20044 19.917 5.18481C19.9248 5.14575 19.9268 5.10669 19.9229 5.06763C19.9229 5.02856 19.9404 4.99731 19.9756 4.97388C20.0303 4.96997 20.0791 4.96997 20.1221 4.97388C20.165 4.97778 20.2061 4.98364 20.2451 4.99146C20.2842 4.99536 20.3232 4.99927 20.3623 5.00317C20.4053 5.00708 20.4541 5.00708 20.5088 5.00317C20.6338 4.99536 20.7354 4.9856 20.8135 4.97388C20.8955 4.96216 20.9951 4.95435 21.1123 4.95044C21.1943 4.95044 21.2725 4.95239 21.3467 4.9563C21.4248 4.9563 21.4971 4.96021 21.5635 4.96802C21.6338 4.97974 21.6846 4.9856 21.7158 4.9856C21.751 4.9856 21.7822 4.9856 21.8096 4.9856C21.8369 4.98169 21.8662 4.97778 21.8975 4.97388C21.9287 4.96997 21.9756 4.96802 22.0381 4.96802C22.1045 4.96802 22.167 4.96411 22.2256 4.9563C22.2881 4.94458 22.3525 4.94067 22.4189 4.94458C22.4932 4.94458 22.5439 4.95044 22.5713 4.96216C22.6025 4.96997 22.6279 4.97778 22.6475 4.9856C22.667 4.99341 22.6885 5.00122 22.7119 5.00903C22.7354 5.01294 22.7783 5.01099 22.8408 5.00317C22.8838 4.99536 22.9111 4.98755 22.9229 4.97974C22.9346 4.96802 22.9619 4.95825 23.0049 4.95044C23.0439 4.94653 23.083 4.94653 23.1221 4.95044C23.1611 4.95044 23.2021 4.94849 23.2451 4.94458C23.3623 4.93286 23.4795 4.91333 23.5967 4.88599C23.7178 4.85474 23.8408 4.84692 23.9658 4.86255ZM25.4307 6.24536C25.4619 6.25317 25.4932 6.25708 25.5244 6.25708C25.5557 6.25708 25.5869 6.26099 25.6182 6.2688C25.6299 6.2688 25.6416 6.27271 25.6533 6.28052C25.665 6.28833 25.6768 6.29419 25.6885 6.2981C25.7002 6.302 25.7119 6.302 25.7236 6.2981C25.7354 6.29419 25.7471 6.29419 25.7588 6.2981C25.8486 6.32153 25.9209 6.35864 25.9756 6.40942C26.0303 6.4563 26.085 6.51489 26.1396 6.58521C26.1631 6.62427 26.1924 6.67114 26.2275 6.72583C26.2627 6.77661 26.292 6.83521 26.3154 6.90161C26.3389 6.96411 26.3525 7.03052 26.3564 7.10083C26.3604 7.17114 26.3467 7.24146 26.3154 7.31177C26.3076 7.3313 26.2959 7.35669 26.2803 7.38794C26.2646 7.41528 26.249 7.44458 26.2334 7.47583C26.21 7.5188 26.1807 7.56372 26.1455 7.6106C26.1104 7.65747 26.0732 7.69067 26.0342 7.71021C26.0029 7.72974 25.9756 7.74731 25.9521 7.76294C25.9326 7.77856 25.9072 7.79419 25.876 7.80981C25.8213 7.82935 25.7666 7.85864 25.7119 7.89771C25.6611 7.93286 25.6084 7.96216 25.5537 7.9856C25.5342 7.99341 25.5127 7.99927 25.4893 8.00317C25.4697 8.00317 25.4502 8.00708 25.4307 8.01489C25.4033 8.03052 25.3818 8.052 25.3662 8.07935C25.3506 8.10669 25.3213 8.12622 25.2783 8.13794C25.376 8.16138 25.4658 8.21606 25.5479 8.302C25.6299 8.38403 25.6924 8.46997 25.7354 8.55981C25.7549 8.6145 25.7822 8.66333 25.8174 8.7063C25.8525 8.74927 25.8682 8.7981 25.8643 8.85278C25.8916 8.87622 25.9131 8.90747 25.9287 8.94653C25.9482 8.98169 25.9639 9.02075 25.9756 9.06372C25.9873 9.10669 25.9971 9.15161 26.0049 9.19849C26.0166 9.24146 26.0303 9.28052 26.0459 9.31567C26.0693 9.36646 26.0947 9.40747 26.1221 9.43872C26.1494 9.47388 26.1787 9.50513 26.21 9.53247C26.2412 9.56372 26.2725 9.59497 26.3037 9.62622C26.335 9.66138 26.3623 9.70435 26.3857 9.75513C26.4014 9.75122 26.4131 9.74536 26.4209 9.73755C26.4326 9.73364 26.4482 9.73364 26.4678 9.73755C26.5264 9.78052 26.5908 9.81372 26.6611 9.83716C26.7354 9.8606 26.8252 9.88013 26.9307 9.89575C27.0205 9.91138 27.1045 9.91528 27.1826 9.90747C27.2646 9.90356 27.3486 9.8938 27.4346 9.87817C27.4619 9.87427 27.4951 9.86255 27.5342 9.84302C27.5771 9.82739 27.6182 9.81372 27.6572 9.802C27.7002 9.79028 27.7373 9.78442 27.7686 9.78442C27.7998 9.78833 27.8154 9.80981 27.8154 9.84888C27.8154 9.87622 27.7979 9.90942 27.7627 9.94849C27.7275 9.98755 27.6963 10.0168 27.6689 10.0364C27.6025 10.0833 27.5264 10.1204 27.4404 10.1477C27.3545 10.175 27.2646 10.1965 27.1709 10.2122C27.0771 10.2317 26.9814 10.2454 26.8838 10.2532C26.7861 10.261 26.6943 10.2668 26.6084 10.2708C26.5537 10.2708 26.5029 10.261 26.4561 10.2415C26.4131 10.2258 26.374 10.2141 26.3389 10.2063C26.2607 10.1946 26.1904 10.1809 26.1279 10.1653C26.0693 10.1497 26.0127 10.1262 25.958 10.095C25.9111 10.0676 25.8701 10.0286 25.835 9.97778C25.7998 9.93091 25.751 9.90161 25.6885 9.88989C25.5869 9.80005 25.4854 9.70825 25.3838 9.6145C25.2822 9.52466 25.2021 9.41138 25.1436 9.27466C25.124 9.2395 25.1025 9.2063 25.0791 9.17505C25.0557 9.13989 25.0381 9.10278 25.0264 9.06372C25.0146 9.03638 25.0068 9.00708 25.0029 8.97583C25.0029 8.94458 24.999 8.90942 24.9912 8.87036C24.9834 8.82739 24.9717 8.78247 24.9561 8.7356C24.9404 8.68481 24.9248 8.63794 24.9092 8.59497C24.9053 8.58325 24.8994 8.57153 24.8916 8.55981C24.8838 8.5481 24.8779 8.53638 24.874 8.52466C24.8662 8.50122 24.8584 8.47388 24.8506 8.44263C24.8428 8.40747 24.8291 8.38013 24.8096 8.3606C24.79 8.34497 24.7568 8.32739 24.71 8.30786C24.667 8.28833 24.6299 8.27466 24.5986 8.26685C24.5557 8.25903 24.5127 8.26099 24.4697 8.27271C24.4307 8.28442 24.3936 8.29224 24.3584 8.29614C24.3076 8.30396 24.2588 8.30591 24.2119 8.302C24.165 8.29419 24.126 8.29614 24.0947 8.30786C24.04 8.32739 23.9951 8.37817 23.96 8.46021C23.9248 8.54224 23.9033 8.62817 23.8955 8.71802C23.8799 8.80786 23.8564 8.89575 23.8252 8.98169C23.7939 9.06372 23.7686 9.1438 23.749 9.22192C23.7334 9.27271 23.708 9.31372 23.6729 9.34497C23.6377 9.38013 23.5889 9.3938 23.5264 9.38599C23.4951 9.38208 23.4697 9.37817 23.4502 9.37427C23.4346 9.37427 23.4131 9.36646 23.3857 9.35083C23.3662 9.35864 23.3311 9.37622 23.2803 9.40356C23.2334 9.43481 23.2002 9.4563 23.1807 9.46802C23.0518 9.50708 22.9775 9.49731 22.958 9.43872C22.9424 9.38013 22.9502 9.28638 22.9814 9.15747C23.001 9.07544 23.0303 8.99536 23.0693 8.91724C23.1123 8.83911 23.1416 8.77271 23.1572 8.71802C23.165 8.68286 23.167 8.65161 23.1631 8.62427C23.1631 8.59302 23.1611 8.56372 23.1572 8.53638C23.1533 8.50903 23.1514 8.4856 23.1514 8.46606C23.1514 8.44263 23.1592 8.42114 23.1748 8.40161C23.1787 8.35864 23.1904 8.32544 23.21 8.302C23.2295 8.27466 23.2432 8.2395 23.251 8.19653C23.2588 8.15747 23.2686 8.11646 23.2803 8.07349C23.292 8.03052 23.2998 7.9895 23.3037 7.95044C23.3076 7.90356 23.3096 7.8606 23.3096 7.82153C23.3135 7.77856 23.3271 7.72974 23.3506 7.67505C23.3701 7.62427 23.3896 7.57349 23.4092 7.52271C23.4326 7.46802 23.4482 7.41528 23.4561 7.3645C23.4639 7.32544 23.4678 7.28638 23.4678 7.24731C23.4717 7.20435 23.4814 7.16333 23.4971 7.12427C23.5049 7.09302 23.5205 7.06763 23.5439 7.0481C23.5713 7.02856 23.5889 7.00317 23.5967 6.97192C23.6006 6.94849 23.5986 6.927 23.5908 6.90747C23.583 6.88794 23.583 6.86841 23.5908 6.84888C23.6143 6.77075 23.6221 6.71021 23.6143 6.66724C23.6064 6.62036 23.5928 6.58325 23.5732 6.55591C23.5576 6.52466 23.542 6.49536 23.5264 6.46802C23.5146 6.44067 23.5146 6.40356 23.5264 6.35669C23.5459 6.35278 23.5635 6.33716 23.5791 6.30981C23.5947 6.27856 23.6162 6.25903 23.6436 6.25122C23.6592 6.24731 23.6885 6.24536 23.7314 6.24536C23.7744 6.24146 23.8213 6.2395 23.8721 6.2395C23.9229 6.2356 23.9717 6.2356 24.0186 6.2395C24.0654 6.2395 24.1025 6.2395 24.1299 6.2395C24.1611 6.24341 24.2002 6.24341 24.2471 6.2395C24.2939 6.23169 24.3428 6.22778 24.3936 6.22778C24.4443 6.22388 24.4912 6.22192 24.5342 6.22192C24.5811 6.22192 24.6201 6.22974 24.6514 6.24536H25.4307ZM24.54 7.7395C24.5713 7.7395 24.6006 7.73169 24.6279 7.71606C24.6592 7.70044 24.6885 7.69653 24.7158 7.70435C24.7549 7.71216 24.7939 7.71802 24.833 7.72192C24.8721 7.72583 24.915 7.73169 24.9619 7.7395C24.9814 7.74341 25.001 7.74146 25.0205 7.73364C25.04 7.72583 25.0654 7.72388 25.0967 7.72778C25.1592 7.68091 25.2139 7.64575 25.2607 7.62231C25.3115 7.59888 25.3584 7.552 25.4014 7.48169C25.4209 7.44653 25.4424 7.41333 25.4658 7.38208C25.4893 7.34692 25.5049 7.31763 25.5127 7.29419C25.54 7.20435 25.5361 7.12817 25.501 7.06567C25.4658 6.99927 25.4326 6.94067 25.4014 6.88989C25.3623 6.8313 25.3252 6.79028 25.29 6.76685C25.2549 6.7395 25.1963 6.72974 25.1143 6.73755C25.0479 6.74146 24.9795 6.74146 24.9092 6.73755C24.8389 6.72974 24.7705 6.72778 24.7041 6.73169C24.6416 6.7356 24.585 6.74731 24.5342 6.76685C24.4834 6.78638 24.4463 6.82153 24.4229 6.87231C24.4033 6.93091 24.3799 6.99536 24.3525 7.06567C24.3252 7.13599 24.2998 7.20825 24.2764 7.28247C24.2529 7.35278 24.2334 7.42505 24.2178 7.49927C24.2021 7.57349 24.1943 7.64575 24.1943 7.71606C24.2529 7.70825 24.3115 7.71216 24.3701 7.72778C24.4287 7.7395 24.4854 7.74341 24.54 7.7395ZM29.3857 6.01099C29.417 6.0188 29.4326 6.04224 29.4326 6.0813C29.4326 6.11646 29.4404 6.1438 29.4561 6.16333C29.4951 6.13989 29.5439 6.11646 29.6025 6.09302C29.6611 6.06567 29.7275 6.05786 29.8018 6.06958C29.8213 6.11646 29.8311 6.16138 29.8311 6.20435C29.8311 6.24341 29.8271 6.28247 29.8193 6.32153C29.8115 6.3606 29.8018 6.40161 29.79 6.44458C29.7783 6.48364 29.7686 6.52661 29.7607 6.57349C29.7529 6.65161 29.7432 6.71216 29.7314 6.75513C29.7197 6.7981 29.7061 6.84888 29.6904 6.90747C29.6709 6.96997 29.6553 7.03247 29.6436 7.09497C29.6357 7.15356 29.626 7.21021 29.6143 7.26489C29.6025 7.31958 29.5869 7.37036 29.5674 7.41724C29.5479 7.46021 29.5186 7.49927 29.4795 7.53442C29.4834 7.69458 29.4639 7.85669 29.4209 8.02075C29.3818 8.18481 29.335 8.3313 29.2803 8.46021C29.2646 8.49536 29.251 8.53247 29.2393 8.57153C29.2314 8.6106 29.2217 8.6438 29.21 8.67114C29.1982 8.69458 29.1826 8.71802 29.1631 8.74146C29.1475 8.76099 29.1299 8.78247 29.1104 8.80591C29.0557 8.90747 28.9971 9.00317 28.9346 9.09302C28.876 9.17896 28.792 9.24341 28.6826 9.28638C28.6514 9.2981 28.6221 9.30786 28.5947 9.31567C28.5713 9.32349 28.5459 9.33521 28.5186 9.35083C28.4834 9.37036 28.4365 9.39771 28.3779 9.43286C28.3232 9.46802 28.2705 9.48755 28.2197 9.49146C28.1924 9.49146 28.1611 9.4856 28.126 9.47388C28.0908 9.46216 28.0576 9.4563 28.0264 9.4563C27.9912 9.4563 27.9521 9.45825 27.9092 9.46216C27.8701 9.46997 27.8311 9.47388 27.792 9.47388C27.7568 9.47388 27.7236 9.46997 27.6924 9.46216C27.6611 9.45435 27.6357 9.43481 27.6162 9.40356C27.5693 9.39575 27.5264 9.40552 27.4873 9.43286C27.4482 9.46021 27.4072 9.47388 27.3643 9.47388C27.3174 9.46997 27.2764 9.45239 27.2412 9.42114C27.21 9.38989 27.1729 9.3645 27.1299 9.34497C27.1025 9.3606 27.0771 9.36646 27.0537 9.36255C27.0303 9.36255 27.0049 9.36646 26.9775 9.37427C26.9541 9.35864 26.9307 9.34692 26.9072 9.33911C26.8838 9.33521 26.8604 9.32544 26.8369 9.30981C26.7939 9.27466 26.7607 9.22974 26.7373 9.17505C26.7178 9.11646 26.7002 9.05591 26.6846 8.99341C26.6689 8.927 26.6514 8.8645 26.6318 8.80591C26.6162 8.74341 26.5908 8.69067 26.5557 8.64771C26.5674 8.56567 26.585 8.4895 26.6084 8.41919C26.6318 8.34888 26.6572 8.28052 26.6846 8.21411C26.6963 8.16724 26.7021 8.11646 26.7021 8.06177C26.7061 8.00317 26.708 7.94653 26.708 7.89185C26.7119 7.83325 26.7178 7.77661 26.7256 7.72192C26.7334 7.66333 26.7471 7.6106 26.7666 7.56372C26.7744 7.54419 26.792 7.52466 26.8193 7.50513C26.8467 7.48169 26.8662 7.46021 26.8779 7.44067C26.8896 7.40942 26.8994 7.37427 26.9072 7.33521C26.915 7.29224 26.9229 7.25513 26.9307 7.22388C26.9385 7.1731 26.9463 7.1106 26.9541 7.03638C26.9619 6.96216 26.9678 6.89771 26.9717 6.84302C26.9795 6.74146 26.9912 6.64575 27.0068 6.55591C27.0264 6.46216 27.0713 6.39575 27.1416 6.35669C27.2002 6.34106 27.2529 6.31958 27.2998 6.29224C27.3506 6.26489 27.417 6.25903 27.499 6.27466C27.5186 6.27856 27.542 6.28638 27.5693 6.2981C27.6006 6.30591 27.6279 6.31372 27.6514 6.32153C27.7061 6.33716 27.749 6.35083 27.7803 6.36255C27.8154 6.37036 27.8369 6.40747 27.8447 6.47388C27.8486 6.49341 27.8467 6.52661 27.8389 6.57349C27.8311 6.61646 27.8213 6.65356 27.8096 6.68481C27.8018 6.70435 27.79 6.72192 27.7744 6.73755C27.7588 6.75317 27.7471 6.77075 27.7393 6.79028C27.7314 6.802 27.7275 6.81567 27.7275 6.8313C27.7314 6.84692 27.7295 6.8606 27.7217 6.87231C27.7139 6.89185 27.6982 6.9231 27.6748 6.96606C27.6514 7.00903 27.6357 7.04028 27.6279 7.05981C27.6045 7.10278 27.585 7.14771 27.5693 7.19458C27.5537 7.24146 27.5361 7.29224 27.5166 7.34692C27.4932 7.41333 27.4658 7.48755 27.4346 7.56958C27.4033 7.65161 27.3779 7.73364 27.3584 7.81567C27.3428 7.89771 27.335 7.97583 27.335 8.05005C27.335 8.12036 27.3291 8.19263 27.3174 8.26685C27.3096 8.2981 27.2998 8.32739 27.2881 8.35474C27.2764 8.38208 27.2744 8.41724 27.2822 8.46021C27.2393 8.50317 27.2256 8.54614 27.2412 8.58911C27.2568 8.63208 27.2803 8.677 27.3115 8.72388C27.335 8.74731 27.3604 8.77466 27.3877 8.80591C27.415 8.83716 27.4463 8.86646 27.4814 8.8938C27.5166 8.92114 27.5576 8.94263 27.6045 8.95825C27.6514 8.96997 27.7041 8.97192 27.7627 8.96411C27.8018 8.9563 27.8428 8.94067 27.8857 8.91724C27.9287 8.8938 27.9678 8.87231 28.0029 8.85278C28.0811 8.82153 28.1494 8.78247 28.208 8.7356C28.2666 8.68481 28.3096 8.62036 28.3369 8.54224C28.3525 8.50317 28.3604 8.46606 28.3604 8.43091C28.3643 8.39185 28.3643 8.35474 28.3604 8.31958C28.3604 8.28052 28.3604 8.24146 28.3604 8.20239C28.3643 8.15942 28.376 8.1145 28.3955 8.06763C28.415 8.02466 28.4443 7.9856 28.4834 7.95044C28.5225 7.91528 28.5479 7.87427 28.5596 7.82739C28.5674 7.80396 28.5674 7.78247 28.5596 7.76294C28.5557 7.7395 28.5537 7.71606 28.5537 7.69263C28.5537 7.63794 28.5615 7.58325 28.5771 7.52856C28.5928 7.47388 28.6104 7.41919 28.6299 7.3645C28.6533 7.30591 28.6729 7.24927 28.6885 7.19458C28.708 7.13989 28.7197 7.08521 28.7236 7.03052C28.7275 6.97974 28.7314 6.93677 28.7354 6.90161C28.7393 6.86646 28.7432 6.83521 28.7471 6.80786C28.7549 6.77661 28.7627 6.74731 28.7705 6.71997C28.7783 6.68872 28.792 6.65356 28.8115 6.6145C28.8311 6.57935 28.8486 6.54224 28.8643 6.50317C28.8799 6.46021 28.8916 6.40747 28.8994 6.34497C28.9072 6.32544 28.9111 6.302 28.9111 6.27466C28.9111 6.24341 28.917 6.21606 28.9287 6.19263C28.9443 6.15747 28.9697 6.13013 29.0049 6.1106C29.04 6.08716 29.0791 6.06958 29.1221 6.05786C29.165 6.04614 29.21 6.03833 29.2568 6.03442C29.3037 6.02661 29.3467 6.0188 29.3857 6.01099ZM31.8408 6.85474C31.876 6.87036 31.8994 6.89185 31.9111 6.91919C31.9229 6.94263 31.9307 6.96802 31.9346 6.99536C31.9424 7.02271 31.9502 7.05005 31.958 7.07739C31.9658 7.10474 31.9854 7.12622 32.0166 7.14185C32.0244 7.14966 32.0381 7.15942 32.0576 7.17114C32.0771 7.18286 32.0986 7.19653 32.1221 7.21216C32.1455 7.22388 32.167 7.2356 32.1865 7.24731C32.21 7.25513 32.2275 7.25708 32.2393 7.25317C32.2627 7.24927 32.2842 7.23169 32.3037 7.20044C32.3232 7.16919 32.3389 7.13403 32.3506 7.09497C32.3662 7.052 32.376 7.00903 32.3799 6.96606C32.3838 6.9231 32.3818 6.88794 32.374 6.8606C32.3662 6.84888 32.3447 6.83325 32.3096 6.81372C32.2744 6.79028 32.2471 6.77466 32.2275 6.76685C32.1729 6.74731 32.1221 6.72388 32.0752 6.69653C32.0283 6.66919 31.9775 6.64575 31.9229 6.62622C31.8994 6.61841 31.874 6.60669 31.8467 6.59106C31.8232 6.57153 31.7998 6.56177 31.7764 6.56177C31.7607 6.55786 31.7432 6.56177 31.7236 6.57349C31.7041 6.5813 31.6846 6.58521 31.665 6.58521C31.6416 6.58911 31.6123 6.59106 31.5771 6.59106C31.5459 6.58716 31.5127 6.58716 31.4775 6.59106C31.4424 6.59497 31.4053 6.60083 31.3662 6.60864C31.3311 6.61646 31.2998 6.63013 31.2725 6.64966C31.2217 6.69263 31.1846 6.74146 31.1611 6.79614C31.1416 6.84692 31.1143 6.90552 31.0791 6.97192C31.0713 6.98755 31.0576 7.00513 31.0381 7.02466C31.0186 7.04419 31.0088 7.06763 31.0088 7.09497C31.0088 7.1106 31.0146 7.12427 31.0264 7.13599C31.042 7.14771 31.0537 7.16528 31.0615 7.18872C31.0732 7.21216 31.0811 7.23755 31.085 7.26489C31.0889 7.28833 31.0947 7.30981 31.1025 7.32935C31.1143 7.34106 31.126 7.35278 31.1377 7.3645C31.1494 7.37231 31.1592 7.38013 31.167 7.38794C31.1787 7.39966 31.1865 7.41333 31.1904 7.42896C31.1982 7.44458 31.208 7.4563 31.2197 7.46411C31.2393 7.47583 31.2725 7.49731 31.3193 7.52856C31.3701 7.55591 31.417 7.57349 31.46 7.5813C31.5342 7.59692 31.6006 7.62231 31.6592 7.65747C31.7217 7.68872 31.7822 7.71606 31.8408 7.7395C31.8838 7.75903 31.917 7.78247 31.9404 7.80981C31.9678 7.83325 31.9912 7.85864 32.0107 7.88599C32.0303 7.90942 32.0498 7.93286 32.0693 7.9563C32.0928 7.97974 32.124 7.99731 32.1631 8.00903C32.1826 8.01685 32.2002 8.02075 32.2158 8.02075C32.2314 8.02075 32.249 8.02466 32.2686 8.03247C32.2881 8.04028 32.3076 8.05396 32.3271 8.07349C32.3467 8.08911 32.3682 8.10669 32.3916 8.12622C32.4072 8.14185 32.4209 8.15942 32.4326 8.17896C32.4482 8.19458 32.46 8.21021 32.4678 8.22583C32.4795 8.24927 32.4873 8.28052 32.4912 8.31958C32.4951 8.35474 32.4971 8.38403 32.4971 8.40747C32.501 8.50122 32.499 8.57544 32.4912 8.63013C32.4834 8.68481 32.4697 8.7356 32.4502 8.78247C32.4307 8.82935 32.4053 8.87622 32.374 8.9231C32.3467 8.96997 32.3154 9.03052 32.2803 9.10474C32.2295 9.12817 32.1768 9.15552 32.1221 9.18677C32.0674 9.21411 32.0205 9.24341 31.9814 9.27466C31.9619 9.29028 31.9346 9.30981 31.8994 9.33325C31.8643 9.35669 31.833 9.37231 31.8057 9.38013C31.751 9.39966 31.6846 9.41138 31.6064 9.41528C31.5283 9.41919 31.4561 9.43286 31.3896 9.4563C31.3506 9.46802 31.3037 9.46997 31.249 9.46216C31.1982 9.45435 31.1514 9.45239 31.1084 9.4563C31.0576 9.46411 31.0146 9.47192 30.9795 9.47974C30.9443 9.49146 30.9033 9.49341 30.8564 9.4856C30.8018 9.47778 30.7412 9.4563 30.6748 9.42114C30.6084 9.38989 30.5498 9.35864 30.499 9.32739C30.4795 9.31958 30.4639 9.30981 30.4521 9.2981C30.4404 9.28247 30.4248 9.2688 30.4053 9.25708C30.3779 9.24146 30.3506 9.23169 30.3232 9.22778C30.2959 9.21997 30.2705 9.2063 30.2471 9.18677C30.2236 9.16724 30.2021 9.14966 30.1826 9.13403C30.1631 9.1145 30.1436 9.09497 30.124 9.07544C30.0771 9.04419 30.0244 9.01294 29.9658 8.98169C29.9111 8.94653 29.8721 8.91138 29.8486 8.87622C29.833 8.85669 29.8232 8.8313 29.8193 8.80005C29.8193 8.76489 29.8115 8.73169 29.7959 8.70044C29.7881 8.6731 29.7744 8.64966 29.7549 8.63013C29.7354 8.6106 29.7236 8.59106 29.7197 8.57153C29.708 8.51685 29.7139 8.4563 29.7373 8.38989C29.7607 8.32349 29.7822 8.26685 29.8018 8.21997C29.876 8.20825 29.9365 8.21606 29.9834 8.24341C30.0342 8.26685 30.0771 8.30005 30.1123 8.34302C30.1475 8.38599 30.1787 8.43481 30.2061 8.4895C30.2334 8.54028 30.2607 8.58521 30.2881 8.62427C30.3193 8.67505 30.3682 8.71411 30.4346 8.74146C30.501 8.7688 30.5654 8.79614 30.6279 8.82349C30.6514 8.83521 30.6729 8.84692 30.6924 8.85864C30.7158 8.86646 30.7373 8.87427 30.7568 8.88208C30.8076 8.90161 30.8506 8.9231 30.8857 8.94653C30.9248 8.96606 30.9658 8.97778 31.0088 8.98169C31.0479 8.98169 31.085 8.97974 31.1201 8.97583C31.1592 8.96802 31.2021 8.96021 31.249 8.95239C31.2959 8.93677 31.3428 8.93091 31.3896 8.93481C31.4365 8.93481 31.4814 8.92505 31.5244 8.90552C31.5752 8.88599 31.6045 8.86255 31.6123 8.83521C31.6201 8.80786 31.6377 8.77075 31.665 8.72388C31.6494 8.64966 31.6318 8.59692 31.6123 8.56567C31.5928 8.53442 31.5576 8.49731 31.5068 8.45435C31.4873 8.43872 31.4639 8.427 31.4365 8.41919C31.4131 8.40747 31.3916 8.39575 31.3721 8.38403C31.29 8.33325 31.2002 8.28247 31.1025 8.23169C31.0049 8.18091 30.8975 8.14575 30.7803 8.12622C30.7061 8.10278 30.6279 8.07153 30.5459 8.03247C30.4678 7.9895 30.4111 7.93286 30.376 7.86255C30.3643 7.84692 30.3564 7.8313 30.3525 7.81567C30.3525 7.80005 30.3486 7.78247 30.3408 7.76294C30.3096 7.68481 30.2646 7.6106 30.2061 7.54028C30.1514 7.46997 30.1143 7.38989 30.0947 7.30005C30.0869 7.27271 30.085 7.24536 30.0889 7.21802C30.0928 7.18677 30.0967 7.15747 30.1006 7.13013C30.1084 7.10278 30.1143 7.07349 30.1182 7.04224C30.1221 7.01099 30.1201 6.97778 30.1123 6.94263C30.1279 6.927 30.1377 6.91138 30.1416 6.89575C30.1455 6.88013 30.1514 6.8645 30.1592 6.84888C30.1748 6.82544 30.1846 6.802 30.1885 6.77856C30.1963 6.75122 30.2139 6.72583 30.2412 6.70239C30.2686 6.67896 30.29 6.65552 30.3057 6.63208C30.3252 6.60474 30.3447 6.58325 30.3643 6.56763C30.376 6.55981 30.3896 6.55591 30.4053 6.55591C30.4209 6.552 30.4346 6.54614 30.4463 6.53833C30.4658 6.52661 30.4834 6.51294 30.499 6.49731C30.5146 6.47778 30.5322 6.46021 30.5518 6.44458C30.6299 6.38599 30.7178 6.33716 30.8154 6.2981C30.9131 6.25513 31.0127 6.22192 31.1143 6.19849C31.1299 6.17896 31.1553 6.16333 31.1904 6.15161C31.2256 6.13599 31.2627 6.12622 31.3018 6.12231C31.3447 6.1145 31.3857 6.10864 31.4248 6.10474C31.4639 6.10083 31.4971 6.09692 31.5244 6.09302C31.6455 6.10864 31.7412 6.12817 31.8115 6.15161C31.8857 6.17505 31.9541 6.20044 32.0166 6.22778C32.083 6.25122 32.1533 6.27466 32.2275 6.2981C32.3018 6.32153 32.3975 6.34106 32.5146 6.35669C32.5615 6.39185 32.6104 6.43481 32.6611 6.4856C32.7158 6.53247 32.7627 6.58521 32.8018 6.6438C32.8408 6.70239 32.8682 6.76489 32.8838 6.8313C32.9033 6.8938 32.8994 6.95825 32.8721 7.02466C32.8525 7.06372 32.8369 7.10864 32.8252 7.15942C32.8135 7.2063 32.7959 7.24927 32.7725 7.28833C32.7529 7.31958 32.7314 7.35669 32.708 7.39966C32.6885 7.44263 32.665 7.47778 32.6377 7.50513C32.583 7.55981 32.5127 7.59888 32.4268 7.62231C32.3408 7.64575 32.2568 7.65356 32.1748 7.64575C32.1514 7.60669 32.1143 7.57349 32.0635 7.54614C32.0166 7.5188 31.9678 7.49146 31.917 7.46411C31.8701 7.43286 31.8252 7.39966 31.7822 7.3645C31.7432 7.32544 31.7178 7.27856 31.7061 7.22388C31.6943 7.15747 31.6963 7.08716 31.7119 7.01294C31.7314 6.93872 31.7744 6.88599 31.8408 6.85474ZM36.1885 6.2395C36.1807 6.302 36.1572 6.34106 36.1182 6.35669C36.083 6.37231 36.0459 6.38989 36.0068 6.40942C35.9795 6.42896 35.96 6.45435 35.9482 6.4856C35.9365 6.51685 35.9209 6.54028 35.9014 6.55591C35.8818 6.57544 35.8525 6.59106 35.8135 6.60278C35.7783 6.6106 35.749 6.61841 35.7256 6.62622C35.6592 6.64575 35.5889 6.65552 35.5146 6.65552C35.4443 6.65552 35.3818 6.65942 35.3271 6.66724C35.2959 6.67505 35.2646 6.69263 35.2334 6.71997C35.2021 6.74731 35.1689 6.7688 35.1338 6.78442C35.0986 6.79614 35.0713 6.80591 35.0518 6.81372C35.0322 6.82153 35.0146 6.8313 34.999 6.84302C34.9873 6.85474 34.9756 6.87036 34.9639 6.88989C34.9521 6.90552 34.9365 6.92896 34.917 6.96021C34.8975 6.99536 34.8877 7.04614 34.8877 7.11255C34.8877 7.17896 34.8818 7.23364 34.8701 7.27661C34.8584 7.31177 34.8447 7.35278 34.8291 7.39966C34.8174 7.44653 34.8037 7.49731 34.7881 7.552C34.7803 7.58325 34.7764 7.61841 34.7764 7.65747C34.7764 7.69263 34.7725 7.72583 34.7646 7.75708C34.7529 7.79614 34.7334 7.82544 34.7061 7.84497C34.6826 7.8645 34.665 7.89966 34.6533 7.95044C34.6455 7.97388 34.6416 7.99927 34.6416 8.02661C34.6455 8.05005 34.6455 8.07349 34.6416 8.09692C34.626 8.19067 34.6064 8.29224 34.583 8.40161C34.5635 8.51099 34.5439 8.61841 34.5244 8.72388C34.5049 8.81372 34.4834 8.89966 34.46 8.98169C34.4404 9.06372 34.415 9.13989 34.3838 9.21021C34.3525 9.2063 34.3213 9.21606 34.29 9.2395C34.2588 9.25903 34.2275 9.27271 34.1963 9.28052C34.1689 9.28833 34.1416 9.29224 34.1143 9.29224C34.0908 9.29224 34.0674 9.302 34.0439 9.32153C34.0166 9.34888 33.9814 9.38403 33.9385 9.427C33.8955 9.47388 33.8584 9.50122 33.8271 9.50903C33.7998 9.51685 33.7744 9.51685 33.751 9.50903C33.7314 9.50122 33.7119 9.49536 33.6924 9.49146C33.6611 9.49146 33.6299 9.49146 33.5986 9.49146C33.5713 9.49536 33.5381 9.49536 33.499 9.49146C33.4834 9.45239 33.4775 9.40942 33.4814 9.36255C33.4854 9.31958 33.4932 9.27661 33.5049 9.23364C33.5205 9.19067 33.5361 9.14966 33.5518 9.1106C33.5713 9.06763 33.585 9.02661 33.5928 8.98755C33.6006 8.96021 33.6045 8.93091 33.6045 8.89966C33.6084 8.86841 33.6162 8.83716 33.6279 8.80591C33.6396 8.77075 33.6572 8.7395 33.6807 8.71216C33.708 8.68091 33.7275 8.64575 33.7393 8.60669C33.7549 8.56372 33.7744 8.51294 33.7979 8.45435C33.8213 8.39575 33.835 8.34692 33.8389 8.30786C33.8467 8.26099 33.8447 8.21606 33.833 8.1731C33.8252 8.13013 33.8291 8.08325 33.8447 8.03247C33.8525 8.00903 33.8623 7.9895 33.874 7.97388C33.8896 7.95435 33.9014 7.92896 33.9092 7.89771C33.9209 7.85474 33.9287 7.80981 33.9326 7.76294C33.9365 7.71216 33.9424 7.66333 33.9502 7.61646C33.958 7.57349 33.9658 7.53247 33.9736 7.49341C33.9814 7.45044 33.9912 7.40747 34.0029 7.3645C34.0146 7.31372 34.0264 7.26685 34.0381 7.22388C34.0537 7.177 34.0654 7.13208 34.0732 7.08911C34.085 7.04614 34.0908 7.00513 34.0908 6.96606C34.0908 6.9231 34.0791 6.87817 34.0557 6.8313C34.0322 6.78833 34.001 6.75708 33.9619 6.73755C33.9229 6.71802 33.8799 6.7063 33.833 6.70239C33.7861 6.69849 33.7354 6.69849 33.6807 6.70239C33.626 6.7063 33.5732 6.70825 33.5225 6.70825C33.5029 6.69653 33.4854 6.67505 33.4697 6.6438C33.4541 6.61255 33.4326 6.59106 33.4053 6.57935C33.3584 6.56372 33.3057 6.55591 33.2471 6.55591C33.1924 6.55591 33.1514 6.53442 33.124 6.49146C33.1006 6.43286 33.0986 6.37622 33.1182 6.32153C33.1416 6.26685 33.1689 6.22778 33.2002 6.20435C33.3447 6.18091 33.4951 6.18286 33.6514 6.21021C33.8076 6.23364 33.9639 6.24341 34.1201 6.2395C34.1826 6.2356 34.2451 6.22388 34.3076 6.20435C34.3701 6.18481 34.4346 6.18481 34.501 6.20435C34.5205 6.21216 34.5537 6.22583 34.6006 6.24536C34.6514 6.26099 34.6865 6.27271 34.7061 6.28052C34.7256 6.28442 34.7451 6.28442 34.7646 6.28052C34.7842 6.27661 34.8037 6.27661 34.8232 6.28052C34.8545 6.28052 34.8838 6.28638 34.9111 6.2981C34.9424 6.30591 34.9736 6.30981 35.0049 6.30981C35.0439 6.30981 35.0713 6.30981 35.0869 6.30981C35.1064 6.30591 35.1221 6.302 35.1338 6.2981C35.1494 6.29419 35.165 6.29028 35.1807 6.28638C35.1963 6.27856 35.2217 6.27271 35.2568 6.2688C35.2881 6.26489 35.3193 6.26685 35.3506 6.27466C35.3818 6.28247 35.4131 6.28638 35.4443 6.28638C35.5303 6.29028 35.6123 6.28052 35.6904 6.25708C35.7725 6.22974 35.8525 6.21216 35.9307 6.20435C35.9736 6.20044 36.0166 6.20044 36.0596 6.20435C36.1064 6.20435 36.1494 6.21606 36.1885 6.2395ZM38.6787 6.56763C38.5732 6.61841 38.4678 6.6438 38.3623 6.6438C38.2568 6.6438 38.1396 6.63989 38.0107 6.63208C37.9756 6.63208 37.9365 6.63403 37.8936 6.63794C37.8545 6.64185 37.8174 6.64575 37.7822 6.64966C37.5986 6.66919 37.4443 6.7395 37.3193 6.8606C37.1943 6.97778 37.1025 7.12622 37.0439 7.30591C37.0244 7.37231 37.0088 7.43286 36.9971 7.48755C36.9854 7.54224 37.0107 7.57349 37.0732 7.5813C37.1123 7.58911 37.1514 7.58911 37.1904 7.5813C37.2295 7.57349 37.2686 7.56372 37.3076 7.552C37.3506 7.53638 37.3916 7.52271 37.4307 7.51099C37.4697 7.49927 37.5088 7.49341 37.5479 7.49341C37.5635 7.49341 37.5771 7.49731 37.5889 7.50513C37.6045 7.51294 37.6201 7.51685 37.6357 7.51685C37.7021 7.52466 37.7725 7.52075 37.8467 7.50513C37.9209 7.4856 37.9893 7.48364 38.0518 7.49927C38.0635 7.50317 38.0732 7.51099 38.0811 7.52271C38.0928 7.53052 38.1084 7.53833 38.1279 7.54614C38.1787 7.56567 38.2393 7.57935 38.3096 7.58716C38.3799 7.59106 38.4365 7.60278 38.4795 7.62231C38.499 7.63013 38.5186 7.64575 38.5381 7.66919C38.5576 7.68872 38.5674 7.70239 38.5674 7.71021C38.5674 7.75317 38.542 7.78052 38.4912 7.79224C38.4404 7.80396 38.3975 7.81177 38.3623 7.81567C38.3311 7.81958 38.2998 7.81958 38.2686 7.81567C38.2373 7.81177 38.2061 7.81372 38.1748 7.82153C38.1201 7.82935 38.0674 7.84106 38.0166 7.85669C37.9658 7.86841 37.9111 7.88403 37.8525 7.90356C37.7861 7.927 37.7236 7.9563 37.665 7.99146C37.6064 8.02271 37.542 8.04224 37.4717 8.05005C37.4209 8.05786 37.3721 8.05786 37.3252 8.05005C37.2783 8.04224 37.2275 8.04224 37.1729 8.05005C37.1533 8.05396 37.1338 8.05981 37.1143 8.06763C37.0986 8.07544 37.0811 8.0813 37.0615 8.08521C37.0264 8.09302 36.999 8.09888 36.9795 8.10278C36.9639 8.10278 36.9502 8.10669 36.9385 8.1145C36.9307 8.12231 36.9209 8.13403 36.9092 8.14966C36.9014 8.16528 36.8877 8.18872 36.8682 8.21997C36.8369 8.29028 36.8174 8.36646 36.8096 8.44849C36.8018 8.52661 36.7939 8.6106 36.7861 8.70044C36.8291 8.74341 36.8701 8.77856 36.9092 8.80591C36.9482 8.82935 37.0088 8.84106 37.0908 8.84106C37.1338 8.84106 37.167 8.83716 37.1904 8.82935C37.2178 8.81763 37.2529 8.80981 37.2959 8.80591C37.3389 8.80591 37.3818 8.80981 37.4248 8.81763C37.4678 8.82153 37.5166 8.82153 37.5713 8.81763C37.6846 8.80981 37.7803 8.79614 37.8584 8.77661C37.9365 8.75317 38.0322 8.74536 38.1455 8.75317C38.1689 8.75317 38.21 8.75513 38.2686 8.75903C38.3311 8.76294 38.3936 8.7688 38.4561 8.77661C38.5186 8.78052 38.5732 8.78833 38.6201 8.80005C38.6709 8.81177 38.6963 8.82739 38.6963 8.84692C38.6963 8.87036 38.6807 8.89575 38.6494 8.9231C38.6221 8.94653 38.5889 8.96997 38.5498 8.99341C38.5146 9.01294 38.4775 9.03052 38.4385 9.04614C38.4033 9.05786 38.3799 9.06567 38.3682 9.06958C38.3018 9.08911 38.2373 9.09497 38.1748 9.08716C38.1123 9.07544 38.0439 9.07349 37.9697 9.0813C37.915 9.08911 37.8662 9.10083 37.8232 9.11646C37.7803 9.13208 37.7373 9.14966 37.6943 9.16919C37.6514 9.18481 37.6064 9.20239 37.5596 9.22192C37.5166 9.23755 37.4658 9.24731 37.4072 9.25122C37.3291 9.25903 37.2627 9.2688 37.208 9.28052C37.1533 9.28833 37.0889 9.30005 37.0146 9.31567C36.9834 9.32349 36.9541 9.3313 36.9268 9.33911C36.8994 9.35083 36.8701 9.3606 36.8389 9.36841C36.7256 9.39185 36.6025 9.39575 36.4697 9.38013C36.3408 9.36841 36.2002 9.37036 36.0479 9.38599C35.9502 9.39771 35.8623 9.41138 35.7842 9.427C35.71 9.44653 35.6338 9.45239 35.5557 9.44458C35.5283 9.44067 35.5029 9.43677 35.4795 9.43286C35.4521 9.43286 35.4287 9.4231 35.4092 9.40356C35.417 9.37231 35.4346 9.34497 35.4619 9.32153C35.4893 9.2981 35.5166 9.27661 35.5439 9.25708C35.5713 9.23364 35.5967 9.21021 35.6201 9.18677C35.6475 9.15942 35.6729 9.13403 35.6963 9.1106C35.7197 9.07935 35.7393 9.04224 35.7549 8.99927C35.7705 8.95239 35.7842 8.90552 35.7959 8.85864C35.8115 8.81177 35.8271 8.7688 35.8428 8.72974C35.8623 8.68677 35.8857 8.64966 35.9131 8.61841C35.8818 8.5481 35.8818 8.46802 35.9131 8.37817C35.9482 8.28833 35.9795 8.19458 36.0068 8.09692C36.0146 8.07349 36.0186 8.05005 36.0186 8.02661C36.0186 8.00317 36.0225 7.98169 36.0303 7.96216C36.0381 7.9231 36.0557 7.88989 36.083 7.86255C36.1104 7.8313 36.1279 7.80005 36.1357 7.7688C36.1396 7.74927 36.1396 7.72974 36.1357 7.71021C36.1357 7.69067 36.1377 7.67114 36.1416 7.65161C36.1494 7.59302 36.1631 7.53833 36.1826 7.48755C36.2061 7.43286 36.2217 7.38403 36.2295 7.34106C36.2373 7.30981 36.2373 7.27856 36.2295 7.24731C36.2256 7.21216 36.2256 7.17896 36.2295 7.14771C36.2373 7.06958 36.2529 6.99536 36.2764 6.92505C36.3037 6.85474 36.3193 6.79224 36.3232 6.73755C36.3271 6.69458 36.3213 6.64771 36.3057 6.59692C36.29 6.54614 36.2744 6.50708 36.2588 6.47974C36.2471 6.46021 36.2295 6.44067 36.2061 6.42114C36.1826 6.39771 36.1592 6.37622 36.1357 6.35669C36.1123 6.33716 36.0908 6.31958 36.0713 6.30396C36.0557 6.28442 36.0479 6.26685 36.0479 6.25122C36.0518 6.20825 36.0693 6.18677 36.1006 6.18677C36.1318 6.18286 36.1611 6.16919 36.1885 6.14575C36.3291 6.14966 36.4619 6.16528 36.5869 6.19263C36.7158 6.21997 36.8486 6.23755 36.9854 6.24536C37.0361 6.25317 37.0889 6.25317 37.1436 6.24536C37.1982 6.23364 37.251 6.22583 37.3018 6.22192C37.3838 6.21802 37.4756 6.22974 37.5771 6.25708C37.6826 6.28442 37.7861 6.29419 37.8877 6.28638C38.0244 6.27856 38.1533 6.27466 38.2744 6.27466C38.3955 6.27466 38.5225 6.27075 38.6553 6.26294C38.6787 6.28247 38.7139 6.29224 38.7607 6.29224C38.8076 6.28833 38.8545 6.28442 38.9014 6.28052C38.9521 6.27271 38.9971 6.27075 39.0361 6.27466C39.0791 6.27856 39.1084 6.29614 39.124 6.32739C39.1475 6.38208 39.1436 6.42896 39.1123 6.46802C39.0811 6.50708 39.0381 6.53247 38.9834 6.54419C38.9678 6.54419 38.9463 6.54614 38.9189 6.55005C38.8916 6.55396 38.8623 6.55786 38.8311 6.56177C38.7998 6.56567 38.7686 6.56763 38.7373 6.56763C38.71 6.56763 38.6904 6.56763 38.6787 6.56763ZM39.0654 8.95239C39.0928 8.88989 39.1162 8.8313 39.1357 8.77661C39.1553 8.71802 39.1807 8.65356 39.2119 8.58325C39.2275 8.54419 39.2393 8.50317 39.2471 8.46021C39.2549 8.41724 39.2686 8.37427 39.2881 8.3313C39.3076 8.29614 39.3311 8.26099 39.3584 8.22583C39.3896 8.19067 39.4131 8.15161 39.4287 8.10864C39.4521 8.04224 39.4541 7.96802 39.4346 7.88599C39.415 7.80005 39.417 7.71411 39.4404 7.62817C39.46 7.54614 39.4814 7.46606 39.5049 7.38794C39.5322 7.30591 39.5498 7.23364 39.5576 7.17114C39.5654 7.12817 39.5693 7.08521 39.5693 7.04224C39.5693 6.99536 39.5732 6.94849 39.5811 6.90161C39.5889 6.85083 39.6045 6.802 39.6279 6.75513C39.6514 6.70435 39.665 6.65747 39.6689 6.6145C39.6768 6.52466 39.6553 6.44458 39.6045 6.37427C39.5576 6.30005 39.5088 6.23755 39.458 6.18677C39.4619 6.16333 39.4736 6.14575 39.4932 6.13403C39.5166 6.11841 39.5342 6.11255 39.5459 6.11646C39.5928 6.12427 39.6455 6.13989 39.7041 6.16333C39.7627 6.18677 39.8193 6.20239 39.874 6.21021C39.9209 6.21802 39.9717 6.21802 40.0264 6.21021C40.085 6.20239 40.1455 6.20239 40.208 6.21021C40.2744 6.21802 40.3545 6.22583 40.4482 6.23364C40.542 6.24146 40.6338 6.24536 40.7236 6.24536C40.8252 6.24927 40.9229 6.24731 41.0166 6.2395C41.1104 6.23169 41.2021 6.23364 41.292 6.24536C41.3584 6.25317 41.4189 6.27075 41.4736 6.2981C41.5283 6.32544 41.5889 6.33521 41.6553 6.32739C41.71 6.38989 41.7725 6.43872 41.8428 6.47388C41.917 6.50513 41.9834 6.54614 42.042 6.59692C42.124 6.66333 42.1943 6.74341 42.2529 6.83716C42.3115 6.927 42.3818 7.00513 42.4639 7.07153C42.4639 7.10278 42.4717 7.13208 42.4873 7.15942C42.5029 7.18677 42.5127 7.21802 42.5166 7.25317C42.5166 7.27271 42.5127 7.29614 42.5049 7.32349C42.4971 7.34692 42.4932 7.37036 42.4932 7.3938C42.4971 7.42896 42.5088 7.45825 42.5283 7.48169C42.5479 7.50122 42.5557 7.53247 42.5518 7.57544C42.5479 7.71216 42.5127 7.84692 42.4463 7.97974C42.3799 8.11255 42.3135 8.22974 42.2471 8.3313C42.2041 8.33521 42.1729 8.35278 42.1533 8.38403C42.1377 8.41528 42.1162 8.45044 42.0889 8.4895C42.0498 8.54419 42.0029 8.59106 41.9482 8.63013C41.8975 8.66528 41.8506 8.71021 41.8076 8.76489C41.7217 8.79614 41.6416 8.83716 41.5674 8.88794C41.4971 8.93872 41.417 8.9856 41.3271 9.02856C41.2959 9.04419 41.2627 9.05981 41.2275 9.07544C41.1963 9.08716 41.165 9.10083 41.1338 9.11646C41.0947 9.12817 41.0576 9.14185 41.0225 9.15747C40.9873 9.1731 40.9541 9.18481 40.9229 9.19263C40.8994 9.20044 40.874 9.20239 40.8467 9.19849C40.8232 9.19458 40.7998 9.19653 40.7764 9.20435C40.7256 9.21606 40.6768 9.23755 40.6299 9.2688C40.583 9.29614 40.5361 9.31372 40.4893 9.32153C40.4346 9.32935 40.3799 9.32544 40.3252 9.30981C40.2705 9.29419 40.2178 9.28052 40.167 9.2688C40.1006 9.27661 40.0342 9.28052 39.9678 9.28052C39.9014 9.27661 39.833 9.27271 39.7627 9.2688C39.6924 9.26489 39.6182 9.26489 39.54 9.2688C39.4619 9.27271 39.3779 9.28247 39.2881 9.2981C39.2646 9.302 39.2393 9.30981 39.2119 9.32153C39.1885 9.33325 39.165 9.34106 39.1416 9.34497C39.0986 9.35278 39.0498 9.35669 38.9951 9.35669C38.9443 9.35669 38.8955 9.35669 38.8486 9.35669C38.8291 9.35669 38.8057 9.35474 38.7783 9.35083C38.751 9.35083 38.7256 9.34888 38.7021 9.34497C38.6748 9.34106 38.6514 9.33325 38.6318 9.32153C38.6123 9.31372 38.6006 9.302 38.5967 9.28638C38.5928 9.26294 38.6006 9.24341 38.6201 9.22778C38.6357 9.20825 38.6572 9.19263 38.6846 9.18091C38.708 9.16528 38.7334 9.15356 38.7607 9.14575C38.7881 9.13403 38.8096 9.12427 38.8252 9.11646C38.8721 9.08911 38.9131 9.05981 38.9482 9.02856C38.9795 8.99341 39.0186 8.96802 39.0654 8.95239ZM40.624 6.68481C40.5928 6.71606 40.5693 6.75317 40.5537 6.79614C40.542 6.83911 40.5303 6.88599 40.5186 6.93677C40.5107 6.98364 40.5029 7.03247 40.4951 7.08325C40.4873 7.13403 40.4756 7.18286 40.46 7.22974C40.4443 7.26099 40.4287 7.29224 40.4131 7.32349C40.3975 7.35083 40.3857 7.38013 40.3779 7.41138C40.3584 7.4856 40.3467 7.55786 40.3428 7.62817C40.3389 7.69849 40.3271 7.77271 40.3076 7.85083C40.2998 7.8938 40.2842 7.93677 40.2607 7.97974C40.2412 8.0188 40.2275 8.05981 40.2197 8.10278C40.2119 8.14575 40.2119 8.18677 40.2197 8.22583C40.2275 8.26489 40.2275 8.30591 40.2197 8.34888C40.2119 8.38013 40.2002 8.40942 40.1846 8.43677C40.1729 8.46411 40.1631 8.49341 40.1553 8.52466C40.1357 8.63013 40.1553 8.70825 40.2139 8.75903C40.2725 8.80591 40.3428 8.83911 40.4248 8.85864C40.5654 8.88989 40.6943 8.88208 40.8115 8.83521C40.9326 8.78442 41.0283 8.72778 41.0986 8.66528C41.1494 8.60669 41.2021 8.54419 41.2568 8.47778C41.3115 8.40747 41.3545 8.3313 41.3857 8.24927C41.3975 8.21802 41.4092 8.177 41.4209 8.12622C41.4326 8.07153 41.4463 8.0188 41.4619 7.96802C41.4736 7.92505 41.4873 7.88599 41.5029 7.85083C41.5225 7.81177 41.5381 7.77271 41.5498 7.73364C41.5928 7.63208 41.6084 7.52466 41.5967 7.41138C41.5889 7.29419 41.5693 7.20239 41.5381 7.13599C41.5264 7.11255 41.5068 7.08716 41.4795 7.05981C41.4561 7.03247 41.4326 7.00513 41.4092 6.97778C41.3818 6.94653 41.3564 6.91528 41.333 6.88403C41.3135 6.85278 41.2959 6.82935 41.2803 6.81372C41.2256 6.76294 41.1592 6.72778 41.0811 6.70825C41.0068 6.68481 40.9385 6.64771 40.876 6.59692C40.8096 6.60083 40.7607 6.61255 40.7295 6.63208C40.6982 6.65161 40.6631 6.66919 40.624 6.68481Z" fill="white"/>
</svg>
