<svg width="1347" height="340" viewBox="0 0 1347 340" fill="none" xmlns="http://www.w3.org/2000/svg">
<g clip-path="url(#clip0)">
<rect width="1347" height="340" fill="url(#paint0_linear)"/>
<g filter="url(#filter0_f)">
<ellipse cx="988" cy="151" rx="212" ry="210" fill="url(#paint1_linear)"/>
</g>
<g filter="url(#filter1_f)">
<ellipse cx="198" cy="303" rx="212" ry="210" fill="url(#paint2_linear)"/>
</g>
<g filter="url(#filter2_f)">
<path d="M900 380C900 495.98 805.084 590 688 590C570.916 590 476 495.98 476 380C476 264.02 570.916 170 688 170C805.084 170 900 264.02 900 380Z" fill="url(#paint3_linear)" fill-opacity="0.6"/>
</g>
</g>
<defs>
<filter id="filter0_f" x="660" y="-175" width="656" height="652" filterUnits="userSpaceOnUse" color-interpolation-filters="sRGB">
<feFlood flood-opacity="0" result="BackgroundImageFix"/>
<feBlend mode="normal" in="SourceGraphic" in2="BackgroundImageFix" result="shape"/>
<feGaussianBlur stdDeviation="58" result="effect1_foregroundBlur"/>
</filter>
<filter id="filter1_f" x="-130" y="-23" width="656" height="652" filterUnits="userSpaceOnUse" color-interpolation-filters="sRGB">
<feFlood flood-opacity="0" result="BackgroundImageFix"/>
<feBlend mode="normal" in="SourceGraphic" in2="BackgroundImageFix" result="shape"/>
<feGaussianBlur stdDeviation="58" result="effect1_foregroundBlur"/>
</filter>
<filter id="filter2_f" x="360" y="54" width="656" height="652" filterUnits="userSpaceOnUse" color-interpolation-filters="sRGB">
<feFlood flood-opacity="0" result="BackgroundImageFix"/>
<feBlend mode="normal" in="SourceGraphic" in2="BackgroundImageFix" result="shape"/>
<feGaussianBlur stdDeviation="58" result="effect1_foregroundBlur"/>
</filter>
<linearGradient id="paint0_linear" x1="76" y1="8.37013e-05" x2="1320.5" y2="340" gradientUnits="userSpaceOnUse">
<stop stop-color="#A82FF9" stop-opacity="0.71"/>
<stop offset="1" stop-color="#251EBB" stop-opacity="0.75"/>
</linearGradient>
<linearGradient id="paint1_linear" x1="961" y1="120" x2="988" y2="361" gradientUnits="userSpaceOnUse">
<stop stop-color="#423AF2" stop-opacity="0.66"/>
<stop offset="1" stop-color="#A82FF9" stop-opacity="0.74"/>
</linearGradient>
<linearGradient id="paint2_linear" x1="171" y1="272" x2="198" y2="513" gradientUnits="userSpaceOnUse">
<stop stop-color="#423AF2" stop-opacity="0.66"/>
<stop offset="1" stop-color="#A82FF9" stop-opacity="0.74"/>
</linearGradient>
<linearGradient id="paint3_linear" x1="661" y1="349" x2="688" y2="590" gradientUnits="userSpaceOnUse">
<stop stop-color="#423AF2" stop-opacity="0.66"/>
<stop offset="1" stop-color="#A82FF9" stop-opacity="0.74"/>
</linearGradient>
<clipPath id="clip0">
<rect width="1347" height="340" fill="white"/>
</clipPath>
</defs>
</svg>
