<svg width="142" height="140" viewBox="0 0 142 140" fill="none" xmlns="http://www.w3.org/2000/svg">
<path d="M68.5437 1.29294L42.5808 13.4295C40.3736 14.4607 39.0183 16.8127 39.1783 19.3275C39.6295 26.3916 41.341 40.8724 47.8215 51.6748C55.9959 65.3008 66.1461 68.8668 69.6992 69.7299C70.5564 69.9367 71.4441 69.9367 72.3008 69.7299C75.8533 68.8668 86.0041 65.3008 94.1785 51.6748C100.66 40.873 102.37 26.391 102.822 19.3275C102.982 16.8127 101.625 14.4607 99.4191 13.4295L73.4562 1.29294C71.8941 0.561694 70.1052 0.561694 68.5437 1.29294Z" fill="#5F58FC"/>
<path d="M57.6033 59.7349C57.3069 59.7349 57.0104 59.6236 56.7824 59.3998C54.2108 56.8755 51.8723 53.8703 49.8315 50.4689C45.2682 42.8634 43.2022 33.3074 42.2723 26.6295C42.1832 25.9884 42.6303 25.3966 43.2713 25.3076C43.9135 25.2127 44.5041 25.665 44.5938 26.3066C45.4938 32.7677 47.4813 41.9951 51.8412 49.2625C53.7801 52.4945 55.9949 55.3422 58.4242 57.7263C58.8865 58.1798 58.893 58.9216 58.4395 59.3839C58.2104 59.6177 57.9069 59.7349 57.6033 59.7349ZM42.8957 22.982C42.2969 22.982 41.7859 22.5256 41.7303 21.9174L41.6963 21.5394C41.6406 20.8943 42.1188 20.3271 42.7633 20.2715C43.4037 20.207 43.9756 20.6933 44.0313 21.3379L44.0641 21.7029C44.1233 22.3474 43.6486 22.9175 43.0041 22.9767C42.9678 22.9802 42.9315 22.982 42.8957 22.982Z" fill="url(#paint0_linear)"/>
<path d="M99.4191 13.4295L89.3199 8.70856C90.5381 9.9191 91.2184 11.6494 91.1029 13.4681C90.6512 20.5316 88.9408 35.0136 82.4598 45.8154C74.2854 59.4414 64.1352 63.0074 60.582 63.8705C59.8572 64.0457 59.1113 64.0632 58.3789 63.9419C63.2674 67.7857 67.6168 69.2242 69.6992 69.7298C70.5564 69.9367 71.4441 69.9367 72.3008 69.7298C75.8533 68.8668 86.0041 65.3001 94.1785 51.6748C100.66 40.8724 102.371 26.391 102.822 19.3275C102.982 16.8127 101.625 14.4607 99.4191 13.4295Z" fill="#615AF8"/>
<path d="M99.4189 13.4295L94.7449 11.2445C96.2355 12.4539 97.0916 14.3728 96.9627 16.3978C96.5109 23.4613 94.8006 37.9433 88.3195 48.7451C80.1451 62.3711 69.9949 65.9371 66.4418 66.8002C65.5852 67.007 64.6975 67.007 63.8402 66.8002C63.1957 66.6437 62.3314 66.3965 61.3037 66.0179C64.9564 68.3377 68.0443 69.3279 69.6996 69.7299C70.5568 69.9367 71.4445 69.9367 72.3012 69.7299C75.8537 68.8668 86.0045 65.3002 94.1789 51.6748C100.66 40.8724 102.371 26.391 102.822 19.3275C102.981 16.8127 101.625 14.4607 99.4189 13.4295Z" fill="#423AF2"/>
<path d="M69.2717 11.3681L50.9975 19.9105C49.4436 20.6365 48.4902 22.2918 48.6021 24.0619C48.9197 29.0341 50.1244 39.2265 54.6859 46.8296C60.4398 56.4203 67.5836 58.9304 70.0844 59.538C70.6879 59.6839 71.3125 59.6839 71.9154 59.538C74.4162 58.9304 81.5605 56.4203 87.3139 46.8296C91.8754 39.2265 93.0795 29.0336 93.3977 24.0619C93.5102 22.2918 92.5557 20.6365 91.0023 19.9105L72.7287 11.3681C71.6295 10.8543 70.3703 10.8543 69.2717 11.3681Z" fill="#F1F2F2"/>
<path d="M91.0029 19.9105L80.5955 15.0455C81.3408 15.8839 81.7545 17.0136 81.6789 18.2025C81.3613 23.1742 80.1572 33.3672 75.5951 40.9703C69.8412 50.5609 62.6975 53.0711 60.1967 53.6781C60.1609 53.6869 60.1246 53.6898 60.0889 53.6974C64.3158 57.7539 68.3354 59.1127 70.0838 59.5375C70.6873 59.6834 71.3119 59.6834 71.9148 59.5375C74.4156 58.9299 81.56 56.4197 87.3133 46.8297C91.8748 39.2265 93.0789 29.0336 93.3971 24.0619C93.5102 22.2923 92.5557 20.6365 91.0029 19.9105Z" fill="#E6E7E8"/>
<path d="M69.7932 47.0377C69.066 47.0377 68.3617 46.767 67.8197 46.273L59.4139 38.6113C58.218 37.5215 58.1318 35.6687 59.2223 34.4728C60.3115 33.2769 62.1648 33.1908 63.3607 34.2812L69.3971 39.7832L79.45 26.5322C80.4273 25.2437 82.2654 24.9912 83.5551 25.9691C84.8435 26.947 85.0961 28.7851 84.1182 30.0742L72.1269 45.8799C71.6295 46.5349 70.8795 46.9515 70.0603 47.0265C69.9713 47.0336 69.8822 47.0377 69.7932 47.0377Z" fill="#A82FF9"/>
<path d="M84.5673 95.5199C85.5646 95.1554 86.4446 94.4541 87.0165 93.4626L90.2644 87.8371C90.4261 87.557 90.33 87.1984 90.0499 87.0367L66.1454 73.2355C63.3429 71.6177 59.7593 72.5775 58.1415 75.38L56.0269 79.0421L84.5673 95.5199Z" fill="#FCC4AE"/>
<path d="M101.205 70.2472L55.9395 96.3818L76.1156 131.328L95.4996 120.137C99.2455 117.974 102.342 114.845 104.466 111.077L119.7 102.282L101.205 70.2472Z" fill="#F2AD97"/>
<path d="M102.782 108.162L118.016 99.3667L119.697 102.279L104.464 111.074L102.782 108.162Z" fill="#E59076"/>
<path d="M126.388 104.488L141.313 95.8709L117.563 54.7363L102.638 63.3531C100.397 64.6474 99.6283 67.5144 100.923 69.7562L119.984 102.772C121.279 105.014 124.146 105.782 126.388 104.488Z" fill="#423AF2"/>
<path d="M102.638 63.3531L102.947 63.175L119.461 91.7787C120.39 93.3871 122.447 93.9379 124.055 93.0097L135.759 86.2521L141.313 95.8709L126.388 104.488C124.146 105.782 121.279 105.014 119.984 102.772L100.923 69.7562C99.6283 67.5144 100.397 64.6474 102.638 63.3531Z" fill="#423AF2"/>
<path d="M102.786 108.164L104.467 111.077C102.343 114.845 99.2466 117.974 95.5007 120.136L76.1167 131.328L74.4351 128.416L93.819 117.224C97.5649 115.061 100.662 111.933 102.786 108.164Z" fill="#E59076"/>
<path d="M108.812 109.517L40.7944 70.2472L22.2993 102.281L37.5331 111.076C39.6571 114.844 42.7538 117.973 46.4997 120.136L62.0616 129.12L78.4427 138.578C80.855 139.971 83.9399 139.145 85.3333 136.732C86.7261 134.319 85.8999 131.235 83.487 129.842L92.2233 134.886C94.6356 136.278 97.7206 135.452 99.1134 133.039C100.506 130.627 99.68 127.542 97.2671 126.149L101.635 128.671C104.048 130.064 107.132 129.238 108.525 126.825C109.918 124.412 109.091 121.327 106.679 119.934L103.767 118.253C106.179 119.646 109.264 118.819 110.657 116.407C112.051 113.994 111.224 110.91 108.812 109.517Z" fill="#FCC4AE"/>
<path d="M15.6125 104.488L0.6875 95.8709L24.4367 54.7363L39.3617 63.3531C41.6035 64.6474 42.3717 67.5144 41.0773 69.7562L22.0156 102.772C20.7213 105.014 17.8543 105.782 15.6125 104.488Z" fill="#423AF2"/>
<path d="M39.3617 63.3531L39.0529 63.175L22.5389 91.7787C21.6102 93.3871 19.5535 93.9379 17.9451 93.0097L6.24102 86.2521L0.6875 95.8709L15.6125 104.488C17.8543 105.782 20.7213 105.014 22.0156 102.772L41.0773 69.7562C42.3717 67.5144 41.6035 64.6474 39.3617 63.3531Z" fill="#423AF2"/>
<path d="M99.7046 131.351C98.1272 132.652 95.8561 132.924 93.9811 131.842L74.688 120.703L72.9302 123.747L92.2233 134.886C94.6356 136.279 97.7206 135.453 99.114 133.04C99.4239 132.502 99.6079 131.929 99.7046 131.351Z" fill="#F2AD97"/>
<path d="M108.881 125.065C107.304 126.367 105.032 126.638 103.157 125.556L79.4961 111.894L77.7383 114.939L101.4 128.6C103.812 129.993 106.897 129.167 108.29 126.754C108.6 126.216 108.784 125.644 108.881 125.065Z" fill="#F2AD97"/>
<path d="M111.249 114.719C109.671 116.02 107.4 116.291 105.525 115.209L84.7759 103.23L83.0181 106.274L103.767 118.254C106.18 119.646 109.265 118.82 110.657 116.407C110.968 115.869 111.152 115.297 111.249 114.719Z" fill="#F2AD97"/>
<path d="M22.2964 102.282L23.9777 99.3698L39.211 108.165L37.5297 111.077L22.2964 102.282Z" fill="black"/>
<path d="M80.2006 135.534L48.1814 117.224C44.4355 115.061 41.3389 111.933 39.2148 108.164L37.5332 111.077C39.6572 114.845 42.7539 117.974 46.4998 120.136L78.4428 138.579C80.8551 139.971 83.94 139.145 85.3334 136.732C85.6439 136.195 85.8273 135.622 85.924 135.044C84.3467 136.345 82.075 136.616 80.2006 135.534Z" fill="black"/>
<path d="M63.5573 138.579L71.202 134.165C73.6143 132.773 74.4411 129.688 73.0483 127.275C71.6555 124.863 68.5705 124.036 66.1582 125.429L58.5135 129.842C56.1012 131.235 55.2745 134.32 56.6672 136.732C58.06 139.145 61.145 139.971 63.5573 138.579Z" fill="#F2AD97"/>
<path d="M69.5205 131.253L61.8758 135.667C59.9768 136.763 57.6729 136.467 56.0938 135.122C56.1951 135.673 56.3703 136.22 56.6668 136.733C58.0596 139.145 61.1445 139.972 63.5568 138.579L71.2016 134.166C73.6139 132.773 74.4406 129.688 73.0479 127.276C72.7514 126.763 72.3664 126.337 71.9399 125.975C72.3154 128.013 71.4201 130.156 69.5205 131.253Z" fill="#E59076"/>
<path d="M49.7765 134.886L64.7015 126.269C67.1138 124.877 67.9406 121.792 66.5478 119.379C65.155 116.967 62.0701 116.14 59.6578 117.533L44.7328 126.15C42.3205 127.543 41.4937 130.627 42.8865 133.04C44.2792 135.452 47.3642 136.279 49.7765 134.886Z" fill="#F2AD97"/>
<path d="M63.0205 123.357L48.0955 131.974C46.1965 133.07 43.8926 132.774 42.3135 131.43C42.4148 131.98 42.59 132.527 42.8865 133.04C44.2793 135.453 47.3643 136.279 49.7766 134.887L64.7016 126.27C67.1139 124.877 67.9406 121.792 66.5479 119.38C66.2514 118.867 65.8664 118.441 65.4398 118.078C65.8154 120.117 64.9195 122.26 63.0205 123.357Z" fill="#E59076"/>
<path d="M40.3644 128.672L58.2015 118.373C60.6138 116.98 61.4406 113.895 60.0478 111.483C58.655 109.071 55.5701 108.244 53.1578 109.637L35.3207 119.935C32.9083 121.328 32.0816 124.413 33.4744 126.825C34.8671 129.238 37.9521 130.064 40.3644 128.672Z" fill="#F2AD97"/>
<path d="M56.52 115.461L38.6829 125.76C36.7839 126.856 34.48 126.56 32.9009 125.215C33.0022 125.765 33.1774 126.312 33.4739 126.825C34.8667 129.238 37.9517 130.064 40.364 128.672L58.2011 118.373C60.6134 116.98 61.4401 113.895 60.0474 111.483C59.7509 110.97 59.3659 110.544 58.9394 110.182C59.315 112.221 58.4191 114.365 56.52 115.461Z" fill="#E59076"/>
<path d="M38.2326 118.254L51.7015 110.477C54.1138 109.084 54.9406 105.999 53.5478 103.587C52.155 101.175 49.0701 100.348 46.6578 101.741L33.1888 109.517C30.7765 110.91 29.9498 113.995 31.3425 116.407C32.7353 118.82 35.8197 119.646 38.2326 118.254Z" fill="#F2AD97"/>
<path d="M50.0195 107.565L36.5506 115.341C34.6516 116.437 32.3477 116.141 30.7686 114.797C30.8699 115.347 31.0451 115.894 31.3416 116.407C32.7344 118.82 35.8193 119.646 38.2316 118.254L51.7006 110.478C54.1129 109.085 54.9396 106 53.5469 103.587C53.2504 103.074 52.8654 102.648 52.4389 102.286C52.8139 104.325 51.9186 106.469 50.0195 107.565Z" fill="#E59076"/>
<path d="M50.0557 109.486L51.2358 108.805C52.6368 107.996 53.1172 106.204 52.3081 104.803L51.8751 104.053C51.0659 102.652 49.2741 102.171 47.8731 102.981L46.693 103.662C46.1323 103.986 45.9407 104.702 46.2641 105.263L48.4549 109.057C48.7784 109.618 49.495 109.81 50.0557 109.486Z" fill="#FFD2C0"/>
<path d="M56.5564 117.382L57.7364 116.7C59.1374 115.891 59.6179 114.099 58.8087 112.698L58.3757 111.948C57.5665 110.547 55.7747 110.067 54.3738 110.876L52.671 111.859C52.3991 112.016 52.306 112.364 52.463 112.636L54.9556 116.953C55.279 117.514 55.9956 117.706 56.5564 117.382Z" fill="#FFD2C0"/>
<path d="M63.0557 125.278L64.2358 124.596C65.6368 123.787 66.1172 121.995 65.3081 120.595L64.8751 119.844C64.0659 118.444 62.2741 117.963 60.8731 118.772L59.693 119.454C59.1323 119.777 58.9407 120.494 59.2641 121.054L61.4549 124.849C61.7784 125.409 62.4956 125.601 63.0557 125.278Z" fill="#FFD2C0"/>
<path d="M69.5562 133.174L70.7363 132.493C72.1373 131.683 72.6177 129.892 71.8085 128.491L71.3755 127.741C70.5664 126.34 68.7746 125.859 67.3736 126.668L66.1935 127.35C65.6328 127.673 65.4412 128.39 65.7646 128.951L67.9554 132.745C68.2789 133.305 68.9955 133.497 69.5562 133.174Z" fill="#FFD2C0"/>
<path d="M65.9531 92.5416L86.8125 80.4982L83.8576 75.3801C82.2399 72.5775 78.6563 71.6172 75.8537 73.2355L51.9492 87.0367C51.6692 87.1984 51.5731 87.557 51.7348 87.8371L52.3459 88.8959C55.0969 93.6601 61.1889 95.2925 65.9531 92.5416Z" fill="#F2AD97"/>
<path d="M60.2526 87.8646L62.9274 86.3201C63.7313 85.856 64.0073 84.8277 63.5427 84.0232L61.9489 81.2628L54.354 85.648L54.7882 86.4004C55.8933 88.3134 58.3395 88.9691 60.2526 87.8646Z" fill="#FFD2C0"/>
<defs>
<linearGradient id="paint0_linear" x1="50.2336" y1="20.2657" x2="50.2336" y2="59.7349" gradientUnits="userSpaceOnUse">
<stop stop-color="#CECECE" stop-opacity="0.8"/>
<stop offset="1" stop-color="#CECECE" stop-opacity="0.2"/>
</linearGradient>
</defs>
</svg>
