<svg width="150" height="150" viewBox="0 0 150 150" fill="none" xmlns="http://www.w3.org/2000/svg">
<path d="M72.5437 6.29294L46.5808 18.4295C44.3736 19.4607 43.0183 21.8127 43.1783 24.3275C43.6295 31.3916 45.341 45.8724 51.8215 56.6748C59.9959 70.3008 70.1461 73.8668 73.6992 74.7299C74.5564 74.9367 75.4441 74.9367 76.3008 74.7299C79.8533 73.8668 90.0041 70.3008 98.1785 56.6748C104.66 45.873 106.37 31.391 106.822 24.3275C106.982 21.8127 105.625 19.4607 103.419 18.4295L77.4562 6.29294C75.8941 5.56169 74.1052 5.56169 72.5437 6.29294Z" fill="#5F58FC"/>
<path d="M61.6033 64.7349C61.3069 64.7349 61.0104 64.6236 60.7824 64.3998C58.2108 61.8755 55.8723 58.8703 53.8315 55.4689C49.2682 47.8634 47.2022 38.3074 46.2723 31.6295C46.1832 30.9884 46.6303 30.3966 47.2713 30.3076C47.9135 30.2127 48.5041 30.665 48.5938 31.3066C49.4938 37.7677 51.4813 46.9951 55.8412 54.2625C57.7801 57.4945 59.9949 60.3422 62.4242 62.7263C62.8865 63.1798 62.893 63.9216 62.4395 64.3839C62.2104 64.6177 61.9069 64.7349 61.6033 64.7349ZM46.8957 27.982C46.2969 27.982 45.7859 27.5256 45.7303 26.9174L45.6963 26.5394C45.6406 25.8943 46.1188 25.3271 46.7633 25.2715C47.4037 25.207 47.9756 25.6933 48.0313 26.3379L48.0641 26.7029C48.1233 27.3474 47.6486 27.9175 47.0041 27.9767C46.9678 27.9802 46.9315 27.982 46.8957 27.982Z" fill="url(#paint0_linear)"/>
<path d="M103.419 18.4295L93.3199 13.7086C94.5381 14.9191 95.2184 16.6494 95.1029 18.4681C94.6512 25.5316 92.9408 40.0136 86.4598 50.8154C78.2854 64.4414 68.1352 68.0074 64.582 68.8705C63.8572 69.0457 63.1113 69.0632 62.3789 68.9419C67.2674 72.7857 71.6168 74.2242 73.6992 74.7298C74.5564 74.9367 75.4441 74.9367 76.3008 74.7298C79.8533 73.8668 90.0041 70.3001 98.1785 56.6748C104.66 45.8724 106.371 31.391 106.822 24.3275C106.982 21.8127 105.625 19.4607 103.419 18.4295Z" fill="#615AF8"/>
<path d="M103.419 18.4295L98.7449 16.2445C100.236 17.4539 101.092 19.3728 100.963 21.3978C100.511 28.4613 98.8006 42.9433 92.3195 53.7451C84.1451 67.3711 73.9949 70.9371 70.4418 71.8002C69.5852 72.007 68.6975 72.007 67.8402 71.8002C67.1957 71.6437 66.3314 71.3965 65.3037 71.0179C68.9564 73.3377 72.0443 74.3279 73.6996 74.7299C74.5568 74.9367 75.4445 74.9367 76.3012 74.7299C79.8537 73.8668 90.0045 70.3002 98.1789 56.6748C104.66 45.8724 106.371 31.391 106.822 24.3275C106.981 21.8127 105.625 19.4607 103.419 18.4295Z" fill="#423AF2"/>
<path d="M73.2717 16.3681L54.9975 24.9105C53.4436 25.6365 52.4902 27.2918 52.6021 29.0619C52.9197 34.0341 54.1244 44.2265 58.6859 51.8296C64.4398 61.4203 71.5836 63.9304 74.0844 64.538C74.6879 64.6839 75.3125 64.6839 75.9154 64.538C78.4162 63.9304 85.5605 61.4203 91.3139 51.8296C95.8754 44.2265 97.0795 34.0336 97.3977 29.0619C97.5102 27.2918 96.5557 25.6365 95.0023 24.9105L76.7287 16.3681C75.6295 15.8543 74.3703 15.8543 73.2717 16.3681Z" fill="#F1F2F2"/>
<path d="M95.0029 24.9105L84.5955 20.0455C85.3408 20.8839 85.7545 22.0136 85.6789 23.2025C85.3613 28.1742 84.1572 38.3672 79.5951 45.9703C73.8412 55.5609 66.6975 58.0711 64.1967 58.6781C64.1609 58.6869 64.1246 58.6898 64.0889 58.6974C68.3158 62.7539 72.3354 64.1127 74.0838 64.5375C74.6873 64.6834 75.3119 64.6834 75.9148 64.5375C78.4156 63.9299 85.56 61.4197 91.3133 51.8297C95.8748 44.2265 97.0789 34.0336 97.3971 29.0619C97.5102 27.2923 96.5557 25.6365 95.0029 24.9105Z" fill="#E6E7E8"/>
<path d="M73.7932 52.0377C73.066 52.0377 72.3617 51.767 71.8197 51.273L63.4139 43.6113C62.218 42.5215 62.1318 40.6687 63.2223 39.4728C64.3115 38.2769 66.1648 38.1908 67.3607 39.2812L73.3971 44.7832L83.45 31.5322C84.4273 30.2437 86.2654 29.9912 87.5551 30.9691C88.8435 31.947 89.0961 33.7851 88.1182 35.0742L76.1269 50.8799C75.6295 51.5349 74.8795 51.9515 74.0603 52.0265C73.9713 52.0336 73.8822 52.0377 73.7932 52.0377Z" fill="#A82FF9"/>
<path d="M88.5673 100.52C89.5646 100.155 90.4446 99.4541 91.0165 98.4626L94.2644 92.8371C94.4261 92.557 94.33 92.1984 94.0499 92.0367L70.1454 78.2355C67.3429 76.6177 63.7593 77.5775 62.1415 80.38L60.0269 84.0421L88.5673 100.52Z" fill="#FCC4AE"/>
<path d="M105.205 75.2472L59.9395 101.382L80.1156 136.328L99.4996 125.137C103.246 122.974 106.342 119.845 108.466 116.077L123.7 107.282L105.205 75.2472Z" fill="#F2AD97"/>
<path d="M106.782 113.162L122.016 104.367L123.697 107.279L108.464 116.074L106.782 113.162Z" fill="#E59076"/>
<path d="M130.388 109.488L145.313 100.871L121.563 59.7363L106.638 68.3531C104.397 69.6474 103.628 72.5144 104.923 74.7562L123.984 107.772C125.279 110.014 128.146 110.782 130.388 109.488Z" fill="#423AF2"/>
<path d="M106.638 68.3531L106.947 68.175L123.461 96.7787C124.39 98.3871 126.447 98.9379 128.055 98.0097L139.759 91.2521L145.313 100.871L130.388 109.488C128.146 110.782 125.279 110.014 123.984 107.772L104.923 74.7562C103.628 72.5144 104.397 69.6474 106.638 68.3531Z" fill="#423AF2"/>
<path d="M106.786 113.164L108.467 116.077C106.343 119.845 103.247 122.974 99.5007 125.136L80.1167 136.328L78.4351 133.416L97.819 122.224C101.565 120.061 104.662 116.933 106.786 113.164Z" fill="#E59076"/>
<path d="M112.812 114.517L44.7944 75.2472L26.2993 107.281L41.5331 116.076C43.6571 119.844 46.7538 122.973 50.4997 125.136L66.0616 134.12L82.4427 143.578C84.855 144.971 87.9399 144.145 89.3333 141.732C90.7261 139.319 89.8999 136.235 87.487 134.842L96.2233 139.886C98.6356 141.278 101.721 140.452 103.113 138.039C104.506 135.627 103.68 132.542 101.267 131.149L105.635 133.671C108.048 135.064 111.132 134.238 112.525 131.825C113.918 129.412 113.091 126.327 110.679 124.934L107.767 123.253C110.179 124.646 113.264 123.819 114.657 121.407C116.051 118.994 115.224 115.91 112.812 114.517Z" fill="#FCC4AE"/>
<path d="M19.6125 109.488L4.6875 100.871L28.4367 59.7363L43.3617 68.3531C45.6035 69.6474 46.3717 72.5144 45.0773 74.7562L26.0156 107.772C24.7213 110.014 21.8543 110.782 19.6125 109.488Z" fill="#423AF2"/>
<path d="M43.3617 68.3531L43.0529 68.175L26.5389 96.7787C25.6102 98.3871 23.5535 98.9379 21.9451 98.0097L10.241 91.2521L4.6875 100.871L19.6125 109.488C21.8543 110.782 24.7213 110.014 26.0156 107.772L45.0773 74.7562C46.3717 72.5144 45.6035 69.6474 43.3617 68.3531Z" fill="#423AF2"/>
<path d="M103.705 136.351C102.127 137.652 99.8561 137.924 97.9811 136.842L78.688 125.703L76.9302 128.747L96.2233 139.886C98.6356 141.279 101.721 140.453 103.114 138.04C103.424 137.502 103.608 136.929 103.705 136.351Z" fill="#F2AD97"/>
<path d="M112.881 130.065C111.304 131.367 109.032 131.638 107.157 130.556L83.4961 116.894L81.7383 119.939L105.4 133.6C107.812 134.993 110.897 134.167 112.29 131.754C112.6 131.216 112.784 130.644 112.881 130.065Z" fill="#F2AD97"/>
<path d="M115.249 119.719C113.671 121.02 111.4 121.291 109.525 120.209L88.7759 108.23L87.0181 111.274L107.767 123.254C110.18 124.646 113.265 123.82 114.657 121.407C114.968 120.869 115.152 120.297 115.249 119.719Z" fill="#F2AD97"/>
<path d="M26.2964 107.282L27.9777 104.37L43.211 113.165L41.5297 116.077L26.2964 107.282Z" fill="black"/>
<path d="M84.2006 140.534L52.1814 122.224C48.4355 120.061 45.3389 116.933 43.2148 113.164L41.5332 116.077C43.6572 119.845 46.7539 122.974 50.4998 125.136L82.4428 143.579C84.8551 144.971 87.94 144.145 89.3334 141.732C89.6439 141.195 89.8273 140.622 89.924 140.044C88.3467 141.345 86.075 141.616 84.2006 140.534Z" fill="black"/>
<path d="M67.5573 143.579L75.202 139.165C77.6143 137.773 78.4411 134.688 77.0483 132.275C75.6555 129.863 72.5705 129.036 70.1582 130.429L62.5135 134.842C60.1012 136.235 59.2745 139.32 60.6672 141.732C62.06 144.145 65.145 144.971 67.5573 143.579Z" fill="#F2AD97"/>
<path d="M73.5205 136.253L65.8758 140.667C63.9768 141.763 61.6729 141.467 60.0938 140.122C60.1951 140.673 60.3703 141.22 60.6668 141.733C62.0596 144.145 65.1445 144.972 67.5568 143.579L75.2016 139.166C77.6139 137.773 78.4406 134.688 77.0479 132.276C76.7514 131.763 76.3664 131.337 75.9399 130.975C76.3154 133.013 75.4201 135.156 73.5205 136.253Z" fill="#E59076"/>
<path d="M53.7765 139.886L68.7015 131.269C71.1138 129.877 71.9406 126.792 70.5478 124.379C69.155 121.967 66.0701 121.14 63.6578 122.533L48.7328 131.15C46.3205 132.543 45.4937 135.627 46.8865 138.04C48.2792 140.452 51.3642 141.279 53.7765 139.886Z" fill="#F2AD97"/>
<path d="M67.0205 128.357L52.0955 136.974C50.1965 138.07 47.8926 137.774 46.3135 136.43C46.4148 136.98 46.59 137.527 46.8865 138.04C48.2793 140.453 51.3643 141.279 53.7766 139.887L68.7016 131.27C71.1139 129.877 71.9406 126.792 70.5479 124.38C70.2514 123.867 69.8664 123.441 69.4398 123.078C69.8154 125.117 68.9195 127.26 67.0205 128.357Z" fill="#E59076"/>
<path d="M44.3644 133.672L62.2015 123.373C64.6138 121.98 65.4406 118.895 64.0478 116.483C62.655 114.071 59.5701 113.244 57.1578 114.637L39.3207 124.935C36.9083 126.328 36.0816 129.413 37.4744 131.825C38.8671 134.238 41.9521 135.064 44.3644 133.672Z" fill="#F2AD97"/>
<path d="M60.52 120.461L42.6829 130.76C40.7839 131.856 38.48 131.56 36.9009 130.215C37.0022 130.765 37.1774 131.312 37.4739 131.825C38.8667 134.238 41.9517 135.064 44.364 133.672L62.2011 123.373C64.6134 121.98 65.4401 118.895 64.0474 116.483C63.7509 115.97 63.3659 115.544 62.9394 115.182C63.315 117.221 62.4191 119.365 60.52 120.461Z" fill="#E59076"/>
<path d="M42.2326 123.254L55.7015 115.477C58.1138 114.084 58.9406 110.999 57.5478 108.587C56.155 106.175 53.0701 105.348 50.6578 106.741L37.1888 114.517C34.7765 115.91 33.9498 118.995 35.3425 121.407C36.7353 123.82 39.8197 124.646 42.2326 123.254Z" fill="#F2AD97"/>
<path d="M54.0195 112.565L40.5506 120.341C38.6516 121.437 36.3477 121.141 34.7686 119.797C34.8699 120.347 35.0451 120.894 35.3416 121.407C36.7344 123.82 39.8193 124.646 42.2316 123.254L55.7006 115.478C58.1129 114.085 58.9396 111 57.5469 108.587C57.2504 108.074 56.8654 107.648 56.4389 107.286C56.8139 109.325 55.9186 111.469 54.0195 112.565Z" fill="#E59076"/>
<path d="M54.0557 114.486L55.2358 113.805C56.6368 112.996 57.1172 111.204 56.3081 109.803L55.8751 109.053C55.0659 107.652 53.2741 107.171 51.8731 107.981L50.693 108.662C50.1323 108.986 49.9407 109.702 50.2641 110.263L52.4549 114.057C52.7784 114.618 53.495 114.81 54.0557 114.486Z" fill="#FFD2C0"/>
<path d="M60.5564 122.382L61.7364 121.7C63.1374 120.891 63.6179 119.099 62.8087 117.698L62.3757 116.948C61.5665 115.547 59.7747 115.067 58.3738 115.876L56.671 116.859C56.3991 117.016 56.306 117.364 56.463 117.636L58.9556 121.953C59.279 122.514 59.9956 122.706 60.5564 122.382Z" fill="#FFD2C0"/>
<path d="M67.0557 130.278L68.2358 129.596C69.6368 128.787 70.1172 126.995 69.3081 125.595L68.8751 124.844C68.0659 123.444 66.2741 122.963 64.8731 123.772L63.693 124.454C63.1323 124.777 62.9407 125.494 63.2641 126.054L65.4549 129.849C65.7784 130.409 66.4956 130.601 67.0557 130.278Z" fill="#FFD2C0"/>
<path d="M73.5562 138.174L74.7363 137.493C76.1373 136.683 76.6177 134.892 75.8085 133.491L75.3755 132.741C74.5664 131.34 72.7746 130.859 71.3736 131.668L70.1935 132.35C69.6328 132.673 69.4412 133.39 69.7646 133.951L71.9554 137.745C72.2789 138.305 72.9955 138.497 73.5562 138.174Z" fill="#FFD2C0"/>
<path d="M69.9531 97.5416L90.8125 85.4982L87.8576 80.3801C86.2399 77.5775 82.6563 76.6172 79.8537 78.2355L55.9492 92.0367C55.6692 92.1984 55.5731 92.557 55.7348 92.8371L56.3459 93.8959C59.0969 98.6601 65.1889 100.293 69.9531 97.5416Z" fill="#F2AD97"/>
<path d="M64.2526 92.8646L66.9274 91.3201C67.7313 90.856 68.0073 89.8277 67.5427 89.0232L65.9489 86.2628L58.354 90.648L58.7882 91.4004C59.8933 93.3134 62.3395 93.9691 64.2526 92.8646Z" fill="#FFD2C0"/>
<defs>
<linearGradient id="paint0_linear" x1="54.2336" y1="25.2657" x2="54.2336" y2="64.7349" gradientUnits="userSpaceOnUse">
<stop stop-color="#CECECE" stop-opacity="0.8"/>
<stop offset="1" stop-color="#CECECE" stop-opacity="0.2"/>
</linearGradient>
</defs>
</svg>
