<svg width="40" height="40" viewBox="0 0 40 40" fill="none" xmlns="http://www.w3.org/2000/svg">
<g clip-path="url(#clip0)">
<path d="M20 40C14.6957 40 9.60859 37.8929 5.85787 34.1421C2.10714 30.3914 4.76837e-06 25.3043 4.76837e-06 20C4.76837e-06 14.6957 2.10714 9.60859 5.85787 5.85786C9.60859 2.10714 14.6957 0 20 0C25.3043 0 30.3914 2.10714 34.1421 5.85786C37.8929 9.60859 40 14.6957 40 20C40 25.3043 37.8929 30.3914 34.1421 34.1421C30.3914 37.8929 25.3043 40 20 40ZM28.75 21.25C29.0815 21.25 29.3995 21.1183 29.6339 20.8839C29.8683 20.6495 30 20.3315 30 20C30 19.6685 29.8683 19.3505 29.6339 19.1161C29.3995 18.8817 29.0815 18.75 28.75 18.75L14.2675 18.75L19.635 13.385C19.8697 13.1503 20.0016 12.8319 20.0016 12.5C20.0016 12.1681 19.8697 11.8497 19.635 11.615C19.4003 11.3803 19.0819 11.2484 18.75 11.2484C18.4181 11.2484 18.0997 11.3803 17.865 11.615L10.365 19.115C10.2486 19.2311 10.1562 19.3691 10.0932 19.5209C10.0302 19.6728 9.99777 19.8356 9.99777 20C9.99777 20.1644 10.0302 20.3272 10.0932 20.4791C10.1562 20.6309 10.2486 20.7689 10.365 20.885L17.865 28.385C18.0997 28.6197 18.4181 28.7516 18.75 28.7516C19.0819 28.7516 19.4003 28.6197 19.635 28.385C19.8697 28.1503 20.0016 27.8319 20.0016 27.5C20.0016 27.1681 19.8697 26.8497 19.635 26.615L14.2675 21.25L28.75 21.25Z" fill="url(#paint0_linear)"/>
</g>
<defs>
<linearGradient id="paint0_linear" x1="40" y1="20" x2="4.76837e-06" y2="20" gradientUnits="userSpaceOnUse">
<stop stop-color="white" stop-opacity="0.65"/>
<stop offset="1" stop-color="white" stop-opacity="0.2"/>
</linearGradient>
<clipPath id="clip0">
<rect width="40" height="40" fill="white" transform="translate(40) rotate(90)"/>
</clipPath>
</defs>
</svg>
