<svg width="20" height="20" viewBox="0 0 20 20" fill="none" xmlns="http://www.w3.org/2000/svg">
<path d="M8.33317 15C9.81232 14.9997 11.2488 14.5045 12.414 13.5933L16.0773 17.2566L17.2557 16.0783L13.5923 12.415C14.504 11.2497 14.9995 9.81282 14.9998 8.33329C14.9998 4.65746 12.009 1.66663 8.33317 1.66663C4.65734 1.66663 1.6665 4.65746 1.6665 8.33329C1.6665 12.0091 4.65734 15 8.33317 15ZM8.33317 3.33329C11.0907 3.33329 13.3332 5.57579 13.3332 8.33329C13.3332 11.0908 11.0907 13.3333 8.33317 13.3333C5.57567 13.3333 3.33317 11.0908 3.33317 8.33329C3.33317 5.57579 5.57567 3.33329 8.33317 3.33329Z" fill="white"/>
<path d="M9.51018 7.15494C9.82601 7.47161 10.0002 7.88994 10.0002 8.33327H11.6668C11.6676 7.8953 11.5815 7.46152 11.4136 7.05702C11.2457 6.65251 10.9992 6.2853 10.6885 5.97661C9.42685 4.71662 7.23935 4.71662 5.97852 5.97661L7.15518 7.15661C7.78852 6.52495 8.88018 6.52661 9.51018 7.15494Z" fill="white"/>
</svg>
