<svg width="120" height="121" viewBox="0 0 120 121" fill="none" xmlns="http://www.w3.org/2000/svg">
<path d="M115.862 116.741H4.1377V13.474C4.1377 12.8978 4.60082 12.4308 5.17223 12.4308H114.827C115.399 12.4308 115.862 12.8978 115.862 13.474V116.741Z" fill="#6059F0"/>
<path d="M115.864 97.9662H4.13965V114.656H115.864V97.9662Z" fill="#423AF2"/>
<path d="M115.862 49.8031C115.438 49.9094 115.002 49.9827 114.546 49.9827C111.533 49.9827 109.091 47.5202 109.091 44.4826C109.091 47.5199 106.649 49.9827 103.636 49.9827C100.624 49.9827 98.1818 47.5202 98.1818 44.4826C98.1818 47.5199 95.7399 49.9827 92.7272 49.9827C89.7148 49.9827 87.2726 47.5202 87.2726 44.4826C87.2726 47.5199 84.8304 49.9827 81.818 49.9827C78.8055 49.9827 76.3634 47.5202 76.3634 44.4826C76.3634 47.5199 73.9212 49.9827 70.9088 49.9827C67.8963 49.9827 65.4541 47.5202 65.4541 44.4826C65.4541 47.5199 63.0122 49.9827 59.9995 49.9827C56.9869 49.9827 54.5449 47.5202 54.5449 44.4826C54.5449 47.5199 52.1027 49.9827 49.0903 49.9827C46.0779 49.9827 43.6357 47.5202 43.6357 44.4826C43.6357 47.5199 41.1938 49.9827 38.1811 49.9827C35.1687 49.9827 32.7265 47.5202 32.7265 44.4826C32.7265 47.5199 30.2843 49.9827 27.2719 49.9827C24.2595 49.9827 21.8173 47.5202 21.8173 44.4826C21.8173 47.5199 19.3751 49.9827 16.3627 49.9827C13.3502 49.9827 10.908 47.5202 10.908 44.4826C10.908 47.5199 8.46609 49.9827 5.45344 49.9827C4.99688 49.9827 4.5607 49.9094 4.13672 49.8031V54.021C4.57125 54.0818 5.0025 54.1553 5.45344 54.1553C7.4782 54.1553 9.35836 53.5196 10.908 52.4355C12.4582 53.5196 14.3381 54.155 16.3631 54.155C18.3879 54.155 20.268 53.5193 21.8177 52.4353C23.3674 53.5193 25.2476 54.155 27.2723 54.155C29.2971 54.155 31.1773 53.5193 32.727 52.4353C34.2766 53.5193 36.1568 54.155 38.1816 54.155C40.2063 54.155 42.0865 53.5193 43.6362 52.4353C45.1859 53.5193 47.066 54.155 49.0908 54.155C51.1156 54.155 52.9957 53.5193 54.5454 52.4353C56.0948 53.5196 57.975 54.155 59.9998 54.155C62.0245 54.155 63.9047 53.5193 65.4544 52.4353C67.0041 53.5193 68.8842 54.155 70.909 54.155C72.9338 54.155 74.8139 53.5193 76.3636 52.4353C77.9133 53.5193 79.7934 54.155 81.8182 54.155C83.843 54.155 85.7231 53.5193 87.2728 52.4353C88.8225 53.5193 90.7027 54.155 92.7274 54.155C94.7522 54.155 96.6324 53.5193 98.182 52.4353C99.7317 53.5193 101.612 54.155 103.637 54.155C105.662 54.155 107.542 53.5193 109.091 52.4353C110.641 53.5193 112.521 54.155 114.546 54.155C114.997 54.155 115.428 54.0818 115.863 54.0208V49.8031H115.862Z" fill="#BE5EFF"/>
<path d="M72.4135 62.5005H14.4829V104.224H72.4135V62.5005Z" fill="#B4E1FA"/>
<path d="M105.518 62.5005H80.6909V104.224H105.518V62.5005Z" fill="#B4E1FA"/>
<path d="M105.518 62.5005H80.6904V68.7591H105.518V62.5005Z" fill="#A0D2F0"/>
<path d="M105.517 81.9713L91.0344 62.5H86.8965L105.517 87.5345V81.9713Z" fill="#DAF0FD"/>
<path d="M82.7583 62.5H80.6895V70.8448L105.517 104.224V93.0974L82.7583 62.5Z" fill="#A0D2F0"/>
<path d="M95.6895 68.7585L91.0343 62.5H86.8965L91.5516 68.7585H95.6895Z" fill="#B4E1FA"/>
<path d="M66.207 104.224H62.0691L31.0347 62.5H35.1725L66.207 104.224Z" fill="#DAF0FD"/>
<path d="M57.9309 104.224H49.6552L18.6206 62.5H26.8966L57.9309 104.224Z" fill="#A0D2F0"/>
<path d="M72.4135 62.501H14.4829V68.7597H72.4135V62.501Z" fill="#A0D2F0"/>
<path d="M39.8277 68.7585L35.1726 62.5H31.0347L35.6898 68.7585H39.8277Z" fill="#B4E1FA"/>
<path d="M49.0908 49.9827C46.0784 49.9827 43.6362 47.5201 43.6362 44.4826V39.5516H54.5454V44.4826C54.5454 47.5201 52.1033 49.9827 49.0908 49.9827Z" fill="#A82FF9"/>
<path d="M70.9092 49.9827C67.8968 49.9827 65.4546 47.5201 65.4546 44.4826V39.5516H76.3638V44.4826C76.3636 47.5201 73.9216 49.9827 70.9092 49.9827Z" fill="#A82FF9"/>
<path d="M27.273 49.9827C24.2605 49.9827 21.8184 47.5201 21.8184 44.4826V39.5516H32.7276V44.4826C32.7273 47.5201 30.2854 49.9827 27.273 49.9827Z" fill="#A82FF9"/>
<path d="M5.45461 49.9826C2.44219 49.9826 0 47.5201 0 44.4826V39.5516H10.9092V44.4826C10.9092 47.5201 8.46703 49.9826 5.45461 49.9826Z" fill="#A82FF9"/>
<path d="M92.727 49.9827C89.7146 49.9827 87.2725 47.5201 87.2725 44.4826V39.5516H98.1816V44.4826C98.1816 47.5201 95.7397 49.9827 92.727 49.9827Z" fill="#A82FF9"/>
<path d="M38.1817 49.9826C35.1692 49.9826 32.7271 47.5201 32.7271 44.4826V39.5516H43.6363V44.4826C43.6363 47.5201 41.1943 49.9826 38.1817 49.9826Z" fill="#C7CFE2"/>
<path d="M81.8179 49.9827C78.8055 49.9827 76.3633 47.5201 76.3633 44.4826V39.5516H87.2725V44.4826C87.2725 47.5201 84.8303 49.9827 81.8179 49.9827Z" fill="#C7CFE2"/>
<path d="M114.545 49.9826C111.533 49.9826 109.091 47.5201 109.091 44.4826V39.5516H120V44.4826C120 47.5201 117.558 49.9826 114.545 49.9826Z" fill="#A82FF9"/>
<path d="M103.637 49.9827C100.624 49.9827 98.1821 47.5201 98.1821 44.4826V39.5516H109.091V44.4826C109.091 47.5201 106.649 49.9827 103.637 49.9827Z" fill="#C7CFE2"/>
<path d="M16.3638 49.9826C13.3514 49.9826 10.9092 47.5201 10.9092 44.4826V39.5516H21.8184V44.4826C21.8184 47.5201 19.3762 49.9826 16.3638 49.9826Z" fill="#C7CFE2"/>
<path d="M60 49.9827C56.9876 49.9827 54.5454 47.5201 54.5454 44.4826V39.5516H65.4545V44.4826C65.4545 47.5201 63.0124 49.9827 60 49.9827Z" fill="#C7CFE2"/>
<path d="M54.5452 39.5516H43.6362L44.7647 22.8619H54.9216L54.5452 39.5516Z" fill="#BC5AFE"/>
<path d="M76.3635 39.5516H65.4545L65.0781 22.8619H75.235L76.3635 39.5516Z" fill="#BC5AFE"/>
<path d="M32.7273 39.5516H21.8184L24.4516 22.8619H34.6082L32.7273 39.5516Z" fill="#BC5AFE"/>
<path d="M10.9092 39.5516H0L4.13789 22.8619H14.2948L10.9092 39.5516Z" fill="#BC5AFE"/>
<path d="M98.1819 39.5516H87.273L85.3921 22.8619H95.5487L98.1819 39.5516Z" fill="#BC5AFE"/>
<path d="M43.6363 39.5516H32.7271L34.6079 22.8619H44.7648L43.6363 39.5516Z" fill="#EFF2FA"/>
<path d="M87.2726 39.5516H76.3634L75.2349 22.8619H85.3917L87.2726 39.5516Z" fill="#EFF2FA"/>
<path d="M120 39.5516H109.091L105.705 22.8619H115.862L120 39.5516Z" fill="#BC5AFE"/>
<path d="M109.091 39.5516H98.182L95.5488 22.8619H105.705L109.091 39.5516Z" fill="#EFF2FA"/>
<path d="M21.8182 39.5516H10.9092L14.2947 22.8619H24.4514L21.8182 39.5516Z" fill="#EFF2FA"/>
<path d="M65.4546 39.5516H54.5454L54.9218 22.8619H65.0782L65.4546 39.5516Z" fill="#EFF2FA"/>
<path d="M70.3448 64.5861V102.138H16.5517V64.5861H70.3448ZM72.4138 60.4137H14.4826C13.3401 60.4137 12.4136 61.3479 12.4136 62.5V104.224C12.4136 105.376 13.3401 106.311 14.4826 106.311H72.4136C73.5562 106.311 74.4826 105.376 74.4826 104.224V62.5C74.4826 61.3479 73.5564 60.4137 72.4138 60.4137Z" fill="#8F96AC"/>
<path d="M105.517 60.4137H80.6897C79.5471 60.4137 78.6206 61.3479 78.6206 62.5V114.655H107.586V62.5C107.586 61.3479 106.66 60.4137 105.517 60.4137ZM103.448 102.138H82.7585V64.5861H103.448V102.138Z" fill="#8F96AC"/>
<path d="M93.1033 22.8618H26.8967C24.6113 22.8618 22.7588 20.9939 22.7588 18.6895V6.17237C22.7588 3.86794 24.6113 2 26.8967 2H93.1036C95.389 2 97.2415 3.86794 97.2415 6.17237V18.6897C97.2415 20.9939 95.389 22.8618 93.1033 22.8618Z" fill="#AFB9D2"/>
<path d="M92.0691 18.6895H27.931C27.3596 18.6895 26.8965 18.2225 26.8965 17.6463V7.21552C26.8965 6.63935 27.3596 6.17236 27.931 6.17236H92.0689C92.6403 6.17236 93.1034 6.63935 93.1034 7.21552V17.6466C93.1034 18.2225 92.6403 18.6895 92.0691 18.6895Z" fill="#6059F0"/>
<path d="M27.931 18.6895H92.0689C92.6403 18.6895 93.1034 18.2225 93.1034 17.6463V13.474C93.1034 14.0501 92.6403 14.5171 92.0689 14.5171H27.931C27.3596 14.5171 26.8965 14.0501 26.8965 13.474V17.6463C26.8967 18.2225 27.3598 18.6895 27.931 18.6895Z" fill="#423AF2"/>
<path d="M118.965 118.914H1.03453C0.463125 118.914 0 118.447 0 117.871V115.784C0 115.208 0.463125 114.741 1.03453 114.741H118.965C119.537 114.741 120 115.208 120 115.784V117.871C120 118.447 119.537 118.914 118.965 118.914Z" fill="#8F96AC"/>
</svg>
