<svg width="120" height="117" viewBox="0 0 120 117" fill="none" xmlns="http://www.w3.org/2000/svg">
<path d="M115.862 114.741H4.1377V11.474C4.1377 10.8978 4.60082 10.4308 5.17223 10.4308H114.827C115.399 10.4308 115.862 10.8978 115.862 11.474V114.741Z" fill="#6059F0"/>
<path d="M115.864 95.9662H4.13965V112.656H115.864V95.9662Z" fill="#423AF2"/>
<path d="M115.862 47.8031C115.438 47.9094 115.002 47.9827 114.546 47.9827C111.533 47.9827 109.091 45.5202 109.091 42.4826C109.091 45.5199 106.649 47.9827 103.636 47.9827C100.624 47.9827 98.1818 45.5202 98.1818 42.4826C98.1818 45.5199 95.7399 47.9827 92.7272 47.9827C89.7148 47.9827 87.2726 45.5202 87.2726 42.4826C87.2726 45.5199 84.8304 47.9827 81.818 47.9827C78.8055 47.9827 76.3634 45.5202 76.3634 42.4826C76.3634 45.5199 73.9212 47.9827 70.9088 47.9827C67.8963 47.9827 65.4541 45.5202 65.4541 42.4826C65.4541 45.5199 63.0122 47.9827 59.9995 47.9827C56.9869 47.9827 54.5449 45.5202 54.5449 42.4826C54.5449 45.5199 52.1027 47.9827 49.0903 47.9827C46.0779 47.9827 43.6357 45.5202 43.6357 42.4826C43.6357 45.5199 41.1938 47.9827 38.1811 47.9827C35.1687 47.9827 32.7265 45.5202 32.7265 42.4826C32.7265 45.5199 30.2843 47.9827 27.2719 47.9827C24.2595 47.9827 21.8173 45.5202 21.8173 42.4826C21.8173 45.5199 19.3751 47.9827 16.3627 47.9827C13.3502 47.9827 10.908 45.5202 10.908 42.4826C10.908 45.5199 8.46609 47.9827 5.45344 47.9827C4.99688 47.9827 4.5607 47.9094 4.13672 47.8031V52.021C4.57125 52.0818 5.0025 52.1553 5.45344 52.1553C7.4782 52.1553 9.35836 51.5196 10.908 50.4355C12.4582 51.5196 14.3381 52.155 16.3631 52.155C18.3879 52.155 20.268 51.5193 21.8177 50.4353C23.3674 51.5193 25.2476 52.155 27.2723 52.155C29.2971 52.155 31.1773 51.5193 32.727 50.4353C34.2766 51.5193 36.1568 52.155 38.1816 52.155C40.2063 52.155 42.0865 51.5193 43.6362 50.4353C45.1859 51.5193 47.066 52.155 49.0908 52.155C51.1156 52.155 52.9957 51.5193 54.5454 50.4353C56.0948 51.5196 57.975 52.155 59.9998 52.155C62.0245 52.155 63.9047 51.5193 65.4544 50.4353C67.0041 51.5193 68.8842 52.155 70.909 52.155C72.9338 52.155 74.8139 51.5193 76.3636 50.4353C77.9133 51.5193 79.7934 52.155 81.8182 52.155C83.843 52.155 85.7231 51.5193 87.2728 50.4353C88.8225 51.5193 90.7027 52.155 92.7274 52.155C94.7522 52.155 96.6324 51.5193 98.182 50.4353C99.7317 51.5193 101.612 52.155 103.637 52.155C105.662 52.155 107.542 51.5193 109.091 50.4353C110.641 51.5193 112.521 52.155 114.546 52.155C114.997 52.155 115.428 52.0818 115.863 52.0208V47.8031H115.862Z" fill="#BE5EFF"/>
<path d="M72.4135 60.5005H14.4829V102.224H72.4135V60.5005Z" fill="#B4E1FA"/>
<path d="M105.518 60.5005H80.6909V102.224H105.518V60.5005Z" fill="#B4E1FA"/>
<path d="M105.518 60.5005H80.6904V66.7591H105.518V60.5005Z" fill="#A0D2F0"/>
<path d="M105.517 79.9713L91.0344 60.5H86.8965L105.517 85.5345V79.9713Z" fill="#DAF0FD"/>
<path d="M82.7583 60.5H80.6895V68.8448L105.517 102.224V91.0974L82.7583 60.5Z" fill="#A0D2F0"/>
<path d="M95.6895 66.7585L91.0343 60.5H86.8965L91.5516 66.7585H95.6895Z" fill="#B4E1FA"/>
<path d="M66.207 102.224H62.0691L31.0347 60.5H35.1725L66.207 102.224Z" fill="#DAF0FD"/>
<path d="M57.9309 102.224H49.6552L18.6206 60.5H26.8966L57.9309 102.224Z" fill="#A0D2F0"/>
<path d="M72.4135 60.501H14.4829V66.7597H72.4135V60.501Z" fill="#A0D2F0"/>
<path d="M39.8277 66.7585L35.1726 60.5H31.0347L35.6898 66.7585H39.8277Z" fill="#B4E1FA"/>
<path d="M49.0908 47.9827C46.0784 47.9827 43.6362 45.5201 43.6362 42.4826V37.5516H54.5454V42.4826C54.5454 45.5201 52.1033 47.9827 49.0908 47.9827Z" fill="#A82FF9"/>
<path d="M70.9092 47.9827C67.8968 47.9827 65.4546 45.5201 65.4546 42.4826V37.5516H76.3638V42.4826C76.3636 45.5201 73.9216 47.9827 70.9092 47.9827Z" fill="#A82FF9"/>
<path d="M27.273 47.9827C24.2605 47.9827 21.8184 45.5201 21.8184 42.4826V37.5516H32.7276V42.4826C32.7273 45.5201 30.2854 47.9827 27.273 47.9827Z" fill="#A82FF9"/>
<path d="M5.45461 47.9826C2.44219 47.9826 0 45.5201 0 42.4826V37.5516H10.9092V42.4826C10.9092 45.5201 8.46703 47.9826 5.45461 47.9826Z" fill="#A82FF9"/>
<path d="M92.727 47.9827C89.7146 47.9827 87.2725 45.5201 87.2725 42.4826V37.5516H98.1816V42.4826C98.1816 45.5201 95.7397 47.9827 92.727 47.9827Z" fill="#A82FF9"/>
<path d="M38.1817 47.9826C35.1692 47.9826 32.7271 45.5201 32.7271 42.4826V37.5516H43.6363V42.4826C43.6363 45.5201 41.1943 47.9826 38.1817 47.9826Z" fill="#C7CFE2"/>
<path d="M81.8179 47.9827C78.8055 47.9827 76.3633 45.5201 76.3633 42.4826V37.5516H87.2725V42.4826C87.2725 45.5201 84.8303 47.9827 81.8179 47.9827Z" fill="#C7CFE2"/>
<path d="M114.545 47.9826C111.533 47.9826 109.091 45.5201 109.091 42.4826V37.5516H120V42.4826C120 45.5201 117.558 47.9826 114.545 47.9826Z" fill="#A82FF9"/>
<path d="M103.637 47.9827C100.624 47.9827 98.1821 45.5201 98.1821 42.4826V37.5516H109.091V42.4826C109.091 45.5201 106.649 47.9827 103.637 47.9827Z" fill="#C7CFE2"/>
<path d="M16.3638 47.9826C13.3514 47.9826 10.9092 45.5201 10.9092 42.4826V37.5516H21.8184V42.4826C21.8184 45.5201 19.3762 47.9826 16.3638 47.9826Z" fill="#C7CFE2"/>
<path d="M60 47.9827C56.9876 47.9827 54.5454 45.5201 54.5454 42.4826V37.5516H65.4545V42.4826C65.4545 45.5201 63.0124 47.9827 60 47.9827Z" fill="#C7CFE2"/>
<path d="M54.5452 37.5516H43.6362L44.7647 20.8619H54.9216L54.5452 37.5516Z" fill="#BC5AFE"/>
<path d="M76.3635 37.5516H65.4545L65.0781 20.8619H75.235L76.3635 37.5516Z" fill="#BC5AFE"/>
<path d="M32.7273 37.5516H21.8184L24.4516 20.8619H34.6082L32.7273 37.5516Z" fill="#BC5AFE"/>
<path d="M10.9092 37.5516H0L4.13789 20.8619H14.2948L10.9092 37.5516Z" fill="#BC5AFE"/>
<path d="M98.1819 37.5516H87.273L85.3921 20.8619H95.5487L98.1819 37.5516Z" fill="#BC5AFE"/>
<path d="M43.6363 37.5516H32.7271L34.6079 20.8619H44.7648L43.6363 37.5516Z" fill="#EFF2FA"/>
<path d="M87.2726 37.5516H76.3634L75.2349 20.8619H85.3917L87.2726 37.5516Z" fill="#EFF2FA"/>
<path d="M120 37.5516H109.091L105.705 20.8619H115.862L120 37.5516Z" fill="#BC5AFE"/>
<path d="M109.091 37.5516H98.182L95.5488 20.8619H105.705L109.091 37.5516Z" fill="#EFF2FA"/>
<path d="M21.8182 37.5516H10.9092L14.2947 20.8619H24.4514L21.8182 37.5516Z" fill="#EFF2FA"/>
<path d="M65.4546 37.5516H54.5454L54.9218 20.8619H65.0782L65.4546 37.5516Z" fill="#EFF2FA"/>
<path d="M70.3448 62.5861V100.138H16.5517V62.5861H70.3448ZM72.4138 58.4137H14.4826C13.3401 58.4137 12.4136 59.3479 12.4136 60.5V102.224C12.4136 103.376 13.3401 104.311 14.4826 104.311H72.4136C73.5562 104.311 74.4826 103.376 74.4826 102.224V60.5C74.4826 59.3479 73.5564 58.4137 72.4138 58.4137Z" fill="#8F96AC"/>
<path d="M105.517 58.4137H80.6897C79.5471 58.4137 78.6206 59.3479 78.6206 60.5V112.655H107.586V60.5C107.586 59.3479 106.66 58.4137 105.517 58.4137ZM103.448 100.138H82.7585V62.5861H103.448V100.138Z" fill="#8F96AC"/>
<path d="M93.1033 20.8618H26.8967C24.6113 20.8618 22.7588 18.9939 22.7588 16.6895V4.17237C22.7588 1.86794 24.6113 0 26.8967 0H93.1036C95.389 0 97.2415 1.86794 97.2415 4.17237V16.6897C97.2415 18.9939 95.389 20.8618 93.1033 20.8618Z" fill="#AFB9D2"/>
<path d="M92.0691 16.6895H27.931C27.3596 16.6895 26.8965 16.2225 26.8965 15.6463V5.21552C26.8965 4.63935 27.3596 4.17236 27.931 4.17236H92.0689C92.6403 4.17236 93.1034 4.63935 93.1034 5.21552V15.6466C93.1034 16.2225 92.6403 16.6895 92.0691 16.6895Z" fill="#6059F0"/>
<path d="M27.931 16.6895H92.0689C92.6403 16.6895 93.1034 16.2225 93.1034 15.6463V11.474C93.1034 12.0501 92.6403 12.5171 92.0689 12.5171H27.931C27.3596 12.5171 26.8965 12.0501 26.8965 11.474V15.6463C26.8967 16.2225 27.3598 16.6895 27.931 16.6895Z" fill="#423AF2"/>
<path d="M118.965 116.914H1.03453C0.463125 116.914 0 116.447 0 115.871V113.784C0 113.208 0.463125 112.741 1.03453 112.741H118.965C119.537 112.741 120 113.208 120 113.784V115.871C120 116.447 119.537 116.914 118.965 116.914Z" fill="#8F96AC"/>
</svg>
