<svg width="15" height="13" viewBox="0 0 15 13" fill="none" xmlns="http://www.w3.org/2000/svg">
<path d="M13.7405 4.45001L9.7733 3.87344L7.99986 0.278131C7.95142 0.179693 7.87173 0.100006 7.7733 0.0515683C7.52642 -0.0703067 7.22642 0.0312558 7.10298 0.278131L5.32955 3.87344L1.36236 4.45001C1.25298 4.46563 1.15298 4.51719 1.07642 4.59532C0.983861 4.69045 0.932856 4.81844 0.934614 4.95117C0.936372 5.08389 0.990749 5.21048 1.0858 5.30313L3.95611 8.10157L3.27798 12.0531C3.26208 12.1451 3.27225 12.2396 3.30735 12.326C3.34244 12.4125 3.40105 12.4873 3.47653 12.5422C3.55201 12.597 3.64134 12.6296 3.73439 12.6362C3.82744 12.6428 3.92049 12.6233 4.00298 12.5797L7.55142 10.7141L11.0999 12.5797C11.1967 12.6313 11.3092 12.6484 11.417 12.6297C11.6889 12.5828 11.8717 12.325 11.8249 12.0531L11.1467 8.10157L14.017 5.30313C14.0952 5.22657 14.1467 5.12657 14.1624 5.01719C14.2045 4.74376 14.0139 4.49063 13.7405 4.45001Z" fill="url(#paint0_linear)"/>
<defs>
<linearGradient id="paint0_linear" x1="-74" y1="18" x2="72" y2="17.5" gradientUnits="userSpaceOnUse">
<stop stop-color="#DBB702"/>
<stop offset="1" stop-color="#DBB702" stop-opacity="0"/>
</linearGradient>
</defs>
</svg>
