<svg width="149" height="101" viewBox="0 0 149 101" fill="none" xmlns="http://www.w3.org/2000/svg">
<path d="M145.458 64.293L137.57 58.8859L137.464 37.578C137.454 35.6317 135.988 34.2815 133.884 34.2815H109.454L94.4521 87.9634H136.442C139.019 87.9634 141.668 85.9605 142.358 83.49L146.651 68.1288C147.09 66.5576 146.637 65.1016 145.458 64.293Z" fill="#A82FF9"/>
<path d="M109.699 81.2537C109.364 81.2537 108.911 81.1875 108.659 80.8731C108.434 80.5907 108.389 80.1253 108.537 79.5957L111.199 70.0698H99.4526L94.4521 87.9638H136.442C139.019 87.9638 141.667 85.9609 142.358 83.4904L142.983 81.2537H109.699Z" fill="#BC5CFD"/>
<path d="M145.458 64.293L137.57 58.8859L137.464 37.578C137.455 35.6317 135.988 34.2815 133.884 34.2815H121.2L111.199 70.0695H146.109L146.652 68.1288C147.091 66.5576 146.638 65.1016 145.458 64.293Z" fill="#A82FF9"/>
<path d="M47.7187 29.8082H113.037C114.325 29.8082 115.09 30.8097 114.745 32.0449L99.1179 87.9636H31.4668C30.1785 87.9636 29.414 86.9621 29.7591 85.7268L44.7608 32.0449C45.106 30.8097 46.4304 29.8082 47.7187 29.8082Z" fill="#423AF2"/>
<path d="M99.1181 87.9636L100.993 81.2534H100.368H41.0702C39.5671 81.2534 38.4729 79.8865 38.862 78.4941L40.6928 71.9413C41.0388 70.703 42.4031 70.0534 43.6736 70.4527C48.3947 71.9363 53.3827 72.5401 58.4419 72.2248C76.7524 71.0841 91.3767 57.3762 94.8656 40.1036C95.592 36.5077 95.6769 33.7741 95.1828 29.8079H47.7187C46.4304 29.8079 45.106 30.8094 44.7608 32.0446L29.7592 85.7266C29.414 86.9618 30.1782 87.9633 31.4668 87.9633H99.1181V87.9636Z" fill="#625CF4"/>
<path d="M130.268 93.8418C134.704 90.12 135.89 84.4638 132.919 81.2083C129.947 77.9527 123.943 78.3306 119.508 82.0523C115.072 85.7741 113.886 91.4303 116.857 94.6858C119.829 97.9414 125.833 97.5635 130.268 93.8418Z" fill="#5D5360"/>
<path d="M57.9222 93.8773C62.3574 90.1556 63.544 84.4994 60.5725 81.2438C57.601 77.9883 51.5967 78.3662 47.1615 82.0879C42.7263 85.8096 41.5397 91.4659 44.5112 94.7214C47.4827 97.977 53.487 97.5991 57.9222 93.8773Z" fill="#5D5360"/>
<path d="M121.241 58.8861H137.571L137.493 43.2286H125.617C123.04 43.2286 120.392 45.2315 119.701 47.7021L117.826 54.4123C117.135 56.8832 118.664 58.8861 121.241 58.8861Z" fill="#DBEAFF"/>
<path d="M55.8369 65.5963C73.8741 65.5963 88.4961 51.5762 88.4961 34.2817C88.4961 16.9871 73.8741 2.9671 55.8369 2.9671C37.7997 2.9671 23.1777 16.9871 23.1777 34.2817C23.1777 51.5762 37.7997 65.5963 55.8369 65.5963Z" fill="#ECEAEC"/>
<path d="M55.8369 58.8859C70.0088 58.8859 81.4974 47.8702 81.4974 34.2817C81.4974 20.6933 70.0088 9.67761 55.8369 9.67761C41.6649 9.67761 30.1763 20.6933 30.1763 34.2817C30.1763 47.8702 41.6649 58.8859 55.8369 58.8859Z" fill="white"/>
<path d="M55.837 38.7552C58.4137 38.7552 60.5025 36.7523 60.5025 34.2817C60.5025 31.8111 58.4137 29.8082 55.837 29.8082C53.2602 29.8082 51.1714 31.8111 51.1714 34.2817C51.1714 36.7523 53.2602 38.7552 55.837 38.7552Z" fill="#5D5360"/>
<path d="M137.57 58.8861L137.537 52.1759H127.157C126.822 52.1759 126.369 52.1098 126.118 51.7953C125.891 51.5129 125.847 51.0475 125.995 50.5179L127.87 43.8074L128.032 43.2286H125.617C123.04 43.2286 120.391 45.2315 119.701 47.7021L117.825 54.4123C117.135 56.8829 118.664 58.8858 121.241 58.8858H137.57V58.8861Z" fill="#C3DDFF"/>
<path d="M124.778 85.8711C123.573 85.8711 122.596 86.8081 122.596 87.9639C122.596 89.1196 123.573 90.0566 124.778 90.0566H124.802C126.007 90.0566 126.973 89.1196 126.973 87.9639C126.973 86.8081 125.984 85.8711 124.778 85.8711Z" fill="black"/>
<path d="M52.4619 85.8711C51.2565 85.8711 50.2793 86.8081 50.2793 87.9639C50.2793 89.1196 51.2565 90.0566 52.4619 90.0566H52.4852C53.6906 90.0566 54.6562 89.1196 54.6562 87.9639C54.6562 86.8081 53.6676 85.8711 52.4619 85.8711Z" fill="black"/>
<path d="M146.727 62.5908L139.747 57.806L139.647 37.5682C139.631 34.4514 137.207 32.189 133.884 32.189H116.941C117.139 31.0857 116.885 30.0008 116.214 29.1621C115.478 28.2429 114.32 27.7156 113.037 27.7156H97.8269C96.6215 27.7156 95.6443 28.6526 95.6443 29.8083C95.6443 30.9641 96.6215 31.901 97.8269 31.901L112.525 31.9013L97.4427 85.8709H64.2961C64.3409 83.7748 63.7199 81.8105 62.4741 80.2537C60.7556 78.1066 58.0879 76.9238 54.9622 76.9238C49.3445 76.9238 43.7681 80.7451 41.5715 85.8709L31.9783 85.8706L36.2428 70.6107C36.5548 69.4943 35.8639 68.3469 34.6993 68.0475C33.537 67.7495 32.3383 68.4108 32.026 69.5275L27.6506 85.1853C27.3049 86.422 27.538 87.6704 28.29 88.6099C29.0257 89.529 30.1836 90.0564 31.4667 90.0564H40.6278C40.583 92.1525 41.2037 94.1166 42.4495 95.6733C44.1679 97.8207 46.8356 99.0032 49.9614 99.0032C55.5791 99.0032 61.1555 95.1819 63.3521 90.0564H112.944C112.9 92.1525 113.52 94.1166 114.766 95.6733C116.485 97.8207 119.152 99.0032 122.278 99.0032C127.896 99.0032 133.472 95.1819 135.669 90.0564H136.442C139.998 90.0564 143.523 87.4101 144.467 84.0316L148.759 68.6706C149.437 66.2442 148.659 63.9145 146.727 62.5908ZM59.6847 87.4221C58.5643 91.4309 54.1118 94.8178 49.9614 94.8178C48.2241 94.8178 46.7862 94.2167 45.9126 93.1255C44.9732 91.9518 44.734 90.3111 45.2389 88.5052C46.359 84.4961 50.8118 81.1093 54.9622 81.1093C56.6995 81.1093 58.1374 81.7103 59.011 82.8016C59.9501 83.9755 60.1896 85.6162 59.6847 87.4221ZM135.377 56.7931H121.24C120.871 56.7931 120.371 56.7175 120.082 56.3564C119.827 56.0383 119.773 55.5271 119.933 54.954L121.808 48.2439C122.243 46.6872 124.023 45.3216 125.616 45.3216H135.319L135.377 56.7931ZM132.001 87.4221C130.881 91.4309 126.428 94.8178 122.278 94.8178C120.541 94.8178 119.103 94.2167 118.229 93.1255C117.29 91.9518 117.051 90.3111 117.555 88.5052C118.676 84.4961 123.128 81.1093 127.279 81.1093C129.016 81.1093 130.454 81.7103 131.328 82.8016C132.267 83.9755 132.506 85.6162 132.001 87.4221ZM140.25 82.9486C139.83 84.4501 138.16 85.7702 136.613 85.8623C136.656 83.7695 136.034 81.8085 134.79 80.254C133.072 78.1069 130.404 76.9241 127.278 76.9241C121.661 76.9241 116.084 80.7454 113.888 85.8712H101.962L105.793 72.1627H132.111C133.317 72.1627 134.294 71.2257 134.294 70.07C134.294 68.9142 133.317 67.9772 132.111 67.9772H106.962L115.794 36.3747H133.883C134.518 36.3747 135.276 36.5854 135.281 37.5885L135.299 41.1364H125.615C122.06 41.1364 118.535 43.7827 117.591 47.161L115.716 53.8711C115.202 55.711 115.531 57.5457 116.618 58.9045C117.673 60.223 119.358 60.9789 121.24 60.9789H136.87L144.188 65.9958C144.81 66.4222 144.616 67.3221 144.542 67.5877L144.433 67.9772H141.443C140.237 67.9772 139.26 68.9142 139.26 70.07C139.26 71.2257 140.237 72.1627 141.443 72.1627H143.264L140.25 82.9486Z" fill="black"/>
<path d="M55.8374 67.6893C75.0491 67.6893 90.6791 52.7031 90.6791 34.282C90.6791 15.861 75.0491 0.874756 55.8374 0.874756C36.6256 0.874756 20.9956 15.8612 20.9956 34.282C20.9956 52.7028 36.6256 67.6893 55.8374 67.6893ZM55.8374 5.06022C72.6422 5.06022 86.3139 18.1691 86.3139 34.282C86.3139 50.395 72.6425 63.5039 55.8374 63.5039C39.0323 63.5039 25.3608 50.395 25.3608 34.282C25.3608 18.1691 39.0326 5.06022 55.8374 5.06022Z" fill="#363636"/>
<path d="M46.5061 45.3214C47.0645 45.3214 47.6233 45.1172 48.0493 44.7084L52.7922 40.1607C53.7101 40.5997 54.7438 40.848 55.8371 40.848C59.6133 40.848 62.6852 37.9023 62.6852 34.2818C62.6852 33.2335 62.4262 32.2424 61.9684 31.3623L73.7099 20.1046C74.5623 19.2873 74.5623 17.9622 73.7099 17.1452C72.8576 16.3276 71.4755 16.3279 70.6234 17.1452L58.882 28.4029C57.9641 27.964 56.9304 27.716 55.8371 27.716C52.0609 27.716 48.989 30.6617 48.989 34.2821C48.989 35.3304 49.248 36.3216 49.7054 37.2016L44.9625 41.7493C44.1101 42.5665 44.1101 43.8917 44.9625 44.7087C45.3889 45.1172 45.9473 45.3214 46.5061 45.3214ZM55.8371 31.9012C57.2063 31.9012 58.32 32.9693 58.32 34.2818C58.32 35.5944 57.206 36.6625 55.8371 36.6625C54.4682 36.6625 53.3542 35.5944 53.3542 34.2818C53.3542 32.9693 54.4682 31.9012 55.8371 31.9012Z" fill="#323232"/>
<path d="M55.8369 16.2436C57.0423 16.2436 58.0195 15.3066 58.0195 14.1508V11.9141C58.0195 10.7583 57.0423 9.82129 55.8369 9.82129C54.6315 9.82129 53.6543 10.7583 53.6543 11.9141V14.1508C53.6543 15.3069 54.6315 16.2436 55.8369 16.2436Z" fill="#353535"/>
<path d="M55.8369 52.3198C54.6315 52.3198 53.6543 53.2568 53.6543 54.4125V56.6493C53.6543 57.805 54.6315 58.742 55.8369 58.742C57.0423 58.742 58.0195 57.805 58.0195 56.6493V54.4125C58.0195 53.2568 57.0423 52.3198 55.8369 52.3198Z" fill="#353535"/>
<path d="M76.832 36.3746H79.1648C80.3702 36.3746 81.3474 35.4376 81.3474 34.2819C81.3474 33.1261 80.3702 32.1891 79.1648 32.1891H76.832C75.6266 32.1891 74.6494 33.1261 74.6494 34.2819C74.6494 35.4376 75.6266 36.3746 76.832 36.3746Z" fill="#353535"/>
<path d="M37.0247 34.2819C37.0247 33.1261 36.0475 32.1891 34.8421 32.1891H32.5093C31.3039 32.1891 30.3267 33.1261 30.3267 34.2819C30.3267 35.4376 31.3039 36.3746 32.5093 36.3746H34.8421C36.0475 36.3746 37.0247 35.4376 37.0247 34.2819Z" fill="#353535"/>
<path d="M25.5105 61.2666H2.18259C0.97722 61.2666 0 62.2036 0 63.3593C0 64.5151 0.97722 65.4521 2.18259 65.4521H25.5105C26.7158 65.4521 27.6931 64.5151 27.6931 63.3593C27.6931 62.2036 26.7158 61.2666 25.5105 61.2666Z" fill="#353535"/>
<path d="M23.1777 70.2137H9.18067C7.97528 70.2137 6.99805 71.1507 6.99805 72.3065C6.99805 73.4622 7.97528 74.3992 9.18067 74.3992H23.1777C24.3831 74.3992 25.3603 73.4622 25.3603 72.3065C25.3603 71.1507 24.3831 70.2137 23.1777 70.2137Z" fill="#353535"/>
<path d="M20.8448 79.1605H16.1792C14.9738 79.1605 13.9966 80.0975 13.9966 81.2533C13.9966 82.4091 14.9738 83.3461 16.1792 83.3461H20.8448C22.0501 83.3461 23.0274 82.4091 23.0274 81.2533C23.0274 80.0975 22.0501 79.1605 20.8448 79.1605Z" fill="#353535"/>
</svg>
