<svg width="18" height="18" viewBox="0 0 18 18" fill="none" xmlns="http://www.w3.org/2000/svg">
<path d="M9.00195 1.50012C4.86195 1.50012 1.50195 4.86012 1.50195 9.00012C1.50195 13.1401 4.86195 16.5001 9.00195 16.5001H12.752V15.0001H9.00195C5.74695 15.0001 3.00195 12.2551 3.00195 9.00012C3.00195 5.74512 5.74695 3.00012 9.00195 3.00012C12.257 3.00012 15.002 5.74512 15.002 9.00012V10.0726C15.002 10.6651 14.4694 11.2501 13.877 11.2501C13.2845 11.2501 12.752 10.6651 12.752 10.0726V9.00012C12.752 6.93012 11.072 5.25012 9.00195 5.25012C6.93195 5.25012 5.25195 6.93012 5.25195 9.00012C5.25195 11.0701 6.93195 12.7501 9.00195 12.7501C10.037 12.7501 10.982 12.3301 11.657 11.6476C12.1445 12.3151 12.9845 12.7501 13.877 12.7501C15.3545 12.7501 16.5019 11.5501 16.5019 10.0726V9.00012C16.5019 4.86012 13.142 1.50012 9.00195 1.50012ZM9.00195 11.2501C7.75695 11.2501 6.75195 10.2451 6.75195 9.00012C6.75195 7.75512 7.75695 6.75012 9.00195 6.75012C10.247 6.75012 11.252 7.75512 11.252 9.00012C11.252 10.2451 10.247 11.2501 9.00195 11.2501Z" fill="#2E29A4"/>
</svg>
