<svg width="45" height="45" viewBox="0 0 45 45" fill="none" xmlns="http://www.w3.org/2000/svg">
<path fill-rule="evenodd" clip-rule="evenodd" d="M22.5 0C10.0725 0 0 10.0744 0 22.5C0 34.9256 10.0725 45 22.5 45C34.9256 45 45 34.9256 45 22.5C45 10.0744 34.9256 0 22.5 0ZM22.7625 35.6587C15.51 35.6587 9.6375 29.7712 9.6375 22.5C9.6375 15.2288 15.51 9.34125 22.7625 9.34125C26.3063 9.34125 29.2688 10.6481 31.5413 12.7706L27.84 16.4794V16.4719C26.4619 15.1556 24.7144 14.4806 22.7625 14.4806C18.4313 14.4806 14.9119 18.1481 14.9119 22.4925C14.9119 26.8331 18.4313 30.5119 22.7625 30.5119C26.6925 30.5119 29.3663 28.2581 29.9175 25.1644H22.7625V20.0325H35.1094C35.2744 20.9137 35.3625 21.8325 35.3625 22.7962C35.3625 30.315 30.3431 35.6587 22.7625 35.6587Z" fill="white"/>
</svg>
