<svg width="18" height="18" viewBox="0 0 18 18" fill="none" xmlns="http://www.w3.org/2000/svg">
<path d="M9 1.5C7.01873 1.52527 5.12572 2.32356 3.72464 3.72464C2.32356 5.12572 1.52527 7.01873 1.5 9C1.50926 10.1542 1.78479 11.2907 2.30513 12.3209C2.82548 13.3512 3.57659 14.2475 4.5 14.94V15H4.575C5.84489 15.9731 7.40014 16.5005 9 16.5005C10.5999 16.5005 12.1551 15.9731 13.425 15H13.5V14.94C14.4234 14.2475 15.1745 13.3512 15.6949 12.3209C16.2152 11.2907 16.4907 10.1542 16.5 9C16.4747 7.01873 15.6764 5.12572 14.2754 3.72464C12.8743 2.32356 10.9813 1.52527 9 1.5ZM6.0525 14.1975C6.16199 13.6961 6.43961 13.2472 6.83931 12.9252C7.23901 12.6033 7.73677 12.4277 8.25 12.4275H9.75C10.2632 12.4277 10.761 12.6033 11.1607 12.9252C11.5604 13.2472 11.838 13.6961 11.9475 14.1975C11.0542 14.7231 10.0365 15.0003 9 15.0003C7.9635 15.0003 6.94585 14.7231 6.0525 14.1975ZM13.2075 13.23C12.9222 12.5482 12.4418 11.9659 11.8267 11.5563C11.2115 11.1466 10.4891 10.9279 9.75 10.9275H8.25C7.51093 10.9279 6.78845 11.1466 6.17331 11.5563C5.55816 11.9659 5.07778 12.5482 4.7925 13.23C4.2305 12.6772 3.78293 12.0192 3.47536 11.2934C3.16779 10.5676 3.00626 9.78826 3 9C3.01945 7.41474 3.65784 5.8999 4.77887 4.77887C5.8999 3.65784 7.41474 3.01945 9 3C10.5853 3.01945 12.1001 3.65784 13.2211 4.77887C14.3422 5.8999 14.9805 7.41474 15 9C14.9937 9.78826 14.8322 10.5676 14.5246 11.2934C14.2171 12.0192 13.7695 12.6772 13.2075 13.23Z" fill="#2E29A4"/>
<path d="M8.99982 4.5C8.60333 4.49077 8.20908 4.56205 7.84093 4.70955C7.47278 4.85704 7.13837 5.07768 6.85793 5.35812C6.57749 5.63855 6.35686 5.97296 6.20936 6.34111C6.06187 6.70927 5.99058 7.10351 5.99982 7.5C5.99058 7.89649 6.06187 8.29074 6.20936 8.65889C6.35686 9.02704 6.57749 9.36145 6.85793 9.64189C7.13837 9.92233 7.47278 10.143 7.84093 10.2905C8.20908 10.438 8.60333 10.5092 8.99982 10.5C9.39631 10.5092 9.79055 10.438 10.1587 10.2905C10.5269 10.143 10.8613 9.92233 11.1417 9.64189C11.4221 9.36145 11.6428 9.02704 11.7903 8.65889C11.9378 8.29074 12.0091 7.89649 11.9998 7.5C12.0091 7.10351 11.9378 6.70927 11.7903 6.34111C11.6428 5.97296 11.4221 5.63855 11.1417 5.35812C10.8613 5.07768 10.5269 4.85704 10.1587 4.70955C9.79055 4.56205 9.39631 4.49077 8.99982 4.5ZM8.99982 9C8.80028 9.00965 8.60093 8.97745 8.41458 8.90548C8.22822 8.83351 8.05898 8.72336 7.91772 8.5821C7.77646 8.44084 7.66631 8.2716 7.59434 8.08524C7.52237 7.89889 7.49017 7.69954 7.49982 7.5C7.49017 7.30046 7.52237 7.10112 7.59434 6.91476C7.66631 6.7284 7.77646 6.55916 7.91772 6.4179C8.05898 6.27664 8.22822 6.16649 8.41458 6.09452C8.60093 6.02255 8.80028 5.99036 8.99982 6C9.19936 5.99036 9.39871 6.02255 9.58506 6.09452C9.77142 6.16649 9.94066 6.27664 10.0819 6.4179C10.2232 6.55916 10.3333 6.7284 10.4053 6.91476C10.4773 7.10112 10.5095 7.30046 10.4998 7.5C10.5095 7.69954 10.4773 7.89889 10.4053 8.08524C10.3333 8.2716 10.2232 8.44084 10.0819 8.5821C9.94066 8.72336 9.77142 8.83351 9.58506 8.90548C9.39871 8.97745 9.19936 9.00965 8.99982 9Z" fill="#2E29A4"/>
</svg>
