<svg width="30" height="25" viewBox="0 0 30 25" fill="none" xmlns="http://www.w3.org/2000/svg">
<path d="M8.33333 15.9435H23.3333C24.25 15.9435 25 16.5749 25 17.3465C25 18.1181 24.25 18.7495 23.3333 18.7495H6.66667C5.75 18.7495 5 18.1181 5 17.3465V3.3166H1.66667C0.75 3.3166 0 2.68525 0 1.91361C0 1.14197 0.75 0.51062 1.66667 0.51062H6.66667C7.58333 0.51062 8.33333 1.14197 8.33333 1.91361V4.71959H30L23.3333 14.5405H8.33333V15.9435ZM7.5 20.1525C8.88333 20.1525 10 21.0925 10 22.257C10 23.4214 8.88333 24.3614 7.5 24.3614C6.11667 24.3614 5 23.4214 5 22.257C5 21.0925 6.11667 20.1525 7.5 20.1525ZM22.5 20.1525C23.8833 20.1525 25 21.0925 25 22.257C25 23.4214 23.8833 24.3614 22.5 24.3614C21.1167 24.3614 20 23.4214 20 22.257C20 21.0925 21.1167 20.1525 22.5 20.1525Z" fill="#423AF2"/>
</svg>
