<svg width="18" height="15" viewBox="0 0 18 15" fill="none" xmlns="http://www.w3.org/2000/svg">
<path d="M2.33317 0.833328C1.89114 0.833328 1.46722 1.00892 1.15466 1.32148C0.842099 1.63404 0.666504 2.05797 0.666504 2.49999V5.83333C1.10853 5.83333 1.53245 6.00892 1.84502 6.32148C2.15758 6.63404 2.33317 7.05797 2.33317 7.5C2.33317 7.94202 2.15758 8.36595 1.84502 8.67851C1.53245 8.99107 1.10853 9.16666 0.666504 9.16666V12.5C0.666504 12.942 0.842099 13.3659 1.15466 13.6785C1.46722 13.9911 1.89114 14.1667 2.33317 14.1667H15.6665C16.1085 14.1667 16.5325 13.9911 16.845 13.6785C17.1576 13.3659 17.3332 12.942 17.3332 12.5V9.16666C16.8911 9.16666 16.4672 8.99107 16.1547 8.67851C15.8421 8.36595 15.6665 7.94202 15.6665 7.5C15.6665 7.05797 15.8421 6.63404 16.1547 6.32148C16.4672 6.00892 16.8911 5.83333 17.3332 5.83333V2.49999C17.3332 2.05797 17.1576 1.63404 16.845 1.32148C16.5325 1.00892 16.1085 0.833328 15.6665 0.833328H2.33317ZM11.9165 3.33333L13.1665 4.58333L6.08317 11.6667L4.83317 10.4167L11.9165 3.33333ZM6.3415 3.36666C7.15817 3.36666 7.8165 4.025 7.8165 4.84166C7.8165 5.23286 7.6611 5.60803 7.38449 5.88464C7.10787 6.16126 6.7327 6.31666 6.3415 6.31666C5.52484 6.31666 4.8665 5.65833 4.8665 4.84166C4.8665 4.45047 5.02191 4.0753 5.29852 3.79868C5.57514 3.52206 5.95031 3.36666 6.3415 3.36666ZM11.6582 8.68333C12.4748 8.68333 13.1332 9.34166 13.1332 10.1583C13.1332 10.5495 12.9778 10.9247 12.7012 11.2013C12.4245 11.4779 12.0494 11.6333 11.6582 11.6333C10.8415 11.6333 10.1832 10.975 10.1832 10.1583C10.1832 9.76713 10.3386 9.39196 10.6152 9.11535C10.8918 8.83873 11.267 8.68333 11.6582 8.68333Z" fill="white"/>
</svg>
