<svg width="63" height="62" viewBox="0 0 63 62" fill="none" xmlns="http://www.w3.org/2000/svg">
<path d="M30.4263 1.16793L19.0006 6.50895C18.0292 6.96278 17.4328 7.99783 17.5032 9.10456C17.7017 12.2133 18.4549 18.586 21.3069 23.3399C24.9042 29.3364 29.3711 30.9057 30.9348 31.2855C31.312 31.3766 31.7027 31.3766 32.0797 31.2855C33.6431 30.9057 38.1102 29.3364 41.7076 23.3399C44.5598 18.5863 45.3127 12.213 45.5113 9.10456C45.5817 7.99783 44.9847 6.96278 44.0139 6.50895L32.5882 1.16793C31.9007 0.846123 31.1135 0.846123 30.4263 1.16793Z" fill="#5F58FC"/>
<path d="M25.6116 26.887C25.4812 26.887 25.3507 26.838 25.2504 26.7395C24.1186 25.6287 23.0895 24.3061 22.1914 22.8092C20.1832 19.4622 19.274 15.2568 18.8648 12.318C18.8256 12.0359 19.0223 11.7755 19.3044 11.7363C19.587 11.6945 19.847 11.8936 19.8864 12.1759C20.2825 15.0193 21.1571 19.0801 23.0759 22.2783C23.9291 23.7007 24.9038 24.9539 25.9729 26.0031C26.1764 26.2027 26.1792 26.5291 25.9796 26.7326C25.8788 26.8354 25.7452 26.887 25.6116 26.887ZM19.1392 10.7128C18.8756 10.7128 18.6508 10.512 18.6263 10.2443L18.6113 10.078C18.5868 9.79408 18.7972 9.54448 19.0809 9.51998C19.3627 9.49162 19.6144 9.70564 19.6389 9.98928L19.6533 10.1499C19.6794 10.4336 19.4705 10.6845 19.1869 10.7105C19.1709 10.7121 19.1549 10.7128 19.1392 10.7128Z" fill="url(#paint0_linear)"/>
<path d="M44.014 6.50896L39.5696 4.4314C40.1057 4.96413 40.405 5.72559 40.3542 6.52598C40.1554 9.63446 39.4027 16.0077 36.5506 20.7613C32.9532 26.7578 28.4863 28.3271 26.9227 28.707C26.6037 28.7841 26.2754 28.7918 25.9531 28.7384C28.1044 30.43 30.0185 31.063 30.9349 31.2855C31.3122 31.3766 31.7028 31.3766 32.0798 31.2855C33.6432 30.9057 38.1104 29.3361 41.7077 23.3399C44.5599 18.586 45.3128 12.213 45.5114 9.10456C45.5818 7.99784 44.9848 6.96279 44.014 6.50896Z" fill="#615AF8"/>
<path d="M44.0139 6.50898L41.9569 5.54742C42.6129 6.07964 42.9897 6.92413 42.9329 7.81529C42.7341 10.9238 41.9814 17.297 39.1293 22.0506C35.5319 28.0471 31.065 29.6164 29.5014 29.9963C29.1244 30.0873 28.7337 30.0873 28.3565 29.9963C28.0729 29.9274 27.6925 29.8186 27.2402 29.652C28.8477 30.6729 30.2066 31.1087 30.9351 31.2856C31.3123 31.3766 31.703 31.3766 32.08 31.2856C33.6434 30.9057 38.1105 29.3361 41.7079 23.3399C44.56 18.586 45.313 12.2131 45.5115 9.10458C45.5817 7.99785 44.9847 6.96281 44.0139 6.50898Z" fill="#423AF2"/>
<path d="M30.7466 5.6018L22.7045 9.36112C22.0207 9.6806 21.6011 10.4091 21.6504 11.188C21.7902 13.3762 22.3203 17.8617 24.3277 21.2077C26.8599 25.4283 30.0037 26.5329 31.1042 26.8003C31.3698 26.8645 31.6447 26.8645 31.9101 26.8003C33.0106 26.5329 36.1547 25.4283 38.6866 21.2077C40.694 17.8617 41.2239 13.376 41.3639 11.188C41.4134 10.4091 40.9934 9.6806 40.3098 9.36112L32.268 5.6018C31.7842 5.37565 31.2301 5.37565 30.7466 5.6018Z" fill="#F1F2F2"/>
<path d="M40.3102 9.36115L35.7301 7.22015C36.0581 7.58915 36.2402 8.0863 36.2069 8.6095C36.0671 10.7974 35.5372 15.2831 33.5295 18.6291C30.9974 22.8497 27.8536 23.9544 26.753 24.2215C26.7373 24.2254 26.7213 24.2267 26.7056 24.23C28.5658 26.0152 30.3347 26.6132 31.1041 26.8001C31.3697 26.8643 31.6446 26.8643 31.9099 26.8001C33.0105 26.5327 36.1546 25.4281 38.6865 21.2077C40.6939 17.8617 41.2238 13.376 41.3638 11.1881C41.4136 10.4093 40.9935 9.68064 40.3102 9.36115Z" fill="#E6E7E8"/>
<path d="M30.9759 21.2992C30.6559 21.2992 30.3459 21.18 30.1074 20.9627L26.4082 17.5909C25.8819 17.1113 25.844 16.296 26.3238 15.7697C26.8032 15.2434 27.6188 15.2055 28.1451 15.6853L30.8016 18.1066L35.2257 12.2752C35.6558 11.7081 36.4647 11.597 37.0322 12.0274C37.5993 12.4577 37.7104 13.2666 37.28 13.8339L32.0029 20.7896C31.784 21.0779 31.454 21.2613 31.0935 21.2943C31.0543 21.2974 31.0151 21.2992 30.9759 21.2992Z" fill="#A82FF9"/>
<path d="M37.4775 42.6351C37.9164 42.4747 38.3037 42.1661 38.5553 41.7298L39.9846 39.2541C40.0558 39.1308 40.0135 38.973 39.8903 38.9019L29.3704 32.8283C28.1371 32.1163 26.56 32.5387 25.8481 33.772L24.9175 35.3837L37.4775 42.6351Z" fill="#FCC4AE"/>
<path d="M44.8 31.5132L24.8794 43.0144L33.7585 58.3936L42.289 53.4685C43.9375 52.5168 45.3003 51.1398 46.235 49.4815L52.9391 45.6111L44.8 31.5132Z" fill="#F2AD97"/>
<path d="M45.4941 48.1987L52.1979 44.3281L52.9379 45.6096L46.2341 49.4802L45.4941 48.1987Z" fill="#E59076"/>
<path d="M55.8822 46.5817L62.4504 42.7896L51.9988 24.6872L45.4306 28.4793C44.4441 29.0489 44.106 30.3106 44.6756 31.2971L53.0643 45.8267C53.6339 46.8132 54.8956 47.1513 55.8822 46.5817Z" fill="#423AF2"/>
<path d="M45.4306 28.4793L45.5665 28.4009L52.834 40.9888C53.2427 41.6966 54.1478 41.939 54.8557 41.5305L60.0064 38.5566L62.4504 42.7897L55.8822 46.5817C54.8956 47.1513 53.6339 46.8133 53.0643 45.8267L44.6756 31.2971C44.106 30.3106 44.4441 29.0489 45.4306 28.4793Z" fill="#423AF2"/>
<path d="M45.4955 48.1998L46.2356 49.4813C45.3009 51.1396 43.9381 52.5166 42.2896 53.4683L33.7591 58.3934L33.019 57.1119L41.5495 52.1868C43.198 51.235 44.5608 49.8581 45.4955 48.1998Z" fill="#E59076"/>
<path d="M48.147 48.7949L18.214 31.5132L10.0747 45.6106L16.7788 49.4811C17.7135 51.1394 19.0763 52.5164 20.7248 53.4681L27.5733 57.4221L34.7822 61.5842C35.8438 62.1971 37.2014 61.8336 37.8146 60.7717C38.4276 59.7101 38.064 58.3525 37.0021 57.7395L40.8468 59.9592C41.9084 60.5721 43.266 60.2085 43.8789 59.1467C44.4919 58.0851 44.1283 56.7274 43.0664 56.1145L44.9888 57.2243C46.0504 57.8373 47.408 57.4737 48.0209 56.4118C48.6339 55.35 48.27 53.9926 47.2084 53.3794L45.9269 52.6396C46.9885 53.2525 48.3461 52.8887 48.959 51.8271C49.5725 50.7655 49.2086 49.4081 48.147 48.7949Z" fill="#FCC4AE"/>
<path d="M7.13214 46.5817L0.563965 42.7896L11.0155 24.6872L17.5837 28.4793C18.5702 29.0489 18.9083 30.3106 18.3387 31.2971L9.95002 45.8267C9.38041 46.8132 8.11871 47.1513 7.13214 46.5817Z" fill="#423AF2"/>
<path d="M17.5837 28.4793L17.4478 28.4009L10.1803 40.9888C9.77158 41.6966 8.8665 41.939 8.15868 41.5305L3.00795 38.5567L0.563965 42.7897L7.13214 46.5817C8.11871 47.1513 9.38041 46.8133 9.95002 45.8267L18.3387 31.2972C18.9083 30.3106 18.5702 29.0489 17.5837 28.4793Z" fill="#423AF2"/>
<path d="M44.1393 58.4038C43.4451 58.9765 42.4457 59.0959 41.6205 58.6196L33.13 53.7177L32.3564 55.0575L40.847 59.9594C41.9086 60.5723 43.2662 60.2088 43.8794 59.1469C44.0158 58.9102 44.0967 58.6583 44.1393 58.4038Z" fill="#F2AD97"/>
<path d="M48.1778 55.6375C47.4836 56.2102 46.4842 56.3296 45.659 55.8533L35.2462 49.8413L34.4727 51.1811L44.8855 57.1931C45.9471 57.8061 47.3047 57.4425 47.9176 56.3806C48.0543 56.1439 48.135 55.892 48.1778 55.6375Z" fill="#F2AD97"/>
<path d="M49.2195 51.0842C48.5254 51.6569 47.5259 51.7763 46.7008 51.3L37.5695 46.0281L36.7959 47.3679L45.9272 52.6399C46.9888 53.2528 48.3464 52.889 48.9593 51.8274C49.096 51.5906 49.177 51.3387 49.2195 51.0842Z" fill="#F2AD97"/>
<path d="M10.0737 45.611L10.8137 44.3295L17.5175 48.2L16.7776 49.4816L10.0737 45.611Z" fill="black"/>
<path d="M35.5558 60.2446L21.4649 52.1868C19.8164 51.2351 18.4536 49.8581 17.5189 48.1998L16.7788 49.4814C17.7135 51.1397 19.0763 52.5166 20.7248 53.4684L34.7822 61.5844C35.8438 62.1974 37.2015 61.8335 37.8147 60.7719C37.9513 60.5355 38.032 60.2833 38.0746 60.0288C37.3804 60.6015 36.3807 60.7209 35.5558 60.2446Z" fill="black"/>
<path d="M28.2317 61.5844L31.596 59.6422C32.6576 59.0293 33.0215 57.6717 32.4085 56.6101C31.7956 55.5484 30.438 55.1846 29.3764 55.7975L26.0121 57.7397C24.9505 58.3527 24.5866 59.7103 25.1996 60.7719C25.8125 61.8335 27.1701 62.1973 28.2317 61.5844Z" fill="#F2AD97"/>
<path d="M30.8561 58.3607L27.4918 60.3029C26.6561 60.7853 25.6422 60.6551 24.9473 60.0633C24.9919 60.3057 25.069 60.5463 25.1995 60.7722C25.8124 61.8338 27.17 62.1976 28.2316 61.5847L31.5959 59.6425C32.6575 59.0296 33.0213 57.672 32.4084 56.6104C32.2779 56.3845 32.1085 56.1973 31.9208 56.0377C32.0861 56.9347 31.6921 57.878 30.8561 58.3607Z" fill="#E59076"/>
<path d="M22.1668 59.9594L28.735 56.1674C29.7966 55.5544 30.1604 54.1968 29.5475 53.1352C28.9346 52.0736 27.5769 51.7098 26.5153 52.3227L19.9471 56.1148C18.8855 56.7277 18.5217 58.0853 19.1346 59.1469C19.7476 60.2085 21.1052 60.5724 22.1668 59.9594Z" fill="#F2AD97"/>
<path d="M27.9956 54.8858L21.4274 58.6778C20.5916 59.1603 19.5777 59.0301 18.8828 58.4383C18.9274 58.6807 19.0045 58.9213 19.135 59.1471C19.7479 60.2087 21.1056 60.5726 22.1672 59.9597L28.7354 56.1676C29.797 55.5547 30.1608 54.197 29.5479 53.1354C29.4174 52.9096 29.248 52.7224 29.0603 52.5627C29.2255 53.4598 28.8313 54.4031 27.9956 54.8858Z" fill="#E59076"/>
<path d="M18.0247 57.2245L25.8744 52.6924C26.936 52.0795 27.2999 50.7219 26.6869 49.6603C26.074 48.5987 24.7164 48.2348 23.6548 48.8478L15.8051 53.3799C14.7435 53.9928 14.3796 55.3504 14.9925 56.412C15.6055 57.4736 16.9631 57.8375 18.0247 57.2245Z" fill="#F2AD97"/>
<path d="M25.1345 51.4109L17.2848 55.943C16.4491 56.4255 15.4352 56.2952 14.7402 55.7032C14.7848 55.9456 14.8619 56.1862 14.9924 56.412C15.6053 57.4736 16.963 57.8375 18.0246 57.2246L25.8743 52.6924C26.9359 52.0795 27.2997 50.7219 26.6868 49.6603C26.5563 49.4344 26.3869 49.2472 26.1992 49.0876C26.3645 49.9852 25.9702 50.9284 25.1345 51.4109Z" fill="#E59076"/>
<path d="M17.0867 52.6398L23.0141 49.2175C24.0757 48.6046 24.4395 47.247 23.8266 46.1854C23.2137 45.1238 21.8561 44.7599 20.7945 45.3729L14.8671 48.7952C13.8055 49.4081 13.4416 50.7657 14.0546 51.8273C14.6675 52.8889 16.0249 53.2528 17.0867 52.6398Z" fill="#F2AD97"/>
<path d="M22.2742 47.9365L16.3468 51.3585C15.5111 51.841 14.4972 51.7108 13.8022 51.119C13.8469 51.3614 13.924 51.602 14.0544 51.8278C14.6674 52.8894 16.025 53.2533 17.0866 52.6404L23.014 49.2183C24.0756 48.6054 24.4394 47.2478 23.8265 46.1859C23.696 45.96 23.5266 45.7728 23.3389 45.6132C23.5039 46.5108 23.1099 47.4541 22.2742 47.9365Z" fill="#E59076"/>
<path d="M22.2895 48.7815L22.8089 48.4816C23.4254 48.1255 23.6368 47.337 23.2807 46.7204L23.0902 46.3904C22.7341 45.7738 21.9456 45.5624 21.329 45.9185L20.8097 46.2184C20.5629 46.3607 20.4786 46.6761 20.6209 46.9229L21.5851 48.5928C21.7274 48.8393 22.0428 48.9238 22.2895 48.7815Z" fill="#FFD2C0"/>
<path d="M25.1504 52.2562L25.6697 51.9563C26.2863 51.6002 26.4977 50.8116 26.1416 50.1951L25.9511 49.865C25.5949 49.2485 24.8064 49.037 24.1899 49.3931L23.4405 49.8258C23.3209 49.8949 23.2799 50.0478 23.349 50.1675L24.4459 52.0674C24.5883 52.3142 24.9036 52.3988 25.1504 52.2562Z" fill="#FFD2C0"/>
<path d="M28.0107 55.731L28.5301 55.4311C29.1466 55.075 29.358 54.2865 29.0019 53.67L28.8114 53.3399C28.4553 52.7234 27.6667 52.5119 27.0502 52.868L26.5309 53.1679C26.2841 53.3103 26.1998 53.6256 26.3421 53.8724L27.3063 55.5423C27.4486 55.7888 27.7642 55.8734 28.0107 55.731Z" fill="#FFD2C0"/>
<path d="M30.8716 59.206L31.3909 58.9061C32.0074 58.55 32.2189 57.7615 31.8628 57.1449L31.6722 56.8148C31.3161 56.1983 30.5276 55.9868 29.911 56.3429L29.3917 56.6428C29.1449 56.7852 29.0606 57.1005 29.203 57.3473L30.1671 59.0172C30.3094 59.2638 30.6248 59.3483 30.8716 59.206Z" fill="#FFD2C0"/>
<path d="M29.2859 41.3245L38.4656 36.0245L37.1653 33.7721C36.4533 32.5388 34.8763 32.1161 33.6429 32.8283L23.1231 38.9019C22.9998 38.9731 22.9575 39.1309 23.0287 39.2542L23.2976 39.7201C24.5083 41.8167 27.1892 42.5351 29.2859 41.3245Z" fill="#F2AD97"/>
<path d="M26.7775 39.2662L27.9546 38.5865C28.3084 38.3823 28.4299 37.9298 28.2254 37.5757L27.524 36.361L24.1816 38.2908L24.3727 38.6218C24.859 39.4637 25.9356 39.7523 26.7775 39.2662Z" fill="#FFD2C0"/>
<defs>
<linearGradient id="paint0_linear" x1="22.3684" y1="9.51746" x2="22.3684" y2="26.887" gradientUnits="userSpaceOnUse">
<stop stop-color="#CECECE" stop-opacity="0.8"/>
<stop offset="1" stop-color="#CECECE" stop-opacity="0.2"/>
</linearGradient>
</defs>
</svg>
