<svg width="54" height="53" viewBox="0 0 54 53" fill="none" xmlns="http://www.w3.org/2000/svg">
<path d="M51.7586 51.3358H2.59131V5.89022C2.59131 5.63666 2.79512 5.43115 3.04658 5.43115H51.3034C51.5548 5.43115 51.7586 5.63666 51.7586 5.89022V51.3358Z" fill="#6059F0"/>
<path d="M51.7592 43.0734H2.5918V50.418H51.7592V43.0734Z" fill="#423AF2"/>
<path d="M51.7588 21.8778C51.5722 21.9246 51.3802 21.9569 51.1793 21.9569C49.8536 21.9569 48.7788 20.8732 48.7788 19.5364C48.7788 20.8731 47.7041 21.9569 46.3784 21.9569C45.0527 21.9569 43.9779 20.8732 43.9779 19.5364C43.9779 20.8731 42.9033 21.9569 41.5775 21.9569C40.2518 21.9569 39.177 20.8732 39.177 19.5364C39.177 20.8731 38.1023 21.9569 36.7766 21.9569C35.4509 21.9569 34.3761 20.8732 34.3761 19.5364C34.3761 20.8731 33.3014 21.9569 31.9757 21.9569C30.65 21.9569 29.5752 20.8732 29.5752 19.5364C29.5752 20.8731 28.5006 21.9569 27.1748 21.9569C25.849 21.9569 24.7743 20.8732 24.7743 19.5364C24.7743 20.8731 23.6996 21.9569 22.3739 21.9569C21.0482 21.9569 19.9734 20.8732 19.9734 19.5364C19.9734 20.8731 18.8988 21.9569 17.573 21.9569C16.2473 21.9569 15.1725 20.8732 15.1725 19.5364C15.1725 20.8731 14.0978 21.9569 12.7721 21.9569C11.4464 21.9569 10.3716 20.8732 10.3716 19.5364C10.3716 20.8731 9.29688 21.9569 7.97118 21.9569C6.64548 21.9569 5.57073 20.8732 5.57073 19.5364C5.57073 20.8731 4.49608 21.9569 3.17028 21.9569C2.96936 21.9569 2.77741 21.9246 2.59082 21.8778V23.7341C2.78205 23.7608 2.97183 23.7931 3.17028 23.7931C4.06133 23.7931 4.88875 23.5134 5.57073 23.0363C6.25292 23.5134 7.08023 23.793 7.97139 23.793C8.86244 23.793 9.68985 23.5133 10.3718 23.0362C11.0538 23.5133 11.8812 23.793 12.7723 23.793C13.6633 23.793 14.4908 23.5133 15.1727 23.0362C15.8547 23.5133 16.6821 23.793 17.5732 23.793C18.4642 23.793 19.2917 23.5133 19.9736 23.0362C20.6556 23.5133 21.483 23.793 22.3741 23.793C23.2651 23.793 24.0926 23.5133 24.7745 23.0362C25.4564 23.5134 26.2838 23.793 27.1749 23.793C28.0659 23.793 28.8934 23.5133 29.5753 23.0362C30.2573 23.5133 31.0847 23.793 31.9758 23.793C32.8668 23.793 33.6943 23.5133 34.3762 23.0362C35.0582 23.5133 35.8856 23.793 36.7767 23.793C37.6677 23.793 38.4952 23.5133 39.1771 23.0362C39.8591 23.5133 40.6865 23.793 41.5776 23.793C42.4686 23.793 43.2961 23.5133 43.978 23.0362C44.66 23.5133 45.4874 23.793 46.3785 23.793C47.2697 23.793 48.097 23.5133 48.7789 23.0362C49.4609 23.5133 50.2883 23.793 51.1794 23.793C51.3777 23.793 51.5676 23.7608 51.7589 23.734V21.8778H51.7588Z" fill="#BE5EFF"/>
<path d="M32.638 27.4656H7.14404V45.8273H32.638V27.4656Z" fill="#B4E1FA"/>
<path d="M47.2066 27.4656H36.2808V45.8273H47.2066V27.4656Z" fill="#B4E1FA"/>
<path d="M47.2067 27.4656H36.2808V30.22H47.2067V27.4656Z" fill="#A0D2F0"/>
<path d="M47.2061 36.0344L40.8327 27.4655H39.0117L47.2061 38.4826V36.0344Z" fill="#DAF0FD"/>
<path d="M37.1907 27.4655H36.2803V31.1378L47.2063 45.8272V40.9307L37.1907 27.4655Z" fill="#A0D2F0"/>
<path d="M42.8814 30.2196L40.8327 27.4655H39.0117L41.0604 30.2196H42.8814Z" fill="#B4E1FA"/>
<path d="M29.9068 45.8272H28.0858L14.4282 27.4655H16.2492L29.9068 45.8272Z" fill="#DAF0FD"/>
<path d="M26.2644 45.8272H22.6225L8.96484 27.4655H12.6069L26.2644 45.8272Z" fill="#A0D2F0"/>
<path d="M32.638 27.4664H7.14404V30.2207H32.638V27.4664Z" fill="#A0D2F0"/>
<path d="M18.2979 30.2196L16.2492 27.4655H14.4282L16.4769 30.2196H18.2979Z" fill="#B4E1FA"/>
<path d="M22.3741 21.9569C21.0484 21.9569 19.9736 20.8732 19.9736 19.5364V17.3664H24.7745V19.5364C24.7745 20.8732 23.6998 21.9569 22.3741 21.9569Z" fill="#A82FF9"/>
<path d="M31.9761 21.9569C30.6504 21.9569 29.5757 20.8732 29.5757 19.5364V17.3664H34.3766V19.5364C34.3765 20.8732 33.3019 21.9569 31.9761 21.9569Z" fill="#A82FF9"/>
<path d="M12.7725 21.9569C11.4468 21.9569 10.3721 20.8732 10.3721 19.5364V17.3664H15.173V19.5364C15.1729 20.8732 14.0982 21.9569 12.7725 21.9569Z" fill="#A82FF9"/>
<path d="M3.17096 21.9569C1.84526 21.9569 0.770508 20.8732 0.770508 19.5364V17.3664H5.57141V19.5364C5.57141 20.8732 4.49666 21.9569 3.17096 21.9569Z" fill="#A82FF9"/>
<path d="M41.5777 21.9569C40.252 21.9569 39.1772 20.8732 39.1772 19.5364V17.3664H43.9781V19.5364C43.9781 20.8732 42.9035 21.9569 41.5777 21.9569Z" fill="#A82FF9"/>
<path d="M17.5733 21.9569C16.2476 21.9569 15.1729 20.8732 15.1729 19.5364V17.3664H19.9737V19.5364C19.9737 20.8732 18.8991 21.9569 17.5733 21.9569Z" fill="#C7CFE2"/>
<path d="M36.7769 21.9569C35.4512 21.9569 34.3765 20.8732 34.3765 19.5364V17.3664H39.1774V19.5364C39.1774 20.8732 38.1027 21.9569 36.7769 21.9569Z" fill="#C7CFE2"/>
<path d="M51.1793 21.9569C49.8536 21.9569 48.7788 20.8732 48.7788 19.5364V17.3664H53.5797V19.5364C53.5797 20.8732 52.5049 21.9569 51.1793 21.9569Z" fill="#A82FF9"/>
<path d="M46.3785 21.9569C45.0528 21.9569 43.978 20.8732 43.978 19.5364V17.3664H48.7789V19.5364C48.7788 20.8732 47.704 21.9569 46.3785 21.9569Z" fill="#C7CFE2"/>
<path d="M7.97174 21.9569C6.64604 21.9569 5.57129 20.8732 5.57129 19.5364V17.3664H10.3722V19.5364C10.3722 20.8732 9.29744 21.9569 7.97174 21.9569Z" fill="#C7CFE2"/>
<path d="M27.1753 21.9569C25.8496 21.9569 24.7749 20.8732 24.7749 19.5364V17.3664H29.5758V19.5364C29.5758 20.8732 28.501 21.9569 27.1753 21.9569Z" fill="#C7CFE2"/>
<path d="M24.7749 17.3664H19.9741L20.4708 10.0216H24.9406L24.7749 17.3664Z" fill="#BC5AFE"/>
<path d="M34.3766 17.3664H29.5758L29.4102 10.0216H33.88L34.3766 17.3664Z" fill="#BC5AFE"/>
<path d="M15.1729 17.3664H10.3721L11.5309 10.0216H16.0006L15.1729 17.3664Z" fill="#BC5AFE"/>
<path d="M5.57141 17.3664H0.770508L2.5915 10.0216H7.06131L5.57141 17.3664Z" fill="#BC5AFE"/>
<path d="M43.9782 17.3664H39.1773L38.3496 10.0216H42.8193L43.9782 17.3664Z" fill="#BC5AFE"/>
<path d="M19.9737 17.3664H15.1729L16.0006 10.0216H20.4704L19.9737 17.3664Z" fill="#EFF2FA"/>
<path d="M39.177 17.3664H34.376L33.8794 10.0216H38.3492L39.177 17.3664Z" fill="#EFF2FA"/>
<path d="M53.5799 17.3664H48.779L47.2891 10.0216H51.7589L53.5799 17.3664Z" fill="#BC5AFE"/>
<path d="M48.7789 17.3664H43.9781L42.8193 10.0216H47.289L48.7789 17.3664Z" fill="#EFF2FA"/>
<path d="M10.3721 17.3664H5.57129L7.06119 10.0216H11.5309L10.3721 17.3664Z" fill="#EFF2FA"/>
<path d="M29.5753 17.3664H24.7744L24.9401 10.0216H29.4097L29.5753 17.3664Z" fill="#EFF2FA"/>
<path d="M31.7276 28.3835V44.9092H8.05449V28.3835H31.7276ZM32.6381 26.5473H7.14395C6.64112 26.5473 6.2334 26.9584 6.2334 27.4654V45.8273C6.2334 46.3343 6.64112 46.7455 7.14395 46.7455H32.638C33.1409 46.7455 33.5486 46.3343 33.5486 45.8273V27.4654C33.5486 26.9584 33.141 26.5473 32.6381 26.5473Z" fill="#8F96AC"/>
<path d="M47.2062 26.5473H36.2802C35.7774 26.5473 35.3696 26.9584 35.3696 27.4654V50.4178H48.1167V27.4654C48.1167 26.9584 47.7091 26.5473 47.2062 26.5473ZM46.2957 44.9092H37.1906V28.3835H46.2957V44.9092Z" fill="#8F96AC"/>
<path d="M41.7432 10.0216H12.6071C11.6014 10.0216 10.7861 9.19955 10.7861 8.18542V2.67692C10.7861 1.6628 11.6014 0.840759 12.6071 0.840759H41.7433C42.7491 0.840759 43.5643 1.6628 43.5643 2.67692V8.18552C43.5643 9.19955 42.7491 10.0216 41.7432 10.0216Z" fill="#AFB9D2"/>
<path d="M41.288 8.18544H13.0622C12.8107 8.18544 12.6069 7.97993 12.6069 7.72638V3.13601C12.6069 2.88245 12.8107 2.67694 13.0622 2.67694H41.2879C41.5393 2.67694 41.7431 2.88245 41.7431 3.13601V7.72648C41.7431 7.97993 41.5393 8.18544 41.288 8.18544Z" fill="#6059F0"/>
<path d="M13.0622 8.18543H41.2878C41.5393 8.18543 41.7431 7.97992 41.7431 7.72636V5.8902C41.7431 6.14376 41.5393 6.34927 41.2878 6.34927H13.0622C12.8107 6.34927 12.6069 6.14376 12.6069 5.8902V7.72636C12.607 7.97992 12.8108 8.18543 13.0622 8.18543Z" fill="#423AF2"/>
<path d="M53.1245 52.2919H1.22578C0.974319 52.2919 0.770508 52.0863 0.770508 51.8328V50.9146C0.770508 50.6611 0.974319 50.4556 1.22578 50.4556H53.1245C53.376 50.4556 53.5798 50.6611 53.5798 50.9146V51.8328C53.5798 52.0863 53.376 52.2919 53.1245 52.2919Z" fill="#8F96AC"/>
</svg>
