<svg width="80" height="58" viewBox="0 0 80 58" fill="none" xmlns="http://www.w3.org/2000/svg">
<path d="M78.0981 36.5041L73.8629 33.3917L73.8059 21.1267C73.8007 20.0064 73.0133 19.2292 71.8837 19.2292H58.7667L50.7119 50.129H73.2574C74.6409 50.129 76.0631 48.9761 76.4337 47.554L78.7386 38.712C78.9745 37.8076 78.7314 36.9695 78.0981 36.5041Z" fill="#A82FF9"/>
<path d="M58.8984 46.2665C58.7182 46.2665 58.4753 46.2284 58.3401 46.0474C58.2188 45.8849 58.1948 45.617 58.2743 45.3121L59.7035 39.829H53.3968L50.7119 50.1289H73.2574C74.641 50.1289 76.0629 48.976 76.4337 47.554L76.7693 46.2665H58.8984Z" fill="#BC5CFD"/>
<path d="M78.0967 36.504L73.8615 33.3917L73.8045 21.1267C73.7993 20.0064 73.012 19.2292 71.8823 19.2292H65.072L59.7021 39.829H78.4461L78.7373 38.712C78.9731 37.8076 78.73 36.9695 78.0967 36.504Z" fill="#A82FF9"/>
<path d="M25.6137 16.6544H60.6846C61.3763 16.6544 61.7868 17.2309 61.6014 17.9419L53.2111 50.1289H16.8876C16.1959 50.1289 15.7854 49.5525 15.9708 48.8414L24.0255 17.9419C24.2108 17.2309 24.9219 16.6544 25.6137 16.6544Z" fill="#423AF2"/>
<path d="M53.2112 50.1286L54.2181 46.2663H53.8825H22.0439C21.2369 46.2663 20.6494 45.4794 20.8583 44.678L21.8413 40.9062C22.0271 40.1934 22.7596 39.8195 23.4418 40.0493C25.9766 40.9033 28.6548 41.2508 31.3712 41.0693C41.2025 40.4128 49.0546 32.5224 50.9279 22.5802C51.3179 20.5104 51.3635 18.9369 51.0982 16.6539H25.6137C24.9219 16.6539 24.2108 17.2304 24.0255 17.9414L15.9708 48.841C15.7855 49.5521 16.1958 50.1285 16.8877 50.1285H53.2112V50.1286Z" fill="#625CF4"/>
<path d="M69.9479 53.5125C72.3293 51.3702 72.9664 48.1145 71.3709 46.2406C69.7754 44.3666 66.5516 44.5841 64.1702 46.7264C61.7889 48.8687 61.1518 52.1244 62.7473 53.9983C64.3427 55.8723 67.5666 55.6547 69.9479 53.5125Z" fill="#5D5360"/>
<path d="M31.1013 53.5331C33.4826 51.3908 34.1197 48.135 32.5242 46.2611C30.9288 44.3872 27.7049 44.6047 25.3236 46.747C22.9422 48.8892 22.3051 52.145 23.9006 54.0189C25.496 55.8928 28.7199 55.6753 31.1013 53.5331Z" fill="#5D5360"/>
<path d="M65.0937 33.3917H73.8616L73.8197 24.3792H67.4432C66.0597 24.3792 64.6376 25.5321 64.2668 26.9542L63.2599 30.8166C62.8892 32.2389 63.7101 33.3917 65.0937 33.3917Z" fill="#DBEAFF"/>
<path d="M29.9769 37.2556C39.6614 37.2556 47.5123 29.1856 47.5123 19.2307C47.5123 9.27587 39.6614 1.20587 29.9769 1.20587C20.2923 1.20587 12.4414 9.27587 12.4414 19.2307C12.4414 29.1856 20.2923 37.2556 29.9769 37.2556Z" fill="#ECEAEC"/>
<path d="M29.9853 33.3914C37.5945 33.3914 43.7631 27.0507 43.7631 19.2291C43.7631 11.4076 37.5945 5.06689 29.9853 5.06689C22.376 5.06689 16.2075 11.4076 16.2075 19.2291C16.2075 27.0507 22.376 33.3914 29.9853 33.3914Z" fill="white"/>
<path d="M29.9816 21.8044C31.3651 21.8044 32.4867 20.6515 32.4867 19.2294C32.4867 17.8073 31.3651 16.6544 29.9816 16.6544C28.5981 16.6544 27.4766 17.8073 27.4766 19.2294C27.4766 20.6515 28.5981 21.8044 29.9816 21.8044Z" fill="#5D5360"/>
<path d="M73.8605 33.3917L73.8427 29.5293H68.2691C68.0891 29.5293 67.8462 29.4912 67.7112 29.3102C67.5898 29.1477 67.5657 28.8798 67.6452 28.5749L68.6521 24.7123L68.739 24.3792H67.4423C66.0586 24.3792 64.6366 25.5321 64.2659 26.9542L63.2589 30.8166C62.8883 32.2387 63.7094 33.3916 65.0928 33.3916H73.8605V33.3917Z" fill="#C3DDFF"/>
<path d="M66.9966 48.9247C66.3494 48.9247 65.8247 49.464 65.8247 50.1293C65.8247 50.7946 66.3494 51.3339 66.9966 51.3339H67.0091C67.6563 51.3339 68.1747 50.7946 68.1747 50.1293C68.1747 49.464 67.644 48.9247 66.9966 48.9247Z" fill="black"/>
<path d="M28.169 48.9247C27.5218 48.9247 26.9971 49.464 26.9971 50.1293C26.9971 50.7946 27.5218 51.3339 28.169 51.3339H28.1815C28.8287 51.3339 29.3471 50.7946 29.3471 50.1293C29.3471 49.464 28.8163 48.9247 28.169 48.9247Z" fill="black"/>
<path d="M78.7796 35.524L75.032 32.7698L74.9779 21.1208C74.9694 19.3268 73.6682 18.0245 71.8838 18.0245H62.7867C62.8933 17.3895 62.7565 16.765 62.3962 16.2822C62.0012 15.7531 61.3795 15.4496 60.6906 15.4496H52.524C51.8768 15.4496 51.3521 15.9889 51.3521 16.6542C51.3521 17.3194 51.8768 17.8588 52.524 17.8588L60.4157 17.8589L52.3177 48.9241H34.5205C34.5446 47.7176 34.2112 46.5869 33.5423 45.6909C32.6196 44.455 31.1872 43.7741 29.5089 43.7741C26.4927 43.7741 23.4986 45.9737 22.3192 48.9241L17.1684 48.924L19.4581 40.1403C19.6256 39.4977 19.2547 38.8372 18.6293 38.6649C18.0053 38.4934 17.3617 38.874 17.194 39.5168L14.8448 48.5295C14.6591 49.2413 14.7843 49.9599 15.1881 50.5007C15.5831 51.0298 16.2048 51.3333 16.8937 51.3333H21.8125C21.7884 52.5398 22.1217 53.6704 22.7906 54.5664C23.7133 55.8025 25.1456 56.4832 26.8239 56.4832C29.8402 56.4832 32.8343 54.2836 34.0137 51.3333H60.6409C60.6168 52.5398 60.9501 53.6704 61.619 54.5664C62.5417 55.8025 63.9741 56.4832 65.6524 56.4832C68.6686 56.4832 71.6627 54.2836 72.8421 51.3333H73.2576C75.1665 51.3333 77.059 49.8101 77.5659 47.8654L79.8707 39.0235C80.2346 37.6269 79.8167 36.2859 78.7796 35.524ZM32.0446 49.817C31.443 52.1245 29.0524 54.074 26.8239 54.074C25.8911 54.074 25.1191 53.728 24.65 53.0999C24.1456 52.4244 24.0172 51.4799 24.2883 50.4405C24.8897 48.1328 27.2805 46.1833 29.5089 46.1833C30.4418 46.1833 31.2138 46.5293 31.6829 47.1574C32.1871 47.8331 32.3157 48.7775 32.0446 49.817ZM72.6854 32.1868H65.0952C64.897 32.1868 64.6283 32.1433 64.4731 31.9354C64.3364 31.7523 64.3073 31.4581 64.3934 31.1282L65.4002 27.2658C65.6338 26.3697 66.5891 25.5837 67.4444 25.5837H72.6546L72.6854 32.1868ZM70.873 49.817C70.2714 52.1245 67.8808 54.074 65.6524 54.074C64.7195 54.074 63.9475 53.728 63.4784 53.0999C62.974 52.4244 62.8456 51.4799 63.1167 50.4405C63.7181 48.1328 66.1089 46.1833 68.3374 46.1833C69.2702 46.1833 70.0422 46.5293 70.5113 47.1574C71.0155 47.8331 71.1441 48.7775 70.873 49.817ZM75.3018 47.2421C75.0765 48.1063 74.1799 48.8662 73.349 48.9192C73.3719 47.7146 73.0385 46.5858 72.3705 45.691C71.4479 44.4551 70.0155 43.7743 68.3372 43.7743C65.3209 43.7743 62.3269 45.9739 61.1475 48.9243H54.7441L56.801 41.0336H70.9321C71.5793 41.0336 72.104 40.4943 72.104 39.829C72.104 39.1638 71.5793 38.6244 70.9321 38.6244H57.429L62.1708 20.4339H71.8835C72.2243 20.4339 72.6311 20.5551 72.6338 21.1325L72.6433 23.1747H67.4442C65.5353 23.1747 63.6428 24.6979 63.1359 26.6425L62.1292 30.5049C61.8531 31.5639 62.0297 32.62 62.6136 33.4021C63.18 34.161 64.0845 34.5961 65.095 34.5961H73.4869L77.4163 37.4839C77.7504 37.7293 77.6463 38.2473 77.6065 38.4002L77.5481 38.6244H75.9423C75.2951 38.6244 74.7704 39.1638 74.7704 39.829C74.7704 40.4943 75.2951 41.0336 75.9423 41.0336H76.9201L75.3018 47.2421Z" fill="black"/>
<path d="M29.9803 38.4588C40.2956 38.4588 48.6877 29.8327 48.6877 19.2294C48.6877 8.62619 40.2956 6.10352e-05 29.9803 6.10352e-05C19.6651 6.10352e-05 11.2729 8.62635 11.2729 19.2294C11.2729 29.8325 19.6651 38.4588 29.9803 38.4588ZM29.9803 2.40924C39.0032 2.40924 46.3439 9.95477 46.3439 19.2294C46.3439 28.5041 39.0034 36.0497 29.9803 36.0497C20.9573 36.0497 13.6167 28.5041 13.6167 19.2294C13.6167 9.95477 20.9574 2.40924 29.9803 2.40924Z" fill="#363636"/>
<path d="M24.9747 25.5839C25.2746 25.5839 25.5746 25.4664 25.8033 25.2311L28.3499 22.6134C28.8427 22.8661 29.3978 23.009 29.9848 23.009C32.0123 23.009 33.6617 21.3134 33.6617 19.2295C33.6617 18.6261 33.5226 18.0556 33.2769 17.549L39.5811 11.069C40.0388 10.5985 40.0388 9.83579 39.5811 9.36552C39.1235 8.89493 38.3814 8.89509 37.9239 9.36552L31.6196 15.8456C31.1268 15.5929 30.5718 15.4501 29.9848 15.4501C27.9573 15.4501 26.3079 17.1457 26.3079 19.2297C26.3079 19.8331 26.4469 20.4036 26.6926 20.9101L24.146 23.5278C23.6883 23.9982 23.6883 24.761 24.146 25.2312C24.3749 25.4664 24.6747 25.5839 24.9747 25.5839ZM29.9848 17.8592C30.72 17.8592 31.3179 18.474 31.3179 19.2295C31.3179 19.985 30.7198 20.5998 29.9848 20.5998C29.2498 20.5998 28.6516 19.985 28.6516 19.2295C28.6516 18.474 29.2498 17.8592 29.9848 17.8592Z" fill="#323232"/>
<path d="M29.9776 8.84618C30.6247 8.84618 31.1494 8.30683 31.1494 7.64157V6.35408C31.1494 5.68882 30.6247 5.14948 29.9776 5.14948C29.3304 5.14948 28.8057 5.68882 28.8057 6.35408V7.64157C28.8057 8.307 29.3304 8.84618 29.9776 8.84618Z" fill="#353535"/>
<path d="M29.9776 29.6118C29.3304 29.6118 28.8057 30.1512 28.8057 30.8164V32.1039C28.8057 32.7692 29.3304 33.3085 29.9776 33.3085C30.6247 33.3085 31.1494 32.7692 31.1494 32.1039V30.8164C31.1494 30.1512 30.6247 29.6118 29.9776 29.6118Z" fill="#353535"/>
<path d="M41.2539 20.4342H42.5065C43.1537 20.4342 43.6784 19.8949 43.6784 19.2296C43.6784 18.5643 43.1537 18.025 42.5065 18.025H41.2539C40.6067 18.025 40.082 18.5643 40.082 19.2296C40.082 19.8949 40.6067 20.4342 41.2539 20.4342Z" fill="#353535"/>
<path d="M19.8756 19.2296C19.8756 18.5643 19.3509 18.025 18.7037 18.025H17.4512C16.804 18.025 16.2793 18.5643 16.2793 19.2296C16.2793 19.8949 16.804 20.4342 17.4512 20.4342H18.7037C19.3509 20.4342 19.8756 19.8949 19.8756 19.2296Z" fill="#353535"/>
<path d="M13.6972 34.762H1.17189C0.524692 34.762 0 35.3014 0 35.9666C0 36.6319 0.524692 37.1712 1.17189 37.1712H13.6972C14.3444 37.1712 14.869 36.6319 14.869 35.9666C14.869 35.3014 14.3444 34.762 13.6972 34.762Z" fill="#353535"/>
<path d="M12.4416 39.9119H4.92629C4.27909 39.9119 3.75439 40.4512 3.75439 41.1165C3.75439 41.7818 4.27909 42.3211 4.92629 42.3211H12.4416C13.0888 42.3211 13.6135 41.7818 13.6135 41.1165C13.6135 40.4512 13.0888 39.9119 12.4416 39.9119Z" fill="#353535"/>
<path d="M11.1935 45.0617H8.6885C8.0413 45.0617 7.5166 45.6011 7.5166 46.2663C7.5166 46.9316 8.0413 47.4709 8.6885 47.4709H11.1935C11.8407 47.4709 12.3654 46.9316 12.3654 46.2663C12.3654 45.6011 11.8407 45.0617 11.1935 45.0617Z" fill="#353535"/>
</svg>
