<svg width="20" height="20" viewBox="0 0 20 20" fill="none" xmlns="http://www.w3.org/2000/svg">
<path fill-rule="evenodd" clip-rule="evenodd" d="M8.59722 0.581529L7.09056 2.08686C6.9689 2.20857 6.80398 2.27713 6.63189 2.27753H4.26122C3.16522 2.27753 2.27722 3.16553 2.27722 4.26153V6.63219C2.27722 6.80553 2.20789 6.96953 2.08656 7.09219L0.57989 8.59752C0.207961 8.96958 -0.000976563 9.47412 -0.000976562 10.0002C-0.000976563 10.5263 0.207961 11.0308 0.57989 11.4029L2.08656 12.9095C2.20827 13.0312 2.27682 13.1961 2.27722 13.3682V15.7389C2.27722 16.8349 3.16522 17.7229 4.26122 17.7229H6.63189C6.80522 17.7229 6.96922 17.7922 7.09189 17.9135L8.59722 19.4202C8.96927 19.7921 9.47381 20.0011 9.99989 20.0011C10.526 20.0011 11.0305 19.7921 11.4026 19.4202L12.9092 17.9135C13.0309 17.7918 13.1958 17.7233 13.3679 17.7229H15.7386C16.8346 17.7229 17.7226 16.8349 17.7226 15.7389V13.3682C17.7226 13.1949 17.7919 13.0309 17.9132 12.9082L19.4199 11.4029C19.7918 11.0308 20.0008 10.5263 20.0008 10.0002C20.0008 9.47412 19.7918 8.96958 19.4199 8.59752L17.9132 7.09086C17.7915 6.9692 17.723 6.80428 17.7226 6.63219V4.26153C17.7226 3.16553 16.8346 2.27753 15.7386 2.27753H13.3679C13.1953 2.27748 13.0299 2.2089 12.9079 2.08686L11.4026 0.580195C11.0305 0.208266 10.526 -0.000671387 9.99989 -0.000671387C9.47381 -0.000671387 8.96927 0.208266 8.59722 0.580195V0.581529ZM6.19456 12.8615L12.8612 6.19486L13.8052 7.13886L7.13856 13.8055L6.19456 12.8615ZM6.66656 6.66686V8.00019H7.99989V6.66686H6.66656ZM11.9999 13.3335H13.3332V12.0002H11.9999V13.3335Z" fill="#423AF2"/>
</svg>
