<svg width="18" height="11" viewBox="0 0 18 11" fill="none" xmlns="http://www.w3.org/2000/svg">
<path d="M0.65078 10.8964C0.661757 10.8963 0.672194 10.8936 0.682982 10.8928L14.1344 10.7759L14.1344 10.7719C14.2388 10.7672 14.3394 10.7311 14.4231 10.6684L14.4232 10.6793L17.1618 9.06627L17.1522 9.06085C17.2211 9.01977 17.2795 8.96333 17.323 8.89594C17.3664 8.82855 17.3937 8.75203 17.4027 8.67235L17.4088 8.67233L17.4082 8.61285L17.4085 8.60929L17.4083 8.60569L17.3549 2.49092C17.354 2.40129 17.33 2.3134 17.2851 2.23581C17.2402 2.15822 17.176 2.09356 17.0988 2.04812L17.1005 2.04709L14.3341 0.481925L12.8021 3.18965C12.715 3.12686 14.1407 0.387151 14.025 0.388049C14.018 0.38814 14.0119 0.389841 14.005 0.390273L0.597691 0.507358C0.582523 0.506245 0.567905 0.503145 0.552339 0.503243C0.417931 0.504647 0.289261 0.557919 0.193197 0.651936C0.0971322 0.745952 0.0411016 0.873445 0.0368022 1.00779L0.0344454 1.00789L0.116083 10.3793L0.123245 10.3793C0.124815 10.5178 0.181233 10.65 0.280126 10.7469C0.379018 10.8438 0.512313 10.8976 0.65078 10.8964ZM14.2026 5.60945C14.2009 5.41834 14.256 5.23103 14.3608 5.0712C14.4655 4.91137 14.6154 4.78621 14.7913 4.71154C14.9672 4.63688 15.1613 4.61606 15.3491 4.65171C15.5369 4.68737 15.7098 4.77791 15.8461 4.91188C15.9824 5.04584 16.0759 5.21722 16.1148 5.40433C16.1537 5.59145 16.1363 5.7859 16.0647 5.96309C15.993 6.14027 15.8705 6.29224 15.7125 6.39978C15.5545 6.50731 15.3682 6.56558 15.1771 6.56721C15.0502 6.56832 14.9243 6.54443 14.8067 6.4969C14.689 6.44937 14.5819 6.37913 14.4914 6.29019C14.4009 6.20125 14.3289 6.09535 14.2793 5.97855C14.2297 5.86174 14.2037 5.73632 14.2026 5.60945Z" fill="#423AF2"/>
</svg>
