<svg width="22" height="16" viewBox="0 0 22 16" fill="none" xmlns="http://www.w3.org/2000/svg">
<path d="M16.5003 13.9583C17.2612 13.9583 17.8753 13.3442 17.8753 12.5833C17.8753 11.8225 17.2612 11.2084 16.5003 11.2084C15.7395 11.2084 15.1253 11.8225 15.1253 12.5833C15.1253 13.3442 15.7395 13.9583 16.5003 13.9583ZM17.8753 5.70835H15.5837V8.00002H19.672L17.8753 5.70835ZM5.50033 13.9583C6.26116 13.9583 6.87533 13.3442 6.87533 12.5833C6.87533 11.8225 6.26116 11.2084 5.50033 11.2084C4.73949 11.2084 4.12533 11.8225 4.12533 12.5833C4.12533 13.3442 4.73949 13.9583 5.50033 13.9583ZM18.3337 4.33335L21.0837 8.00002V12.5833H19.2503C19.2503 14.105 18.022 15.3333 16.5003 15.3333C14.9787 15.3333 13.7503 14.105 13.7503 12.5833H8.25033C8.25033 14.105 7.02199 15.3333 5.50033 15.3333C3.97866 15.3333 2.75033 14.105 2.75033 12.5833H0.916992V2.50002C0.916992 1.48252 1.73283 0.666687 2.75033 0.666687H15.5837V4.33335H18.3337ZM2.75033 2.50002V10.75H3.44699C3.95116 10.1909 4.68449 9.83335 5.50033 9.83335C6.31616 9.83335 7.04949 10.1909 7.55366 10.75H13.7503V2.50002H2.75033ZM9.16699 3.41669L12.3753 6.62502L9.16699 9.83335V7.54168H4.58366V5.70835H9.16699V3.41669Z" fill="#423AF2"/>
</svg>
