<svg width="15" height="12" viewBox="0 0 15 12" fill="none" xmlns="http://www.w3.org/2000/svg">
<path d="M0 1.875C0 1.37772 0.197544 0.900805 0.549175 0.549175C0.900806 0.197544 1.37772 0 1.875 0H13.125C13.6223 0 14.0992 0.197544 14.4508 0.549175C14.8025 0.900805 15 1.37772 15 1.875V2.8125H0V1.875ZM0 4.6875V9.375C0 9.87228 0.197544 10.3492 0.549175 10.7008C0.900806 11.0525 1.37772 11.25 1.875 11.25H13.125C13.6223 11.25 14.0992 11.0525 14.4508 10.7008C14.8025 10.3492 15 9.87228 15 9.375V4.6875H0ZM2.8125 6.5625H3.75C3.99864 6.5625 4.2371 6.66127 4.41291 6.83709C4.58873 7.0129 4.6875 7.25136 4.6875 7.5V8.4375C4.6875 8.68614 4.58873 8.9246 4.41291 9.10041C4.2371 9.27623 3.99864 9.375 3.75 9.375H2.8125C2.56386 9.375 2.3254 9.27623 2.14959 9.10041C1.97377 8.9246 1.875 8.68614 1.875 8.4375V7.5C1.875 7.25136 1.97377 7.0129 2.14959 6.83709C2.3254 6.66127 2.56386 6.5625 2.8125 6.5625V6.5625Z" fill="#423AF2"/>
</svg>
