<svg width="18" height="13" viewBox="0 0 18 13" fill="none" xmlns="http://www.w3.org/2000/svg">
<path d="M14.2503 11.6458C14.9074 11.6458 15.4378 11.1154 15.4378 10.4584C15.4378 9.80127 14.9074 9.27085 14.2503 9.27085C13.5932 9.27085 13.0628 9.80127 13.0628 10.4584C13.0628 11.1154 13.5932 11.6458 14.2503 11.6458ZM15.4378 4.52085H13.4587V6.50002H16.9895L15.4378 4.52085ZM4.75033 11.6458C5.40741 11.6458 5.93783 11.1154 5.93783 10.4584C5.93783 9.80127 5.40741 9.27085 4.75033 9.27085C4.09324 9.27085 3.56283 9.80127 3.56283 10.4584C3.56283 11.1154 4.09324 11.6458 4.75033 11.6458ZM15.8337 3.33335L18.2087 6.50002V10.4584H16.6253C16.6253 11.7725 15.5645 12.8333 14.2503 12.8333C12.9362 12.8333 11.8753 11.7725 11.8753 10.4584H7.12533C7.12533 11.7725 6.06449 12.8333 4.75033 12.8333C3.43616 12.8333 2.37533 11.7725 2.37533 10.4584H0.791992V1.75002C0.791992 0.87127 1.49658 0.166687 2.37533 0.166687H13.4587V3.33335H15.8337ZM2.37533 1.75002V8.87502H2.97699C3.41241 8.3921 4.04574 8.08335 4.75033 8.08335C5.45491 8.08335 6.08824 8.3921 6.52366 8.87502H11.8753V1.75002H2.37533ZM7.91699 2.54169L10.6878 5.31252L7.91699 8.08335V6.10418H3.95866V4.52085H7.91699V2.54169Z" fill="#423AF2"/>
</svg>
