<svg width="17" height="17" viewBox="0 0 17 17" fill="none" xmlns="http://www.w3.org/2000/svg">
<path fill-rule="evenodd" clip-rule="evenodd" d="M7.30749 0.494199L6.02683 1.77373C5.92341 1.87718 5.78323 1.93546 5.63696 1.9358H3.62189C2.69029 1.9358 1.93549 2.6906 1.93549 3.6222V5.63726C1.93549 5.7846 1.87656 5.924 1.77343 6.02826L0.49276 7.3078C0.17662 7.62404 -0.000976563 8.0529 -0.000976562 8.50006C-0.000976563 8.94722 0.17662 9.37608 0.49276 9.69233L1.77343 10.973C1.87688 11.0764 1.93515 11.2166 1.93549 11.3629V13.3779C1.93549 14.3095 2.69029 15.0643 3.62189 15.0643H5.63696C5.78429 15.0643 5.92369 15.1233 6.02796 15.2264L7.30749 16.5071C7.62374 16.8232 8.05259 17.0008 8.49976 17.0008C8.94692 17.0008 9.37578 16.8232 9.69202 16.5071L10.9727 15.2264C11.0761 15.1229 11.2163 15.0647 11.3626 15.0643H13.3776C14.3092 15.0643 15.064 14.3095 15.064 13.3779V11.3629C15.064 11.2155 15.123 11.0761 15.2261 10.9719L16.5068 9.69233C16.8229 9.37608 17.0005 8.94722 17.0005 8.50006C17.0005 8.0529 16.8229 7.62404 16.5068 7.3078L15.2261 6.02713C15.1226 5.92372 15.0644 5.78354 15.064 5.63726V3.6222C15.064 2.6906 14.3092 1.9358 13.3776 1.9358H11.3626C11.2159 1.93576 11.0752 1.87746 10.9716 1.77373L9.69202 0.493065C9.37578 0.176925 8.94692 -0.000671387 8.49976 -0.000671387C8.05259 -0.000671387 7.62374 0.176925 7.30749 0.493065V0.494199ZM5.26523 10.9322L10.9319 5.26553L11.7343 6.06793L6.06763 11.7346L5.26523 10.9322ZM5.66643 5.66673V6.80006H6.79976V5.66673H5.66643ZM10.1998 11.3334H11.3331V10.2001H10.1998V11.3334Z" fill="#423AF2"/>
</svg>
