<svg width="15" height="16" viewBox="0 0 15 16" fill="none" xmlns="http://www.w3.org/2000/svg">
<path d="M6.893 0.199487C7.0688 0.0699065 7.28146 0 7.49985 0C7.71825 0 7.9309 0.0699065 8.1067 0.199487L14.5823 4.97589C15.3487 5.54183 14.99 6.73372 14.0777 6.8169H0.921985C0.00966144 6.73372 -0.348313 5.54183 0.417411 4.97589L6.893 0.199487ZM7.49985 4.77202C7.77111 4.77202 8.03126 4.66426 8.22307 4.47245C8.41488 4.28064 8.52264 4.02049 8.52264 3.74923C8.52264 3.47797 8.41488 3.21782 8.22307 3.02601C8.03126 2.8342 7.77111 2.72645 7.49985 2.72645C7.22859 2.72645 6.96844 2.8342 6.77663 3.02601C6.58482 3.21782 6.47707 3.47797 6.47707 3.74923C6.47707 4.02049 6.58482 4.28064 6.77663 4.47245C6.96844 4.66426 7.22859 4.77202 7.49985 4.77202ZM11.2501 7.49944H12.954V11.5906H11.2494L11.2501 7.49944ZM9.88635 11.5906V7.49944H8.18171V11.5906H9.88635ZM6.818 11.5913V7.50012H5.11336V11.5913H6.818ZM3.75032 11.5913V7.50012H2.04568V11.5913H3.75032ZM2.21615 12.2731C1.62842 12.2731 1.06476 12.5066 0.649176 12.9222C0.23359 13.3378 0.000115337 13.9014 0.000115337 14.4892V14.8301C0.000797193 15.113 0.229901 15.3422 0.511507 15.3422H14.4875C14.6231 15.3422 14.7532 15.2883 14.8491 15.1924C14.945 15.0965 14.9989 14.9664 14.9989 14.8308V14.4898C14.9989 13.9021 14.7654 13.3384 14.3498 12.9229C13.9343 12.5073 13.3706 12.2738 12.7829 12.2738L2.21615 12.2731Z" fill="#423AF2"/>
</svg>
