<svg width="10" height="10" viewBox="0 0 10 10" fill="none" xmlns="http://www.w3.org/2000/svg">
<path d="M9.38017 4.99983L9.93281 4.04472C9.99923 3.9298 10.0173 3.79322 9.98303 3.66499C9.94877 3.53676 9.86498 3.42739 9.7501 3.36092L8.79398 2.80827V1.70698C8.79398 1.57422 8.74124 1.44689 8.64736 1.35302C8.55348 1.25914 8.42616 1.2064 8.29339 1.2064H7.19261L6.64046 0.25078C6.57378 0.136104 6.46462 0.0523001 6.33661 0.0175067C6.27311 0.00029454 6.20684 -0.0041437 6.14162 0.00444924C6.07639 0.0130422 6.01353 0.0344955 5.95666 0.0675654L5.00054 0.620212L4.04442 0.0670647C3.92945 0.000685893 3.79282 -0.0173025 3.66458 0.0170567C3.53634 0.0514158 3.42701 0.135308 3.36063 0.250279L2.80798 1.2064H1.70719C1.57443 1.2064 1.4471 1.25914 1.35322 1.35302C1.25935 1.44689 1.20661 1.57422 1.20661 1.70698V2.80777L0.250488 3.36042C0.193438 3.39323 0.143433 3.437 0.103348 3.4892C0.0632635 3.5414 0.033888 3.60101 0.0169096 3.66459C-6.8875e-05 3.72818 -0.00431556 3.7945 0.00441349 3.85973C0.0131425 3.92496 0.0346752 3.98783 0.0677745 4.04472L0.620421 4.99983L0.0677745 5.95495C0.0016916 6.06997 -0.0162378 6.20646 0.0178954 6.33464C0.0520285 6.46283 0.135456 6.57232 0.249988 6.63925L1.20611 7.1919V8.29269C1.20611 8.42545 1.25885 8.55278 1.35272 8.64665C1.4466 8.74053 1.57393 8.79327 1.70669 8.79327H2.80798L3.36063 9.74939C3.40494 9.82515 3.46822 9.88807 3.54423 9.93195C3.62024 9.97584 3.70636 9.99918 3.79413 9.99968C3.88123 9.99968 3.96784 9.97666 4.04493 9.9321L5.00004 9.37946L5.95616 9.9321C6.0711 9.99839 6.20765 10.0164 6.33584 9.98213C6.46403 9.94787 6.5734 9.86418 6.63996 9.74939L7.19211 8.79327H8.29289C8.42566 8.79327 8.55298 8.74053 8.64686 8.64665C8.74074 8.55278 8.79348 8.42545 8.79348 8.29269V7.1919L9.7496 6.63925C9.80655 6.60634 9.85646 6.56253 9.89647 6.51032C9.93648 6.45811 9.9658 6.39852 9.98277 6.33497C9.99974 6.27142 10.004 6.20514 9.99536 6.13994C9.9867 6.07473 9.96528 6.01187 9.93231 5.95495L9.38017 4.99983ZM3.74858 2.4919C3.94779 2.49197 4.13882 2.57117 4.27963 2.71208C4.42045 2.85299 4.49952 3.04407 4.49946 3.24328C4.49939 3.44249 4.42019 3.63352 4.27928 3.77434C4.13837 3.91515 3.94729 3.99422 3.74808 3.99416C3.54887 3.99409 3.35784 3.91489 3.21702 3.77398C3.07621 3.63307 2.99713 3.44199 2.9972 3.24278C2.99727 3.04357 3.07647 2.85254 3.21738 2.71172C3.35829 2.57091 3.54937 2.49183 3.74858 2.4919ZM3.89875 7.29752L3.09782 6.69732L6.10133 2.69264L6.90227 3.29284L3.89875 7.29752ZM6.25151 7.49776C6.15287 7.49772 6.0552 7.47826 5.96408 7.44048C5.87296 7.40271 5.79018 7.34735 5.72045 7.27758C5.65073 7.20781 5.59543 7.12499 5.55771 7.03384C5.51999 6.9427 5.50059 6.84502 5.50063 6.74638C5.50066 6.64774 5.52012 6.55007 5.5579 6.45895C5.59568 6.36783 5.65103 6.28505 5.72081 6.21532C5.79058 6.1456 5.8734 6.0903 5.96454 6.05258C6.05569 6.01486 6.15337 5.99547 6.25201 5.9955C6.45122 5.99557 6.64224 6.07477 6.78306 6.21568C6.92388 6.35659 7.00295 6.54767 7.00288 6.74688C7.00282 6.94609 6.92362 7.13712 6.78271 7.27793C6.6418 7.41875 6.45072 7.49782 6.25151 7.49776Z" fill="#423AF2"/>
</svg>
