<svg width="77" height="32" viewBox="0 0 77 32" fill="none" xmlns="http://www.w3.org/2000/svg">
<path d="M76.2486 16.2388C76.1048 24.4747 69.3118 31.0347 61.0758 30.891L22.0052 30.209C16.0369 30.1048 14.0837 22.1495 19.325 19.2931V19.2931C23.4808 17.0282 23.3326 11.0117 19.0703 8.95422L0.520416 1.18279e-05L61.5964 1.0661C69.8324 1.20986 76.3923 8.00292 76.2486 16.2388V16.2388Z" fill="#423AF2"/>
<g clip-path="url(#clip0_732_7)">
<path d="M38 8.98886C34.6863 8.98886 32 11.6752 32 14.9889C32 18.3026 34.6863 20.9889 38 20.9889C41.3137 20.9889 44 18.3026 44 14.9889C44 11.6752 41.3137 8.98886 38 8.98886ZM38 10.2926C40.5937 10.2926 42.6956 12.3958 42.6956 14.9889C42.6956 17.5819 40.5937 19.6844 38 19.6844C35.4063 19.6844 33.3044 17.5819 33.3044 14.9889C33.3044 12.3958 35.4063 10.2926 38 10.2926ZM40.2991 12.1397L36.8215 15.618L35.6936 14.4901L34.5869 15.596L35.7148 16.724L36.8288 17.838L37.9348 16.7313L41.4131 13.2538L40.2991 12.1397V12.1397Z" fill="white"/>
</g>
<defs>
<clipPath id="clip0_732_7">
<rect width="12" height="12" fill="white" transform="translate(32 8.98886)"/>
</clipPath>
</defs>
</svg>
