<svg width="15" height="10" viewBox="0 0 15 10" fill="none" xmlns="http://www.w3.org/2000/svg">
<path d="M0.883737 9.33343C0.892638 9.33334 0.9011 9.33114 0.909847 9.3305L11.8169 9.23576L11.8169 9.23249C11.9016 9.22868 11.9831 9.19942 12.0509 9.14855L12.051 9.15745L14.2716 7.8495L14.2638 7.8451C14.3197 7.81179 14.3671 7.76603 14.4023 7.71139C14.4375 7.65675 14.4597 7.5947 14.467 7.53009L14.4719 7.53007L14.4715 7.48185L14.4717 7.47896L14.4715 7.47604L14.4282 2.51791C14.4275 2.44522 14.408 2.37396 14.3716 2.31105C14.3352 2.24813 14.2832 2.1957 14.2205 2.15886L14.2219 2.15803L11.9788 0.888918L10.7366 3.08446C10.6659 3.03355 11.8219 0.812071 11.7281 0.812799C11.7225 0.812873 11.7175 0.814252 11.712 0.814603L0.840689 0.909541C0.82839 0.908638 0.816537 0.906124 0.803915 0.906203C0.694931 0.907342 0.5906 0.950538 0.512707 1.02677C0.434813 1.103 0.38938 1.20638 0.385894 1.31531L0.383983 1.3154L0.45018 8.91415L0.455988 8.91418C0.45726 9.02645 0.503007 9.13364 0.583193 9.21223C0.663379 9.29083 0.771462 9.33441 0.883737 9.33343ZM11.8722 5.04655C11.8708 4.89159 11.9154 4.73971 12.0004 4.61011C12.0854 4.48052 12.2069 4.37903 12.3495 4.31849C12.4922 4.25794 12.6496 4.24106 12.8018 4.26997C12.9541 4.29889 13.0943 4.3723 13.2048 4.48093C13.3153 4.58955 13.3912 4.72851 13.4227 4.88023C13.4542 5.03195 13.4401 5.18962 13.382 5.33329C13.3239 5.47697 13.2246 5.60019 13.0965 5.68739C12.9684 5.77458 12.8173 5.82182 12.6623 5.82315C12.5594 5.82405 12.4574 5.80468 12.362 5.76614C12.2666 5.7276 12.1797 5.67064 12.1064 5.59852C12.033 5.52641 11.9745 5.44054 11.9344 5.34583C11.8942 5.25112 11.873 5.14942 11.8722 5.04655Z" fill="#423AF2"/>
</svg>
