<svg width="28" height="29" viewBox="0 0 28 29" fill="none" xmlns="http://www.w3.org/2000/svg">
<path d="M24.749 23.9301C26.1851 22.2022 27.184 20.1538 27.661 17.9582C28.1381 15.7627 28.0793 13.4845 27.4897 11.3165C26.9001 9.14843 25.797 7.15429 24.2737 5.50274C22.7504 3.85119 20.8517 2.59081 18.7383 1.82824C16.6248 1.06567 14.3589 0.823339 12.132 1.12174C9.90508 1.42014 7.78282 2.2505 5.94472 3.54256C4.10662 4.83463 2.60675 6.5504 1.57199 8.54473C0.537238 10.5391 -0.00196259 12.7533 5.36765e-06 15.0001C0.000760542 18.2662 1.15175 21.4278 3.25101 23.9301L3.23101 23.9471C3.30101 24.0311 3.38101 24.1031 3.45301 24.1861C3.54301 24.2891 3.64001 24.3861 3.73301 24.4861C4.01301 24.7901 4.30101 25.0821 4.60301 25.3561C4.69501 25.4401 4.79001 25.5181 4.88301 25.5981C5.20301 25.8741 5.53201 26.1361 5.87301 26.3801C5.91701 26.4101 5.95701 26.4491 6.00101 26.4801V26.4681C8.34311 28.1162 11.1371 29.0008 14.001 29.0008C16.8649 29.0008 19.6589 28.1162 22.001 26.4681V26.4801C22.045 26.4491 22.084 26.4101 22.129 26.3801C22.469 26.1351 22.799 25.8741 23.119 25.5981C23.212 25.5181 23.307 25.4391 23.399 25.3561C23.701 25.0811 23.989 24.7901 24.269 24.4861C24.362 24.3861 24.458 24.2891 24.549 24.1861C24.62 24.1031 24.701 24.0311 24.771 23.9461L24.749 23.9301ZM14 7.00006C14.89 7.00006 15.7601 7.26398 16.5001 7.75845C17.2401 8.25291 17.8169 8.95572 18.1575 9.77798C18.4981 10.6003 18.5872 11.5051 18.4135 12.378C18.2399 13.2509 17.8113 14.0527 17.182 14.682C16.5527 15.3114 15.7508 15.74 14.8779 15.9136C14.005 16.0872 13.1002 15.9981 12.2779 15.6575C11.4557 15.3169 10.7529 14.7401 10.2584 14.0001C9.76393 13.2601 9.50001 12.3901 9.50001 11.5001C9.50001 10.3066 9.97411 9.16199 10.818 8.31808C11.6619 7.47417 12.8065 7.00006 14 7.00006ZM6.00701 23.9301C6.02435 22.617 6.55795 21.3636 7.49236 20.441C8.42677 19.5184 9.68686 19.0007 11 19.0001H17C18.3132 19.0007 19.5732 19.5184 20.5076 20.441C21.4421 21.3636 21.9757 22.617 21.993 23.9301C19.7998 25.9064 16.9523 27.0001 14 27.0001C11.0477 27.0001 8.20016 25.9064 6.00701 23.9301Z" fill="#423AF2"/>
</svg>
