<svg width="15" height="15" viewBox="0 0 15 15" fill="none" xmlns="http://www.w3.org/2000/svg">
<g clip-path="url(#clip0_195_42)">
<path d="M14.7484 8.39377H7.22715C6.82413 8.36271 6.42509 8.49162 6.1164 8.75258C5.80771 9.01354 5.61421 9.38557 5.57777 9.78814L5.57715 9.79377C5.61411 10.2016 5.8115 10.5781 6.12593 10.8405C6.44037 11.1029 6.84612 11.2298 7.25402 11.1931L7.2484 11.1938H14.7484C14.7956 11.1981 14.8432 11.193 14.8884 11.1788C14.9336 11.1645 14.9755 11.1413 15.0117 11.1107C15.0478 11.08 15.0775 11.0424 15.0989 11.0001C15.1204 10.9578 15.1331 10.9117 15.1365 10.8644V8.72439C15.1243 8.63293 15.0793 8.54902 15.0098 8.48822C14.9404 8.42742 14.8513 8.39386 14.759 8.39377H14.7478H14.7484ZM7.22715 10.6675C7.05038 10.6675 6.87758 10.6151 6.73061 10.5169C6.58363 10.4187 6.46908 10.2791 6.40143 10.1158C6.33379 9.95248 6.31609 9.77278 6.35057 9.59941C6.38506 9.42604 6.47018 9.26679 6.59517 9.14179C6.72017 9.0168 6.87942 8.93168 7.05279 8.89719C7.22616 8.86271 7.40586 8.88041 7.56917 8.94805C7.73248 9.0157 7.87207 9.13025 7.97027 9.27723C8.06848 9.4242 8.1209 9.597 8.1209 9.77377V9.77627C8.1209 10.2688 7.72152 10.6675 7.22965 10.6675H7.22715Z" fill="#423AF2"/>
<path d="M2.05859 0V4.0025H2.91359V2.2925C2.99984 2.31375 3.09984 2.3275 3.20234 2.33125H3.20484C3.51379 2.33043 3.80986 2.20737 4.02838 1.98897C4.24689 1.77057 4.3701 1.47457 4.37109 1.16562C4.36902 1.06416 4.35518 0.963274 4.32984 0.865L4.33172 0.874375H9.01422C8.99166 0.969083 8.97868 1.06582 8.97547 1.16312V1.16562C8.97629 1.47457 9.09934 1.77064 9.31775 1.98916C9.53615 2.20768 9.83215 2.33089 10.1411 2.33187C10.2461 2.32812 10.3467 2.31437 10.443 2.29062L10.433 2.2925V4.0025H11.3086V0H2.05859Z" fill="#423AF2"/>
<path d="M11.6777 3.51624H12.7659C12.6843 3.27945 12.5415 3.0685 12.3519 2.9049C12.1623 2.74131 11.9327 2.63092 11.6865 2.58499L11.6777 2.58374V3.51624Z" fill="#423AF2"/>
<path d="M7.16937 7.92749H14.6306V5.65436C14.5987 5.31717 14.4355 5.00602 14.1764 4.78798C13.9172 4.56994 13.5827 4.46247 13.245 4.48874H13.2494H1.39937C1.38929 4.47773 1.37549 4.47083 1.36062 4.46936C1.27846 4.43076 1.20813 4.37088 1.15692 4.29592C1.1057 4.22097 1.07548 4.13368 1.06937 4.04311V4.04186C1.07932 3.92945 1.12339 3.82275 1.19566 3.73607C1.26793 3.64939 1.36496 3.58687 1.47375 3.55686L1.4775 3.55624V2.56561C0.660625 2.60436 0 3.76999 0 5.22749V13.835C0.0322445 14.1718 0.19532 14.4825 0.454181 14.7003C0.713043 14.9182 1.04703 15.0258 1.38437 15H1.38H13.23C13.5659 15.0248 13.8982 14.9173 14.1559 14.7004C14.4136 14.4836 14.5764 14.1746 14.6094 13.8394L14.61 13.8344V11.5612H7.19C5.98562 11.5612 5.01375 10.745 5.01375 9.75436C5.01375 8.74436 5.985 7.92811 7.17 7.92811L7.16937 7.92749Z" fill="#423AF2"/>
</g>
<defs>
<clipPath id="clip0_195_42">
<rect width="15" height="15" fill="white"/>
</clipPath>
</defs>
</svg>
